<?xml version="1.0" encoding="utf-8"?>
<!-- Generator: Adobe Illustrator 19.0.0, SVG Export Plug-In . SVG Version: 6.00 Build 0)  -->
<svg version="1.1" id="Layer_1" xmlns="http://www.w3.org/2000/svg" xmlns:xlink="http://www.w3.org/1999/xlink" x="0px" y="0px"
	 viewBox="0 0 374 128" enable-background="new 0 0 374 128" xml:space="preserve">
<g id="XMLID_1_">
	<path id="XMLID_3_" fill="#FFFFFF" d="M284.5,104.6H261v-5.1c0-5.6,1.5-6.6,10.5-8.3c5.1-1,5.4-0.9,5.4-3.4c0-2.4-1-2.7-4.2-2.7
		c-3.6,0-4.2,0.2-4.2,2.8v1.2H261v-1.2c0-6.6,4.2-7.9,11.7-7.9c7,0,11.7,0.8,11.7,7.7c0,5.5-1.9,6.5-8.2,7.9c-6,1.3-7.7,0.6-7.7,3.9
		h15.9V104.6z"/>
	<path id="XMLID_5_" fill="#FFFFFF" d="M313.7,88.6v7.7c0,8.2-6.1,8.5-12.4,8.5c-6.3,0-12.4-0.3-12.4-8.5v-7.7
		c0-8.2,6.1-8.5,12.4-8.5C307.6,80,313.7,80.3,313.7,88.6z M296.5,89.6v5.6c0,4.2,0.9,4.2,4.8,4.2s4.8-0.1,4.8-4.2v-5.6
		c0-4.2-0.9-4.2-4.8-4.2S296.5,85.4,296.5,89.6z"/>
	<path id="XMLID_8_" fill="#FFFFFF" d="M337.7,104.6h-7.9V86l-7.7,5.7l-4.5-4.2l10.8-7.3h9.3V104.6z"/>
	<path id="XMLID_10_" fill="#FFFFFF" d="M354.2,97.5c0.2,2,1.6,2.2,3.8,2.2c3.4,0,4.5-0.1,4.5-3.2c0-3.1-0.1-3.8-4.5-3.8
		c-2.5,0-3.4,0-3.8,1.2h-6.8V80.2h21.5v4.7h-14.6v4.7c2-1.7,2.8-1.8,6.5-1.8c7.2,0,9.3,2.3,9.3,8c0,7.8-3.4,9-12,9
		c-7.3,0-11.1-1.2-11.3-7.3H354.2z"/>
</g>
<g id="XMLID_12_">
	<path id="XMLID_38_" fill="#FFFFFF" d="M48.4,55.3c0.8,0,2.4,0,3.1-0.4c-1.5-1.4-3.4-1.8-4.9-1.8c-1.5,0-1.7,0.3-1.7,0.8
		C44.9,54.4,46.1,55.3,48.4,55.3 M38.1,42.6v1.3c0,6.9-5.8,13.2-11.9,13.2c-2.9,0-5.2-1.4-5.2-4.4c0-6.2,8.9-15,25.2-15
		c3.4,0,6.7,0.3,9.9,1.4c1.8-0.7,4.1-1.4,6-1.4v0.6c-1.6,0.1-3.7,0.6-5.2,1.3c3.4,1.5,6,3.4,6,7.5c0,5.2-5.5,7.3-9.8,8.4
		c1.3,1.3,2.2,2.8,2.2,5.5c0,7.8-7,12.5-13.7,12.5c-2.7,0-5.6-1.2-5.6-4.4c0-4.4,5-8.1,8.9-9.2l0.2,0.4c-3.4,1.1-8.5,4-8.5,8.8
		c0,1.5,1.6,3.3,3.4,3.3c5.3,0,12-9.7,12-14.6c0-1,0-1.6-0.2-1.9c-0.5,0.1-1.2,0.2-3.4,0.2c-2.1,0-4-1-4-2c0-0.8,0.5-1.4,2.2-1.4
		c2.6,0,4.3,0.9,5.7,2.1c3.1-1,6.1-5.1,6.1-8.4c0-2.3-0.9-4.6-3.1-5.9C41.3,50.7,32.9,73.4,16.1,73.4C9.6,73.4,6,71.5,6,67.8
		c0-1.6,1-3.1,2.7-3.1c1.4,0,2.7,1.1,2.7,2.8c0,2.9-3.2,2.5-3.2,3.2s2.1,2.1,7,2.1c12.6,0,17-23.3,38.8-32.9v-0.1
		c-3.4-1.1-6.9-1.3-9.5-1.3c-12.1,0-23,7-23,14c0,2.7,1.7,4,4.3,4c5,0,11.6-7.8,11.6-12.5v-1.4H38.1z"/>
	<path id="XMLID_37_" fill="#FFFFFF" d="M65.2,57.9H71l-9.5,10.9c-2.3,2.7-2.5,2.9-2.5,3.3c0,0.4,0.4,0.7,1,0.7c2.7,0,7.2-4,8.9-5.9
		l7.9-9h5.7L70.9,71.1c-0.7,0.7-0.8,1-0.8,1.3s0.2,0.5,0.9,0.5c2.1,0,5.9-2.5,11.8-8.3l0.5,0.3c-4.4,4.3-9.1,8.6-12.4,8.6
		c-1.9,0-3.2-1.1-3.2-2.9c0-0.7,0.2-1.5,0.6-2.2h-0.1c-1.9,1.8-5.5,5-8.3,5c-2.1,0-3.3-1.8-3.3-3.7c0-1.7,0.7-2.8,3.6-6.1L65.2,57.9
		z"/>
	<path id="XMLID_36_" fill="#FFFFFF" d="M100.1,64.8c-1.2,2.5-4.4,4.5-6.8,5.1c-1.4,1.5-3.5,3.5-8,3.5c-3.6,0-5.1-2-5.1-4.2
		c0-2.8,2.1-5,4.1-5c1.2,0,2.1,0.9,2.1,2.1c0,1.4-1.2,2.5-2.5,2.5c-1.1,0-1.9-1-2.1-2.3c-0.8,0.7-1,1.8-1,3c0,1.5,1.2,2.7,2.4,2.7
		c0.9,0,1.8-0.4,3.3-2l3-3.2c2.7-2.8,3.3-4.1,3.3-5.3c0-0.7-0.3-1.8-1-2.8l-3.8,3.7l-0.4-0.2l3.9-3.9c-0.3-0.4-0.6-0.9-0.6-1.3
		c0-2.3,2.2-3.6,2.7-3.6c0.6,0,1.1,0.5,1.1,1.2c0,1.3-2,3.2-2.5,3.7c2.1,3.6,2.9,5.5,2.9,6.9c0,1.3-0.3,2.3-1.3,3.9h0.1
		c2.3-0.8,4.5-2.4,5.8-4.6L100.1,64.8z"/>
	<path id="XMLID_33_" fill="#FFFFFF" d="M116.9,48.5c1.2,0,2.1,0.8,2.1,1.8c0,1.2-1.3,2.8-3.1,2.8c-1.2,0-2.1-0.8-2.1-1.8
		C113.8,50.1,115.2,48.5,116.9,48.5 M107.6,57.9h5.5l-11.2,12.8c-0.8,1-1,1.2-1,1.4c0,0.4,0.3,0.7,0.8,0.7c1.8,0,4.9-2.1,11.6-8.4
		l0.5,0.2c-7.5,7.2-10.3,8.8-12.3,8.8c-1.8,0-2.9-1.3-2.9-3.1c0-1,0.4-2.5,1.8-4.1L107.6,57.9z"/>
	<path id="XMLID_32_" fill="#FFFFFF" d="M120.7,57.9h5.5l-3.5,4h0.1c3.2-2.9,5.8-4.5,7.3-4.5c1.1,0,2.4,0.7,2.4,4
		c0,1.4-1.1,3.8-4.9,7.9c-2.3,2.5-2.4,2.7-2.4,3c0,0.3,0.3,0.6,1,0.6c2,0,6.6-4.1,10.3-9.1l0.5,0.3c-5.1,6.7-8.7,9.4-11.2,9.4
		c-2.3,0-2.9-1.7-2.9-3.8c0-1.5,1-3.8,6.7-9.2c0.8-0.8,1.3-1.3,1.3-1.7c0-0.5-0.3-0.8-0.9-0.8c-2.5,0-9.8,6.9-11.8,9.2l-5,5.7h-5.6
		L120.7,57.9z"/>
	<path id="XMLID_29_" fill="#FFFFFF" d="M141,65.5c4.1,0,8.3-3.2,8.3-6.4c0-0.7-0.4-1.1-0.8-1.1c-0.8,0-1.6,0.8-3.3,2.7L141,65.5z
		 M152.4,64.3c-3.9,5-10,9.1-14.5,9.1c-2.4,0-3.8-1.5-3.8-3.8c0-7.1,9-12.3,13.8-12.3c1.9,0,3.2,1.1,3.2,2.7c0,4.1-5.6,5.8-10.5,6
		c-3.8,4.1-4.1,5.3-4.1,5.9c0,0.6,0.7,0.8,1.7,0.8c4.5,0,10.5-4.4,13.6-8.5H152.4z"/>
	<path id="XMLID_28_" fill="#FFFFFF" d="M169.3,64.8c-1.2,2.5-4.4,4.5-6.8,5.1c-1.4,1.5-3.5,3.5-8,3.5c-3.6,0-5.1-2-5.1-4.2
		c0-2.8,2.1-5,4.1-5c1.2,0,2.1,0.9,2.1,2.1c0,1.4-1.2,2.5-2.5,2.5c-1.1,0-1.9-1-2.1-2.3c-0.8,0.7-1,1.8-1,3c0,1.5,1.2,2.7,2.4,2.7
		c0.9,0,1.8-0.4,3.3-2l3-3.2c2.7-2.8,3.3-4.1,3.3-5.3c0-0.7-0.3-1.8-1-2.8l-3.8,3.7l-0.4-0.2l3.9-3.9c-0.3-0.4-0.6-0.9-0.6-1.3
		c0-2.3,2.2-3.6,2.7-3.6s1.1,0.5,1.1,1.2c0,1.3-2,3.2-2.5,3.7c2.1,3.6,2.9,5.5,2.9,6.9c0,1.3-0.3,2.3-1.3,3.9h0.1
		c2.3-0.8,4.5-2.4,5.8-4.6L169.3,64.8z"/>
	<path id="XMLID_27_" fill="#FFFFFF" d="M186.5,64.8c-1.2,2.5-4.4,4.5-6.8,5.1c-1.4,1.5-3.5,3.5-8,3.5c-3.6,0-5.1-2-5.1-4.2
		c0-2.8,2.1-5,4.1-5c1.2,0,2.1,0.9,2.1,2.1c0,1.4-1.2,2.5-2.5,2.5c-1.1,0-1.9-1-2.1-2.3c-0.8,0.7-1,1.8-1,3c0,1.5,1.2,2.7,2.4,2.7
		c0.9,0,1.8-0.4,3.3-2l3-3.2c2.7-2.8,3.3-4.1,3.3-5.3c0-0.7-0.3-1.8-1-2.8l-3.8,3.7l-0.4-0.2l3.9-3.9c-0.3-0.4-0.6-0.9-0.6-1.3
		c0-2.3,2.2-3.6,2.7-3.6s1.1,0.5,1.1,1.2c0,1.3-2,3.2-2.5,3.7c2.1,3.6,2.9,5.5,2.9,6.9c0,1.3-0.3,2.3-1.3,3.9h0.1
		c2.3-0.8,4.5-2.4,5.8-4.6L186.5,64.8z"/>
	<path id="XMLID_24_" fill="#FFFFFF" d="M238.6,56c1.9-2.8,12.9-13.3,12.9-16.6c0-0.8-0.7-1.2-1.3-1.2c-3.7,0-10,6.2-19.9,17.8
		H238.6z M222.3,55.9c2.4,0,4.9,0.1,7.3,0.1c7.3-8.7,15.6-18.4,20.7-18.4c2.8,0,3.5,1.4,3.5,4c0,3.3-1.5,5.8-9.1,14.4
		c1.4,0,3-0.2,4.4-0.2l-0.4,1c-1.5,0-3.2-0.2-4.7-0.2c-5.2,5.7-7.8,8.9-7.8,11.9c0,3,1.5,4.3,4.9,4.3c5.1,0,14-8.2,14-12.6
		c0-1.9-1.6-2.9-2.8-2.9c-3.6,0-7,4.4-8.4,7.3h-0.3c0.9-3.8,4.7-7.9,8.6-7.9c2.4,0,3.5,1.7,3.5,3.5c0,7.8-9.1,13.1-14.3,13.1
		c-4.7,0-8.6-3.3-8.6-7.4c0-3.7,2.7-6.4,5.3-9.4h-8.3c-9.7,11.1-16.3,16.8-23.7,16.8c-5,0-7.9-2.6-7.9-5.8c0-1.5,1.2-2.9,2.9-2.9
		c1.4,0,2.9,1.1,2.9,2.6c0,1.2-1.1,2.8-3,2.8c-0.2,0-0.4,0.2-0.4,0.4c0,1,2.4,2.3,5.5,2.3c7.1,0,13-5,23-16.2
		c-2.5,0-4.8,0.2-7.2,0.2L222.3,55.9z"/>
	<path id="XMLID_23_" fill="#FFFFFF" d="M265.2,57.9h6.1l-10.5,11.7c-1.3,1.4-1.5,1.9-1.5,2.4c0,0.6,0.5,0.8,1.1,0.8
		c1.8,0,5.3-2.1,11.1-8.7l5.4-6.2h5.7l-9.2,10.4c-2.3,2.6-2.9,3.2-2.9,3.8c0,0.3,0.3,0.7,1.1,0.7c2.6,0,5.4-1,10.8-6.4
		c-0.9-0.6-1.4-1.7-1.4-2.8c0-2.5,3.2-6.2,5.3-6.2c1.1,0,1.3,0.9,1.3,1.7c0,1.4-1.8,4.3-4.2,7c0.4,0.2,1,0.4,1.8,0.4
		c1,0,2.6-0.4,4.2-2.1h0.6c-1.1,1.9-3.5,2.7-5,2.7c-0.7,0-1.3-0.1-2-0.4c-5.5,5.4-8.2,6.8-11.5,6.8c-2,0-3.3-1.3-3.3-3.3
		c0-0.8,0.1-1.4,0.3-1.9h-0.1c-2.9,2.7-5.6,5.2-8.3,5.2c-2.1,0-3.1-1.6-3.1-3.6c0-1.7,0.5-2.8,2.8-5.5L265.2,57.9z"/>
	<path id="XMLID_20_" fill="#FFFFFF" d="M302.8,58.2c-1.5,0-2,0.5-10.1,10c-1.5,1.7-2.4,2.8-2.4,3.6c0,0.7,0.5,1,1.1,1
		c1.5,0,3.7-1.6,6.7-4.9c6.3-7.1,6.3-8,6.3-8.6C304.3,58.6,303.7,58.2,302.8,58.2 M306.6,57.9h6l-11.8,13.2
		c-0.5,0.6-0.7,0.8-0.7,1.2c0,0.3,0.3,0.5,0.7,0.5c4.3,0,8.8-4.3,12.7-8.5l0.5,0.3c-4,4.4-8.7,8.8-13,8.8c-2.8,0-3.2-1.9-3.2-3
		c0-0.5,0.1-1.2,0.3-1.6h-0.1c-2.8,3.1-5.1,4.6-6.9,4.6c-1.9,0-2.9-1.4-2.9-3.7c0-8,9-12.4,13.9-12.4c1.8,0,2.8,1.1,2.8,1.9
		c0,0.2,0,0.5,0,0.6h0.1L306.6,57.9z"/>
	<path id="XMLID_19_" fill="#FFFFFF" d="M321.2,57.9h5.5l-6.6,7.1l0.1,0.1c1.4-0.9,3-1.4,4.5-1.7c1-2.1,3.7-6,6.3-6
		c0.6,0,1.4,0.3,1.4,1.2c0,3.2-4.7,4.5-7.2,5.3c-0.2,0.2-0.2,0.6-0.2,1.1c0,0.7,0.6,1.5,1.6,1.5c2,0,3.6-1.4,4.7-3l0.5,0.3
		c-1.3,1.7-2.7,3.3-5.1,3.3c-1.7,0-2.3-1.2-2.3-1.8c0-0.4,0-0.8,0.1-1.3c-3.1,0.9-5,2-7.1,4.3l-4.1,4.5H308L321.2,57.9z"/>
	<path id="XMLID_16_" fill="#FFFFFF" d="M333.3,72.9c1.1,0,3.5-0.9,12.4-11.3c0.8-0.9,0.9-1.5,0.9-1.7c0-0.9-0.6-1.6-1.5-1.6
		c-0.9,0-1.7,0.1-2.8,1.4c-10,10.9-10.4,11.4-10.4,12C331.9,72,332.1,72.9,333.3,72.9 M362.6,43.4h5.8l-25.4,27.2
		c-0.5,0.5-0.7,0.9-0.7,1.4c0,0.4,0.3,0.7,0.8,0.7c3.3,0,7.9-3,12.3-8.4l0.7,0.2c-4.3,5.1-8.8,8.8-12.8,8.8c-2.5,0-3.5-0.8-3.5-2.9
		c0-0.6,0-1.2,0.1-1.5h-0.1c-3.3,3.3-4.9,4.4-6.8,4.4c-2.6,0-3.4-1.8-3.4-3.7c0-5,6-12.3,13.9-12.3c1.6,0,3.5,0.2,3.7,2.3
		L362.6,43.4z"/>
	<path id="XMLID_15_" fill="#FFFFFF" d="M373,64.8c-1.2,2.5-4.4,4.5-6.8,5.1c-1.4,1.5-3.5,3.5-8,3.5c-3.6,0-5.1-2-5.1-4.2
		c0-2.8,2.1-5,4.1-5c1.2,0,2.1,0.9,2.1,2.1c0,1.4-1.2,2.5-2.5,2.5c-1.1,0-1.9-1-2.1-2.3c-0.8,0.7-1,1.8-1,3c0,1.5,1.2,2.7,2.4,2.7
		c0.9,0,1.8-0.4,3.3-2l3-3.2c2.7-2.8,3.3-4.1,3.3-5.3c0-0.7-0.3-1.8-1-2.8l-3.8,3.7l-0.4-0.2l3.9-3.9c-0.3-0.4-0.6-0.9-0.6-1.3
		c0-2.3,2.2-3.6,2.7-3.6c0.6,0,1.1,0.5,1.1,1.2c0,1.3-2,3.2-2.5,3.7c2.1,3.6,2.9,5.5,2.9,6.9c0,1.3-0.3,2.3-1.3,3.9h0.1
		c2.3-0.8,4.5-2.4,5.8-4.6L373,64.8z"/>
	<path id="XMLID_14_" fill="#FFFFFF" d="M54,40.3c0,0,32.5-17,83.7-17s66.1,7.9,108.5,7.9c42.4,0,62.6-10.9,62.6-10.9
		s-30.9,17-68.3,17c-37.4,0-56.1-7.8-109.1-7.2C78.5,30.7,54,40.3,54,40.3"/>
	<path id="XMLID_13_" fill="#FFFFFF" d="M1,96.1c0,0,32.5-17,83.7-17S150.8,87,193.2,87s62.6-10.9,62.6-10.9s-30.9,17-68.3,17
		s-56.1-7.8-109.1-7.2C25.4,86.5,1,96.1,1,96.1"/>
</g>
<g id="XMLID_2_">
</g>
<g id="XMLID_41_">
</g>
<g id="XMLID_42_">
</g>
<g id="XMLID_43_">
</g>
<g id="XMLID_44_">
</g>
<g id="XMLID_45_">
</g>
<g id="XMLID_46_">
</g>
<g id="XMLID_47_">
</g>
<g id="XMLID_48_">
</g>
<g id="XMLID_49_">
</g>
<g id="XMLID_50_">
</g>
<g id="XMLID_51_">
</g>
<g id="XMLID_52_">
</g>
<g id="XMLID_53_">
</g>
<g id="XMLID_54_">
</g>
</svg>
