<?xml version="1.0" encoding="utf-8"?>
<!-- Generator: Adobe Illustrator 19.1.0, SVG Export Plug-In . SVG Version: 6.00 Build 0)  -->
<svg version="1.1" id="Layer_15" xmlns="http://www.w3.org/2000/svg" xmlns:xlink="http://www.w3.org/1999/xlink" x="0px" y="0px"
	 viewBox="0 0 390 292.5" enable-background="new 0 0 390 292.5" xml:space="preserve">
<polygon fill="#0055A3" points="46.2,56.8 343.8,56.8 343.8,113.5 46.2,113.5 46.2,56.8 46.2,56.8 "/>
<polygon fill="#00A84F" points="46.2,118.9 343.8,118.9 343.8,175.5 46.2,175.5 46.2,118.9 46.2,118.9 "/>
<polygon fill="#0055A3" points="46.2,180.9 343.8,180.9 343.8,237.6 46.2,237.6 46.2,180.9 46.2,180.9 "/>
<g>
	<path fill="#FFFFFF" d="M100.2,98.9H90.2c-5.2,0-10.5-0.9-10.5-7.3v-2v-0.5h0.5h3.4h0.5v0.5v1.9c0,2.1,0.9,3.4,5.4,3.4h11.2
		c5.4,0,6.3-1.2,6.3-4.5c0-2.8-0.7-3.7-5.3-3.7h-6.9c-11,0-15.2-0.7-15.2-8.3c0-6.7,4.3-8,11.6-8h7.8c8.6,0,11.8,2.1,11.8,7.6V79
		v0.5h-0.5h-3.4h-0.5l0-0.5c-0.1-3.8-0.1-4.5-9.5-4.5h-3.8c-7.2,0-9,0.4-9,4.3c0,2.7,0.5,3.8,6.2,3.8H101c7.3,0,10.5,2.2,10.5,7.1
		v1.7C111.5,98.9,104.5,98.9,100.2,98.9L100.2,98.9z"/>
	<polygon fill="#FFFFFF" points="148.2,98.6 147.7,98.6 121.3,98.6 120.8,98.6 120.8,98.1 120.8,71.3 120.8,70.8 121.3,70.8 
		147.6,70.8 148.1,70.8 148.1,71.3 148.1,74.2 148.1,74.7 147.6,74.7 125.4,74.7 125.4,82.3 146.7,82.3 147.2,82.3 147.2,82.8 
		147.2,85.7 147.2,86.2 146.7,86.2 125.4,86.2 125.4,94.6 147.7,94.6 148.2,94.6 148.2,95.1 148.2,98.1 148.2,98.6 	"/>
	<polygon fill="#FFFFFF" points="175.7,98.6 175.4,98.6 170.9,98.6 170.6,98.6 170.5,98.3 155.7,71.5 155.3,70.8 156.1,70.8 
		160.2,70.8 160.5,70.8 160.6,71 173.2,93.8 185.7,71 185.9,70.8 186.1,70.8 190.2,70.8 191.1,70.8 190.7,71.5 175.8,98.3 
		175.7,98.6 	"/>
	<polygon fill="#FFFFFF" points="226.4,98.6 225.9,98.6 199.5,98.6 199,98.6 199,98.1 199,71.3 199,70.8 199.5,70.8 225.8,70.8 
		226.3,70.8 226.3,71.3 226.3,74.2 226.3,74.7 225.8,74.7 203.6,74.7 203.6,82.3 224.9,82.3 225.4,82.3 225.4,82.8 225.4,85.7 
		225.4,86.2 224.9,86.2 203.6,86.2 203.6,94.6 225.9,94.6 226.4,94.6 226.4,95.1 226.4,98.1 226.4,98.6 	"/>
	<path fill="#FFFFFF" d="M266.2,98.6h-0.5h-3.4h-0.5v-0.5v-5.9c0-3.6-1.4-4.2-4.8-4.2h-17.2v10.1v0.5h-0.5h-3.6h-0.5v-0.5V71.3v-0.5
		h0.5H257c8,0,9.5,2.7,9.5,8.1V81c0,3.3-1.6,4.6-3.4,5.2c2.1,0.9,3.1,2.5,3.1,5v6.8V98.6L266.2,98.6z M239.7,84h16.9
		c4.4,0,5.2-1.3,5.2-3.4v-2.4c0-2.4-0.6-3.5-6.1-3.5h-16V84L239.7,84z"/>
	<polygon fill="#FFFFFF" points="310.3,98.6 309.8,98.6 304.4,98.6 304.2,98.6 304.1,98.4 280.4,75.7 280.4,98.1 280.4,98.6 
		279.9,98.6 276.3,98.6 275.8,98.6 275.8,98.1 275.8,71.3 275.8,70.8 276.3,70.8 281.7,70.8 281.9,70.8 282,70.9 305.7,93.6 
		305.7,71.3 305.7,70.8 306.2,70.8 309.8,70.8 310.3,70.8 310.3,71.3 310.3,98.1 310.3,98.6 	"/>
	<polygon fill="#FFFFFF" points="117.9,159.5 117.4,159.5 113.8,159.5 113.3,159.5 113.3,159 113.3,135.7 100.2,135.7 99.7,135.7 
		99.7,135.2 99.7,132.2 99.7,131.7 100.2,131.7 130.9,131.7 131.4,131.7 131.4,132.2 131.4,135.2 131.4,135.7 130.9,135.7 
		117.9,135.7 117.9,159 117.9,159.5 	"/>
	<path fill="#FFFFFF" d="M170.5,159.5H170h-3.4h-0.5V159v-5.9c0-3.6-1.4-4.2-4.8-4.2h-17.2V159v0.5h-0.5H140h-0.5V159v-26.8v-0.5
		h0.5h21.4c8,0,9.5,2.7,9.5,8.1v2.2c0,3.3-1.6,4.6-3.4,5.2c2.1,0.9,3.1,2.5,3.1,5v6.8V159.5L170.5,159.5z M144.1,145H161
		c4.4,0,5.2-1.3,5.2-3.4v-2.4c0-2.3-0.6-3.5-6.1-3.5h-16V145L144.1,145z"/>
	<polygon fill="#FFFFFF" points="207.7,159.5 207.2,159.5 180.7,159.5 180.2,159.5 180.2,159 180.2,132.2 180.2,131.7 180.7,131.7 
		207,131.7 207.5,131.7 207.5,132.2 207.5,135.2 207.5,135.7 207,135.7 184.9,135.7 184.9,143.2 206.2,143.2 206.7,143.2 
		206.7,143.7 206.7,146.7 206.7,147.2 206.2,147.2 184.9,147.2 184.9,155.6 207.2,155.6 207.7,155.6 207.7,156.1 207.7,159 
		207.7,159.5 	"/>
	<polygon fill="#FFFFFF" points="250.9,159.5 250.4,159.5 245,159.5 244.8,159.5 244.7,159.4 221,136.7 221,159 221,159.5 
		220.5,159.5 216.9,159.5 216.4,159.5 216.4,159 216.4,132.2 216.4,131.7 216.9,131.7 222.3,131.7 222.5,131.7 222.6,131.9 
		246.3,154.6 246.3,132.2 246.3,131.7 246.8,131.7 250.4,131.7 250.9,131.7 250.9,132.2 250.9,159 250.9,159.5 	"/>
	<polygon fill="#FFFFFF" points="277.2,159.5 276.7,159.5 273.1,159.5 272.6,159.5 272.6,159 272.6,135.7 259.5,135.7 259,135.7 
		259,135.2 259,132.2 259,131.7 259.5,131.7 290.3,131.7 290.8,131.7 290.8,132.2 290.8,135.2 290.8,135.7 290.3,135.7 277.2,135.7 
		277.2,159 277.2,159.5 	"/>
	<polygon fill="#FFFFFF" points="135.8,221 135.4,221 130.8,221 130.4,221 130.3,220.7 121.7,198.3 113,220.7 112.9,221 112.6,221 
		107.9,221 107.6,221 107.4,220.7 96.8,193.9 96.5,193.2 97.2,193.2 100.8,193.2 101.1,193.2 101.3,193.5 110.1,215.7 118.9,193.5 
		119,193.2 119.3,193.2 124,193.2 124.3,193.2 124.5,193.5 133.1,215.8 142.1,193.5 142.2,193.2 142.5,193.2 146.1,193.2 
		146.8,193.2 146.5,193.9 135.9,220.7 135.8,221 	"/>
	<path fill="#FFFFFF" d="M185.5,221h-0.9h-4.1h-0.3l-0.1-0.2l-3.2-5.4H156l-3.2,5.4l-0.1,0.2h-0.3h-4.1h-0.9l0.4-0.8l15.9-26.8
		l0.1-0.2h0.3h4.5h0.3l0.1,0.2l15.9,26.8L185.5,221L185.5,221z M158.3,211.3h16.2l-8.1-13.7L158.3,211.3L158.3,211.3z"/>
	<polygon fill="#FFFFFF" points="202.9,221 202.4,221 198.8,221 198.3,221 198.3,220.5 198.3,197.1 185.3,197.1 184.8,197.1 
		184.8,196.6 184.8,193.7 184.8,193.2 185.3,193.2 216,193.2 216.5,193.2 216.5,193.7 216.5,196.6 216.5,197.1 216,197.1 
		202.9,197.1 202.9,220.5 202.9,221 	"/>
	<polygon fill="#FFFFFF" points="251.1,221 250.6,221 224.1,221 223.6,221 223.6,220.5 223.6,193.7 223.6,193.2 224.1,193.2 
		250.4,193.2 250.9,193.2 250.9,193.7 250.9,196.6 250.9,197.1 250.4,197.1 228.3,197.1 228.3,204.7 249.5,204.7 250,204.7 
		250,205.2 250,208.1 250,208.6 249.5,208.6 228.3,208.6 228.3,217 250.6,217 251.1,217 251.1,217.5 251.1,220.5 251.1,221 	"/>
	<path fill="#FFFFFF" d="M290.8,221h-0.5h-3.4h-0.5v-0.5v-5.9c0-3.6-1.4-4.2-4.8-4.2h-17.2v10.1v0.5h-0.5h-3.6h-0.5v-0.5v-26.8v-0.5
		h0.5h21.4c8,0,9.5,2.7,9.5,8.1v2.2c0,3.3-1.6,4.6-3.4,5.2c2.1,0.9,3.1,2.5,3.1,5v6.8V221L290.8,221z M264.4,206.4h16.9
		c4.4,0,5.2-1.3,5.2-3.4v-2.4c0-2.4-0.6-3.5-6.1-3.5h-16V206.4L264.4,206.4z"/>
</g>
<g>
</g>
<g>
</g>
<g>
</g>
<g>
</g>
<g>
</g>
<g>
</g>
<g>
</g>
<g>
</g>
<g>
</g>
<g>
</g>
</svg>
