<?xml version="1.0" encoding="utf-8"?>
<!-- Generator: Adobe Illustrator 19.0.0, SVG Export Plug-In . SVG Version: 6.00 Build 0)  -->
<svg version="1.1" id="Jerroms" xmlns="http://www.w3.org/2000/svg" xmlns:xlink="http://www.w3.org/1999/xlink" x="0px" y="0px"
	 viewBox="0 0 390 292.5" enable-background="new 0 0 390 292.5" xml:space="preserve">
<g>
	<path fill="#405052" d="M12,149.2c8.6-4.7,10.3-10.5,10.3-19.7V90.2h5.9v39.2c0,10.8-1.9,18.8-13.7,24.1L12,149.2z"/>
	<path fill="#405052" d="M39.5,90.2h28v4.7H45.3v17.8h20.7v4.8H45.3v17.9h23.8v4.8H39.5V90.2z"/>
	<path fill="#405052" d="M101.9,130.4L94.4,120c-1.2,0.2-3.2,0.4-4.7,0.4h-6.9v19.9h-5.8v-50h16.3c9.6,0,16.1,4.5,16.1,14.6
		c0,5.9-2.7,11.2-9.4,13.7l6.7,9.2c3.3,4.3,6.2,7.4,11,8.8l-1.3,4.5C110.6,140.3,106.3,136.5,101.9,130.4z M90.2,115.5
		c7.7,0,13.3-2.3,13.3-10.2c0-7.6-4-10.3-11.6-10.3h-9v20.5H90.2z"/>
	<path fill="#405052" d="M147.2,130.4l-7.4-10.4c-1.2,0.2-3.2,0.4-4.7,0.4h-6.9v19.9h-5.8v-50h16.3c9.6,0,16.1,4.5,16.1,14.6
		c0,5.9-2.7,11.2-9.4,13.7l6.7,9.2c3.3,4.3,6.2,7.4,11,8.8l-1.3,4.5C155.9,140.3,151.7,136.5,147.2,130.4z M135.6,115.5
		c7.7,0,13.3-2.3,13.3-10.2c0-7.6-4-10.3-11.6-10.3h-9v20.5H135.6z"/>
	<path fill="#405052" d="M164.2,115.1c0-15.6,10.1-25.6,25.5-25.6c16.1,0,24.6,11.2,24.6,25.8c0,15.3-9.6,25.8-25.6,25.8
		C173.1,141.1,164.2,130.4,164.2,115.1z M208.4,115.2c0-11.9-6.8-20.9-19-20.9c-12.9,0-19.4,9-19.4,20.7c0,11.4,6.3,21.2,18.9,21.2
		C202.2,136.3,208.4,127.1,208.4,115.2z"/>
	<path fill="#405052" d="M222.5,90.2h7.9l17.1,46.6l19.2-46.6h7.4v50h-5.9v-33.6l0.3-7.7h-0.2l-16.8,41.3h-8.4l-14.9-41.5h-0.2
		l0.4,6.9v34.5h-5.8V90.2z"/>
	<path fill="#405052" d="M281.6,137.6l1.8-4.8c3.7,1.8,7.4,3.2,12.2,3.2c5.5,0,11.7-2.1,11.7-8.6c0-12.5-24.6-9.1-24.6-25.5
		c0-8.1,6.9-12.4,14.9-12.4c5.7,0,9.3,1.1,12.3,2.8l-1.8,4.5c-3.3-1.5-6.4-2.4-10.4-2.4c-5.2,0-9.5,2.3-9.5,7.4
		c0,11.3,24.8,9.4,24.8,25.3c0,9.6-8.1,14.1-17.7,14.1C289.3,141.1,284.5,139.4,281.6,137.6z"/>
</g>
<g>
	<path fill="#929497" d="M181,157.4h1.3l2.4,6.6h-1.1l-0.8-2.3h-2.5l-0.9,2.3h-1L181,157.4z M182.5,160.9l-0.9-2.8l-1,2.8H182.5z"/>
	<path fill="#929497" d="M185.3,160.8c0-2.1,1.3-3.4,3.5-3.4c1,0,1.5,0.2,2,0.4l-0.3,0.8c-0.5-0.2-0.9-0.3-1.7-0.3
		c-1.3,0-2.4,0.7-2.4,2.5c0,1.8,1.2,2.6,2.6,2.6c0.6,0,1.1-0.1,1.5-0.2l0.2,0.8c-0.5,0.2-1,0.3-1.9,0.3
		C186.5,164.1,185.3,162.8,185.3,160.8z"/>
	<path fill="#929497" d="M191.5,160.8c0-2.1,1.3-3.4,3.5-3.4c1,0,1.5,0.2,2,0.4l-0.3,0.8c-0.5-0.2-0.9-0.3-1.7-0.3
		c-1.3,0-2.4,0.7-2.4,2.5c0,1.8,1.2,2.6,2.6,2.6c0.6,0,1.1-0.1,1.5-0.2l0.2,0.8c-0.5,0.2-1,0.3-1.9,0.3
		C192.7,164.1,191.5,162.8,191.5,160.8z"/>
	<path fill="#929497" d="M197.7,160.7c0-2.1,1.3-3.4,3.4-3.4c2.2,0,3.3,1.5,3.3,3.4c0,2-1.3,3.4-3.5,3.4
		C198.9,164.1,197.7,162.8,197.7,160.7z M203.4,160.7c0-1.5-0.8-2.6-2.3-2.6c-1.6,0-2.4,1.1-2.4,2.6c0,1.4,0.7,2.6,2.3,2.6
		C202.7,163.3,203.4,162.2,203.4,160.7z"/>
	<path fill="#929497" d="M205.8,161.6v-4.2h1v4.1c0,1.3,0.8,1.7,1.7,1.7c1,0,1.8-0.5,1.8-2v-3.9h1v3.9c0,2.2-1.5,2.8-2.8,2.8
		C207.2,164.1,205.8,163.6,205.8,161.6z"/>
	<path fill="#929497" d="M213.1,157.4h1.2l3.2,5.4h0l0-0.8v-4.6h1v6.6h-1.3l-3.2-5.3h0l0,0.7v4.6h-1V157.4z"/>
	<path fill="#929497" d="M221.7,158.2h-2.2v-0.8h5.4v0.8h-2.2v5.8h-1V158.2z"/>
	<path fill="#929497" d="M227.2,157.4h1.3l2.4,6.6h-1.1l-0.8-2.3h-2.5l-0.9,2.3h-1L227.2,157.4z M228.7,160.9l-0.9-2.8l-1,2.8H228.7
		z"/>
	<path fill="#929497" d="M231.9,157.4h1.2l3.2,5.4h0l0-0.8v-4.6h1v6.6H236l-3.2-5.3h0l0,0.7v4.6h-1V157.4z"/>
	<path fill="#929497" d="M238.7,160.8c0-2.1,1.3-3.4,3.5-3.4c1,0,1.5,0.2,2,0.4l-0.3,0.8c-0.5-0.2-0.9-0.3-1.7-0.3
		c-1.3,0-2.4,0.7-2.4,2.5c0,1.8,1.2,2.6,2.6,2.6c0.6,0,1.1-0.1,1.5-0.2l0.2,0.8c-0.5,0.2-1,0.3-1.9,0.3
		C240,164.1,238.7,162.8,238.7,160.8z"/>
	<path fill="#929497" d="M247,161.6l-2.2-4.2h1.1l1.6,3.3l1.7-3.3h1.1l-2.4,4.2v2.4h-1V161.6z"/>
	<path fill="#929497" d="M184.4,170.5h-2.2v-0.8h5.4v0.8h-2.2v5.8h-1V170.5z"/>
	<path fill="#929497" d="M189.9,169.7h1.3l2.4,6.6h-1.1l-0.8-2.3h-2.5l-0.9,2.3h-1L189.9,169.7z M191.4,173.2l-0.9-2.8l-1,2.8H191.4
		z"/>
	<path fill="#929497" d="M196.1,172.8l-2-3.1h1.1l1.4,2.4l1.5-2.4h1.1l-2.1,3.1l2.2,3.5h-1.2l-1.6-2.7l-1.7,2.7h-1.1L196.1,172.8z"
		/>
	<path fill="#929497" d="M202.8,169.7h2.3c1.4,0,2.3,0.8,2.3,2.1c0,1.2-0.9,2.2-2.7,2.2h-0.4v-0.8h0.5c1,0,1.6-0.4,1.6-1.4
		c0-0.9-0.4-1.4-1.4-1.4h-1v5.8h-1V169.7z"/>
	<path fill="#929497" d="M208.6,169.7h1v5.8h2.9v0.8h-3.9V169.7z"/>
	<path fill="#929497" d="M215.4,169.7h1.3l2.4,6.6h-1.1l-0.8-2.3h-2.5l-0.9,2.3h-1L215.4,169.7z M216.9,173.2l-0.9-2.8l-1,2.8H216.9
		z"/>
	<path fill="#929497" d="M220,169.7h1.2l3.2,5.4h0l0-0.8v-4.6h1v6.6h-1.3L221,171h0l0,0.7v4.6h-1V169.7z"/>
	<path fill="#929497" d="M227.3,169.7h1.2l3.2,5.4h0l0-0.8v-4.6h1v6.6h-1.3l-3.2-5.3h0l0,0.7v4.6h-1V169.7z"/>
	<path fill="#929497" d="M234.6,169.7h1v6.6h-1V169.7z"/>
	<path fill="#929497" d="M237.5,169.7h1.2l3.2,5.4h0l0-0.8v-4.6h1v6.6h-1.3l-3.2-5.3h0l0,0.7v4.6h-1V169.7z"/>
	<path fill="#929497" d="M244.3,173c0-2.2,1.2-3.4,3.5-3.4c1,0,1.5,0.2,1.9,0.4l-0.3,0.8c-0.5-0.2-0.9-0.3-1.7-0.3
		c-1.3,0-2.4,0.7-2.4,2.5c0,1.8,1.2,2.6,2.6,2.6c0.4,0,0.7,0,0.9-0.1V173h1v3c-0.6,0.2-1.2,0.3-2,0.3
		C245.6,176.4,244.3,175.1,244.3,173z"/>
	<path fill="#929497" d="M156.8,181.9h2c1.5,0,2.2,0.7,2.2,1.7c0,0.7-0.4,1.2-0.9,1.4v0c0.6,0.1,1.3,0.6,1.3,1.6
		c0,1.1-0.7,1.9-2.4,1.9h-2.2V181.9z M158.8,184.8c0.8,0,1.2-0.3,1.2-1c0-0.8-0.5-1-1.4-1h-0.7v2.1H158.8z M158.9,187.7
		c0.9,0,1.5-0.2,1.5-1.1c0-0.8-0.6-1.1-1.7-1.1h-1v2.2H158.9z"/>
	<path fill="#929497" d="M162.8,186.1v-4.2h1v4.1c0,1.3,0.8,1.7,1.7,1.7c1,0,1.8-0.5,1.8-2v-3.9h1v3.9c0,2.2-1.5,2.8-2.8,2.8
		C164.2,188.6,162.8,188.1,162.8,186.1z"/>
	<path fill="#929497" d="M169.5,188.2l0.3-0.8c0.5,0.2,1,0.4,1.6,0.4c0.7,0,1.4-0.3,1.4-1c0-1.5-3.2-1-3.2-3.2c0-1.1,1-1.7,2.1-1.7
		c0.8,0,1.3,0.2,1.7,0.4l-0.3,0.8c-0.4-0.2-0.9-0.3-1.4-0.3c-0.6,0-1.1,0.3-1.1,0.9c0,1.3,3.2,1.1,3.2,3.2c0,1.3-1.2,1.9-2.5,1.9
		C170.6,188.6,169.9,188.4,169.5,188.2z"/>
	<path fill="#929497" d="M175.2,181.9h1v6.6h-1V181.9z"/>
	<path fill="#929497" d="M178.1,181.9h1.2l3.2,5.4h0l0-0.8v-4.6h1v6.6h-1.3l-3.2-5.3h0l0,0.7v4.6h-1V181.9z"/>
	<path fill="#929497" d="M185.3,181.9h3.9v0.8h-2.9v2.1h2.7v0.8h-2.7v2.1h3.1v0.8h-4.1V181.9z"/>
	<path fill="#929497" d="M190.3,188.2l0.3-0.8c0.5,0.2,1,0.4,1.6,0.4c0.7,0,1.4-0.3,1.4-1c0-1.5-3.2-1-3.2-3.2c0-1.1,1-1.7,2.1-1.7
		c0.8,0,1.3,0.2,1.7,0.4L194,183c-0.4-0.2-0.9-0.3-1.4-0.3c-0.6,0-1.1,0.3-1.1,0.9c0,1.3,3.2,1.1,3.2,3.2c0,1.3-1.2,1.9-2.5,1.9
		C191.4,188.6,190.7,188.4,190.3,188.2z"/>
	<path fill="#929497" d="M195.5,188.2l0.3-0.8c0.5,0.2,1,0.4,1.6,0.4c0.7,0,1.4-0.3,1.4-1c0-1.5-3.2-1-3.2-3.2c0-1.1,1-1.7,2.1-1.7
		c0.8,0,1.3,0.2,1.7,0.4l-0.3,0.8c-0.4-0.2-0.9-0.3-1.4-0.3c-0.6,0-1.1,0.3-1.1,0.9c0,1.3,3.2,1.1,3.2,3.2c0,1.3-1.2,1.9-2.5,1.9
		C196.5,188.6,195.9,188.4,195.5,188.2z"/>
	<path fill="#929497" d="M205.2,181.9h1.3l2.4,6.6h-1.1l-0.8-2.3h-2.5l-0.9,2.3h-1L205.2,181.9z M206.7,185.4l-0.9-2.8l-1,2.8H206.7
		z"/>
	<path fill="#929497" d="M209.9,181.9h2c2.2,0,3.7,1,3.7,3.3c0,2.3-1.4,3.3-3.7,3.3h-2V181.9z M212,187.7c1.7,0,2.6-0.8,2.6-2.4
		c0-1.7-1-2.6-2.7-2.6h-0.9v5H212z"/>
	<path fill="#929497" d="M216.2,181.9h1.1l2,5.8l2.2-5.8h1l-2.6,6.6h-1.4L216.2,181.9z"/>
	<path fill="#929497" d="M223.4,181.9h1v6.6h-1V181.9z"/>
	<path fill="#929497" d="M225.7,188.2l0.3-0.8c0.5,0.2,1,0.4,1.6,0.4c0.7,0,1.4-0.3,1.4-1c0-1.5-3.2-1-3.2-3.2c0-1.1,1-1.7,2.1-1.7
		c0.8,0,1.3,0.2,1.7,0.4l-0.3,0.8c-0.4-0.2-0.9-0.3-1.4-0.3c-0.6,0-1.1,0.3-1.1,0.9c0,1.3,3.2,1.1,3.2,3.2c0,1.3-1.2,1.9-2.5,1.9
		C226.7,188.6,226.1,188.4,225.7,188.2z"/>
	<path fill="#929497" d="M231,185.2c0-2.1,1.3-3.4,3.4-3.4c2.2,0,3.3,1.5,3.3,3.4c0,2-1.3,3.4-3.5,3.4
		C232.1,188.6,231,187.3,231,185.2z M236.7,185.2c0-1.5-0.8-2.6-2.3-2.6c-1.6,0-2.4,1.1-2.4,2.6c0,1.4,0.7,2.6,2.3,2.6
		C235.9,187.8,236.7,186.7,236.7,185.2z"/>
	<path fill="#929497" d="M242.4,187.2l-0.9-1.2c-0.1,0-0.4,0-0.5,0h-0.8v2.5h-1v-6.6h2.3c1.3,0,2.3,0.6,2.3,2c0,0.8-0.4,1.4-1.2,1.8
		l0.8,1.1c0.4,0.5,0.8,0.9,1.5,1.1l-0.2,0.8C243.6,188.5,243,188,242.4,187.2z M241,185.2c1,0,1.6-0.3,1.6-1.3
		c0-0.9-0.4-1.2-1.4-1.2h-1.1v2.5H241z"/>
	<path fill="#929497" d="M247,186.1l-2.2-4.2h1.1l1.6,3.3l1.7-3.3h1.1l-2.4,4.2v2.4h-1V186.1z"/>
	<path fill="#929497" d="M149.8,197.5c0-2.1,1.3-3.4,3.5-3.4c1,0,1.5,0.2,2,0.4l-0.3,0.8c-0.5-0.2-0.9-0.3-1.7-0.3
		c-1.3,0-2.4,0.7-2.4,2.5c0,1.8,1.2,2.6,2.6,2.6c0.6,0,1.1-0.1,1.5-0.2l0.2,0.8c-0.5,0.2-1,0.3-1.9,0.3
		C151.1,200.9,149.8,199.5,149.8,197.5z"/>
	<path fill="#929497" d="M156.1,197.5c0-2.1,1.3-3.4,3.4-3.4c2.2,0,3.3,1.5,3.3,3.4c0,2-1.3,3.4-3.5,3.4
		C157.2,200.9,156.1,199.5,156.1,197.5z M161.8,197.5c0-1.5-0.8-2.6-2.3-2.6c-1.6,0-2.4,1.1-2.4,2.6c0,1.4,0.7,2.6,2.3,2.6
		C161.1,200.1,161.8,198.9,161.8,197.5z"/>
	<path fill="#929497" d="M167.5,199.4l-0.9-1.2c-0.1,0-0.4,0-0.5,0h-0.8v2.5h-1v-6.6h2.3c1.3,0,2.3,0.6,2.3,2c0,0.8-0.4,1.4-1.2,1.8
		l0.8,1.1c0.4,0.5,0.8,0.9,1.5,1.1l-0.2,0.8C168.7,200.8,168.1,200.2,167.5,199.4z M166.1,197.5c1,0,1.6-0.3,1.6-1.3
		c0-0.9-0.4-1.2-1.4-1.2h-1.1v2.5H166.1z"/>
	<path fill="#929497" d="M170.8,194.2h2.3c1.4,0,2.3,0.8,2.3,2.1c0,1.2-0.9,2.2-2.7,2.2h-0.4v-0.8h0.5c1,0,1.6-0.4,1.6-1.4
		c0-0.9-0.4-1.4-1.4-1.4h-1v5.8h-1V194.2z"/>
	<path fill="#929497" d="M176.2,197.5c0-2.1,1.3-3.4,3.4-3.4c2.2,0,3.3,1.5,3.3,3.4c0,2-1.3,3.4-3.5,3.4
		C177.3,200.9,176.2,199.5,176.2,197.5z M181.9,197.5c0-1.5-0.8-2.6-2.3-2.6c-1.6,0-2.4,1.1-2.4,2.6c0,1.4,0.7,2.6,2.3,2.6
		C181.2,200.1,181.9,198.9,181.9,197.5z"/>
	<path fill="#929497" d="M187.6,199.4l-0.9-1.2c-0.1,0-0.4,0-0.5,0h-0.8v2.5h-1v-6.6h2.3c1.3,0,2.3,0.6,2.3,2c0,0.8-0.4,1.4-1.2,1.8
		l0.8,1.1c0.4,0.5,0.8,0.9,1.5,1.1l-0.2,0.8C188.8,200.8,188.2,200.2,187.6,199.4z M186.2,197.5c1,0,1.6-0.3,1.6-1.3
		c0-0.9-0.4-1.2-1.4-1.2h-1.1v2.5H186.2z"/>
	<path fill="#929497" d="M192.6,194.2h1.3l2.4,6.6h-1.1l-0.8-2.3h-2.5l-0.9,2.3h-1L192.6,194.2z M194.2,197.7l-0.9-2.8l-1,2.8H194.2
		z"/>
	<path fill="#929497" d="M198.3,195h-2.2v-0.8h5.4v0.8h-2.2v5.8h-1V195z"/>
	<path fill="#929497" d="M202.5,194.2h3.9v0.8h-2.9v2.1h2.7v0.8h-2.7v2.1h3.1v0.8h-4.1V194.2z"/>
	<path fill="#929497" d="M210.3,194.2h4.1v0.8h-3.1v2.3h2.9v0.8h-2.9v2.7h-1V194.2z"/>
	<path fill="#929497" d="M215.7,194.2h1v6.6h-1V194.2z"/>
	<path fill="#929497" d="M218.6,194.2h1.2l3.2,5.4h0l0-0.8v-4.6h1v6.6h-1.3l-3.2-5.3h0l0,0.7v4.6h-1V194.2z"/>
	<path fill="#929497" d="M227.6,194.2h1.3l2.4,6.6h-1.1l-0.8-2.3h-2.5l-0.9,2.3h-1L227.6,194.2z M229.1,197.7l-0.9-2.8l-1,2.8H229.1
		z"/>
	<path fill="#929497" d="M232.3,194.2h1.2l3.2,5.4h0l0-0.8v-4.6h1v6.6h-1.3l-3.2-5.3h0l0,0.7v4.6h-1V194.2z"/>
	<path fill="#929497" d="M239.1,197.5c0-2.1,1.3-3.4,3.5-3.4c1,0,1.5,0.2,2,0.4l-0.3,0.8c-0.5-0.2-0.9-0.3-1.7-0.3
		c-1.3,0-2.4,0.7-2.4,2.5c0,1.8,1.2,2.6,2.6,2.6c0.6,0,1.1-0.1,1.5-0.2l0.2,0.8c-0.5,0.2-1,0.3-1.9,0.3
		C240.4,200.9,239.1,199.5,239.1,197.5z"/>
	<path fill="#929497" d="M245.9,194.2h3.9v0.8h-2.9v2.1h2.7v0.8h-2.7v2.1h3.1v0.8h-4.1V194.2z"/>
</g>
<linearGradient id="SVGID_1_" gradientUnits="userSpaceOnUse" x1="-581.969" y1="-85.1788" x2="-597.7838" y2="-126.1112" gradientTransform="matrix(-1 -4.000000e-04 4.000000e-04 -1 -246.7753 18.7721)">
	<stop  offset="0" style="stop-color:#695DA9"/>
	<stop  offset="1" style="stop-color:#482E87"/>
</linearGradient>
<path fill="url(#SVGID_1_)" d="M359.7,144.6L359.7,144.6c11.2-9.2,18.3-23.2,18.3-38.7l0-16.8l-50.1,0l0,67
	c0,11.2-3.6,21.5-9.8,29.9L359.7,144.6z"/>
<linearGradient id="SVGID_2_" gradientUnits="userSpaceOnUse" x1="709.8183" y1="-439.6448" x2="677.1774" y2="-490.2366" gradientTransform="matrix(0.9699 -0.2436 0.2436 0.9699 -260.5522 782.7359)">
	<stop  offset="0" style="stop-color:#002A41"/>
	<stop  offset="0.1008" style="stop-color:#1B4358"/>
	<stop  offset="0.2256" style="stop-color:#365A6E"/>
	<stop  offset="0.3628" style="stop-color:#4A6D7F"/>
	<stop  offset="0.517" style="stop-color:#597A8B"/>
	<stop  offset="0.7021" style="stop-color:#618292"/>
	<stop  offset="1" style="stop-color:#648494"/>
</linearGradient>
<path fill="url(#SVGID_2_)" d="M318.4,186.2L318.4,186.2c-9.2,11.2-23.2,18.2-38.7,18.2l-16.8,0l0-50.1l67,0
	c11.2,0,21.5-3.6,29.9-9.8L318.4,186.2z"/>
<g>
</g>
<g>
</g>
<g>
</g>
<g>
</g>
<g>
</g>
<g>
</g>
<g>
</g>
<g>
</g>
<g>
</g>
<g>
</g>
</svg>
