<?xml version="1.0" encoding="utf-8"?>
<!-- Generator: Adobe Illustrator 19.0.0, SVG Export Plug-In . SVG Version: 6.00 Build 0)  -->
<svg version="1.1" id="Vox" xmlns="http://www.w3.org/2000/svg" xmlns:xlink="http://www.w3.org/1999/xlink" x="0px" y="0px"
	 viewBox="0 0 390 292.5" enable-background="new 0 0 390 292.5" xml:space="preserve">
<g>
	<g>
		<path fill="#23253C" d="M105.5,244.5H104l2.3-10.7H103l0.3-1.2h8l-0.2,1.2h-3.3L105.5,244.5z"/>
		<path fill="#23253C" d="M115.3,244.5l1.2-5.6c0.1-0.5,0.1-0.9,0.1-1.1c0-0.8-0.4-1.2-1.2-1.2c-0.5,0-1,0.2-1.4,0.5
			c-0.5,0.3-0.9,0.8-1.2,1.4c-0.4,0.6-0.6,1.4-0.8,2.2l-0.8,3.9h-1.4l2.7-12.7h1.4c-0.1,0.4-0.2,0.9-0.3,1.3
			c-0.1,0.4-0.2,0.8-0.3,1.3c-0.1,0.4-0.2,0.9-0.3,1.4c-0.1,0.5-0.2,1-0.4,1.5h0.1c0.5-0.7,1-1.1,1.5-1.4c0.5-0.3,1-0.4,1.6-0.4
			c0.7,0,1.3,0.2,1.7,0.6c0.4,0.4,0.6,0.9,0.6,1.7c0,0.3-0.1,0.8-0.2,1.4c-0.2,1.1-0.6,2.9-1.2,5.5H115.3z"/>
		<path fill="#23253C" d="M122.6,244.6c-1,0-1.8-0.3-2.4-0.9c-0.6-0.6-0.9-1.4-0.9-2.5c0-1,0.2-2,0.6-2.9c0.4-0.9,0.9-1.7,1.6-2.2
			c0.7-0.5,1.4-0.8,2.2-0.8c0.8,0,1.5,0.2,1.9,0.5c0.4,0.4,0.6,0.9,0.6,1.5c0,1-0.5,1.7-1.4,2.3s-2.2,0.8-3.9,0.8h-0.3l0,0.7
			c0,0.7,0.2,1.3,0.5,1.7c0.3,0.4,0.9,0.6,1.6,0.6c0.3,0,0.7,0,1.1-0.1c0.4-0.1,0.8-0.3,1.4-0.5v1.2c-0.5,0.2-1,0.4-1.4,0.5
			C123.5,244.6,123.1,244.6,122.6,244.6z M123.8,236.5c-0.6,0-1.1,0.3-1.6,0.8c-0.5,0.5-0.9,1.2-1.1,2.1h0.1c1.2,0,2.2-0.2,2.9-0.5
			s1-0.8,1-1.4c0-0.3-0.1-0.5-0.3-0.7C124.5,236.6,124.2,236.5,123.8,236.5z"/>
		<path fill="#23253C" d="M134.3,242.9c0.3-0.8,0.8-1.7,1.3-2.8l3.9-7.6h1.6l-6.4,11.9h-1.5l-1.3-11.9h1.4l0.8,7.6
			C134.2,241.2,134.2,242.1,134.3,242.9L134.3,242.9z"/>
		<path fill="#23253C" d="M144.3,235.4c1,0,1.8,0.3,2.4,0.9c0.6,0.6,0.9,1.5,0.9,2.5c0,1-0.2,2-0.6,2.9c-0.4,0.9-0.9,1.6-1.6,2.1
			c-0.7,0.5-1.4,0.7-2.3,0.7c-1,0-1.9-0.3-2.5-0.9c-0.6-0.6-0.9-1.5-0.9-2.5c0-1,0.2-2,0.6-2.9c0.4-0.9,0.9-1.6,1.6-2.1
			C142.8,235.6,143.5,235.4,144.3,235.4z M146.3,238.7c0-0.6-0.2-1.1-0.5-1.5c-0.3-0.4-0.8-0.6-1.4-0.6c-0.6,0-1.1,0.2-1.6,0.6
			c-0.5,0.4-0.8,1-1.1,1.7c-0.3,0.7-0.4,1.5-0.4,2.4c0,0.7,0.2,1.3,0.5,1.7c0.3,0.4,0.8,0.6,1.5,0.6c0.6,0,1.1-0.2,1.5-0.6
			s0.8-1,1.1-1.7C146.1,240.4,146.3,239.6,146.3,238.7z"/>
		<path fill="#23253C" d="M151.9,240.9l-2.8,3.5h-1.6l3.9-4.6l-2-4.3h1.4l1.4,3.4l2.7-3.4h1.6l-3.7,4.4l2.1,4.5h-1.4L151.9,240.9z"
			/>
		<path fill="#23253C" d="M167.2,233.6c-0.9,0-1.8,0.3-2.5,0.8c-0.7,0.5-1.3,1.3-1.8,2.3c-0.4,1-0.7,2.1-0.7,3.3
			c0,1,0.3,1.8,0.8,2.4c0.5,0.6,1.3,0.9,2.2,0.9c0.8,0,1.6-0.2,2.6-0.5v1.2c-0.5,0.2-0.9,0.3-1.3,0.4c-0.4,0.1-0.9,0.1-1.5,0.1
			c-1.3,0-2.3-0.4-3.1-1.2c-0.8-0.8-1.1-1.9-1.1-3.3c0-1.4,0.3-2.7,0.9-4c0.6-1.2,1.3-2.2,2.3-2.8c1-0.6,2.1-1,3.3-1
			c1.1,0,2,0.2,2.8,0.7l-0.6,1.2C168.8,233.8,168,233.6,167.2,233.6z"/>
		<path fill="#23253C" d="M174.1,235.4c1,0,1.8,0.3,2.4,0.9c0.6,0.6,0.9,1.5,0.9,2.5c0,1-0.2,2-0.6,2.9c-0.4,0.9-0.9,1.6-1.6,2.1
			c-0.7,0.5-1.4,0.7-2.3,0.7c-1,0-1.9-0.3-2.5-0.9c-0.6-0.6-0.9-1.5-0.9-2.5c0-1,0.2-2,0.6-2.9c0.4-0.9,0.9-1.6,1.6-2.1
			C172.6,235.6,173.3,235.4,174.1,235.4z M176.1,238.7c0-0.6-0.2-1.1-0.5-1.5c-0.3-0.4-0.8-0.6-1.4-0.6c-0.6,0-1.1,0.2-1.6,0.6
			c-0.5,0.4-0.8,1-1.1,1.7c-0.3,0.7-0.4,1.5-0.4,2.4c0,0.7,0.2,1.3,0.5,1.7c0.3,0.4,0.8,0.6,1.5,0.6c0.6,0,1.1-0.2,1.5-0.6
			s0.8-1,1.1-1.7C175.9,240.4,176.1,239.6,176.1,238.7z"/>
		<path fill="#23253C" d="M183.8,244.5l1.2-5.6c0.1-0.6,0.2-1,0.2-1.2c0-0.3-0.1-0.6-0.3-0.8c-0.2-0.2-0.5-0.3-0.9-0.3
			c-0.5,0-1,0.2-1.4,0.5c-0.5,0.3-0.9,0.8-1.2,1.4c-0.4,0.6-0.6,1.3-0.8,2.2l-0.8,3.9h-1.4l1.9-8.9h1.1l-0.2,1.7h0.1
			c0.5-0.7,1-1.1,1.5-1.4c0.5-0.3,1-0.4,1.5-0.4c0.7,0,1.2,0.2,1.6,0.6c0.4,0.4,0.6,0.9,0.6,1.6c0,0.4-0.1,0.9-0.2,1.5l-1.2,5.5
			H183.8z"/>
		<path fill="#23253C" d="M186.2,248.5c-0.4,0-0.7-0.1-1-0.2v-1.1c0.3,0.1,0.7,0.2,0.9,0.2c0.4,0,0.7-0.2,1-0.5
			c0.2-0.3,0.4-0.8,0.5-1.4l1.9-8.8h-1.6l0.1-0.5l1.7-0.5l0.2-0.8c0.3-1.1,0.6-1.9,1-2.3c0.4-0.4,1.1-0.7,2-0.7c0.2,0,0.5,0,0.8,0.1
			c0.3,0.1,0.6,0.1,0.7,0.2l-0.4,1.1c-0.4-0.2-0.8-0.2-1.1-0.2c-0.5,0-0.8,0.1-1.1,0.4s-0.5,0.7-0.6,1.4l-0.2,0.9h1.9l-0.2,1h-1.9
			l-1.9,9c-0.2,1-0.5,1.8-1,2.3C187.5,248.2,187,248.5,186.2,248.5z"/>
		<path fill="#23253C" d="M195.9,244.6c-1,0-1.8-0.3-2.4-0.9c-0.6-0.6-0.9-1.4-0.9-2.5c0-1,0.2-2,0.6-2.9c0.4-0.9,0.9-1.7,1.6-2.2
			c0.7-0.5,1.4-0.8,2.2-0.8c0.8,0,1.5,0.2,1.9,0.5c0.4,0.4,0.6,0.9,0.6,1.5c0,1-0.5,1.7-1.4,2.3c-0.9,0.6-2.2,0.8-3.9,0.8h-0.3
			l0,0.7c0,0.7,0.2,1.3,0.5,1.7s0.9,0.6,1.6,0.6c0.3,0,0.7,0,1.1-0.1c0.4-0.1,0.8-0.3,1.4-0.5v1.2c-0.5,0.2-1,0.4-1.4,0.5
			C196.8,244.6,196.4,244.6,195.9,244.6z M197,236.5c-0.6,0-1.1,0.3-1.6,0.8s-0.9,1.2-1.1,2.1h0.1c1.2,0,2.2-0.2,2.9-0.5
			c0.7-0.3,1-0.8,1-1.4c0-0.3-0.1-0.5-0.3-0.7C197.8,236.6,197.5,236.5,197,236.5z"/>
		<path fill="#23253C" d="M205.9,235.4c0.4,0,0.7,0,1,0.1l-0.3,1.2c-0.3-0.1-0.6-0.1-0.9-0.1c-0.5,0-1,0.2-1.4,0.5
			c-0.4,0.3-0.8,0.8-1.1,1.4c-0.3,0.6-0.6,1.2-0.7,1.9l-0.9,4.1h-1.4l1.9-8.9h1.1l-0.2,1.7h0.1c0.4-0.5,0.7-0.9,1-1.1
			c0.3-0.2,0.5-0.4,0.8-0.5C205.2,235.4,205.5,235.4,205.9,235.4z"/>
		<path fill="#23253C" d="M209.9,244.6c-1,0-1.8-0.3-2.4-0.9c-0.6-0.6-0.9-1.4-0.9-2.5c0-1,0.2-2,0.6-2.9c0.4-0.9,0.9-1.7,1.6-2.2
			c0.7-0.5,1.4-0.8,2.2-0.8c0.8,0,1.5,0.2,1.9,0.5c0.4,0.4,0.6,0.9,0.6,1.5c0,1-0.5,1.7-1.4,2.3c-0.9,0.6-2.2,0.8-3.9,0.8h-0.3
			l0,0.7c0,0.7,0.2,1.3,0.5,1.7s0.9,0.6,1.6,0.6c0.3,0,0.7,0,1.1-0.1c0.4-0.1,0.8-0.3,1.4-0.5v1.2c-0.5,0.2-1,0.4-1.4,0.5
			C210.8,244.6,210.4,244.6,209.9,244.6z M211.1,236.5c-0.6,0-1.1,0.3-1.6,0.8c-0.5,0.5-0.9,1.2-1.1,2.1h0.1c1.2,0,2.2-0.2,2.9-0.5
			c0.7-0.3,1-0.8,1-1.4c0-0.3-0.1-0.5-0.3-0.7C211.8,236.6,211.5,236.5,211.1,236.5z"/>
		<path fill="#23253C" d="M219.7,244.5l1.2-5.6c0.1-0.6,0.2-1,0.2-1.2c0-0.3-0.1-0.6-0.3-0.8c-0.2-0.2-0.5-0.3-0.9-0.3
			c-0.5,0-1,0.2-1.4,0.5c-0.5,0.3-0.9,0.8-1.2,1.4c-0.4,0.6-0.6,1.3-0.8,2.2l-0.8,3.9h-1.4l1.9-8.9h1.1l-0.2,1.7h0.1
			c0.5-0.7,1-1.1,1.5-1.4c0.5-0.3,1-0.4,1.5-0.4c0.7,0,1.2,0.2,1.6,0.6c0.4,0.4,0.6,0.9,0.6,1.6c0,0.4-0.1,0.9-0.2,1.5l-1.2,5.5
			H219.7z"/>
		<path fill="#23253C" d="M227.1,244.6c-1.1,0-1.9-0.3-2.5-0.9c-0.6-0.6-0.9-1.4-0.9-2.5c0-1.1,0.2-2.1,0.6-3c0.4-0.9,1-1.6,1.7-2.2
			c0.7-0.5,1.5-0.8,2.4-0.8c0.7,0,1.5,0.1,2.2,0.4l-0.4,1.2c-0.7-0.3-1.2-0.4-1.8-0.4c-0.6,0-1.2,0.2-1.7,0.6
			c-0.5,0.4-0.9,1-1.2,1.7s-0.4,1.5-0.4,2.4c0,0.7,0.2,1.2,0.5,1.6c0.4,0.4,0.9,0.6,1.5,0.6c0.4,0,0.8-0.1,1.1-0.2
			c0.3-0.1,0.7-0.2,1-0.4v1.2C228.7,244.5,227.9,244.6,227.1,244.6z"/>
		<path fill="#23253C" d="M234.1,244.6c-1,0-1.8-0.3-2.4-0.9c-0.6-0.6-0.9-1.4-0.9-2.5c0-1,0.2-2,0.6-2.9c0.4-0.9,0.9-1.7,1.6-2.2
			c0.7-0.5,1.4-0.8,2.2-0.8c0.8,0,1.5,0.2,1.9,0.5c0.4,0.4,0.6,0.9,0.6,1.5c0,1-0.5,1.7-1.4,2.3c-0.9,0.6-2.2,0.8-3.9,0.8h-0.3
			l0,0.7c0,0.7,0.2,1.3,0.5,1.7c0.3,0.4,0.9,0.6,1.6,0.6c0.3,0,0.7,0,1.1-0.1c0.4-0.1,0.8-0.3,1.4-0.5v1.2c-0.5,0.2-1,0.4-1.4,0.5
			C235,244.6,234.6,244.6,234.1,244.6z M235.2,236.5c-0.6,0-1.1,0.3-1.6,0.8s-0.9,1.2-1.1,2.1h0.1c1.2,0,2.2-0.2,2.9-0.5
			c0.7-0.3,1-0.8,1-1.4c0-0.3-0.1-0.5-0.3-0.7C236,236.6,235.6,236.5,235.2,236.5z"/>
		<path fill="#23253C" d="M249.5,233.6c-0.9,0-1.8,0.3-2.5,0.8c-0.7,0.5-1.3,1.3-1.8,2.3c-0.4,1-0.7,2.1-0.7,3.3
			c0,1,0.3,1.8,0.8,2.4c0.5,0.6,1.3,0.9,2.2,0.9c0.8,0,1.6-0.2,2.6-0.5v1.2c-0.5,0.2-0.9,0.3-1.3,0.4c-0.4,0.1-0.9,0.1-1.5,0.1
			c-1.3,0-2.3-0.4-3.1-1.2c-0.8-0.8-1.1-1.9-1.1-3.3c0-1.4,0.3-2.7,0.9-4c0.6-1.2,1.3-2.2,2.3-2.8c1-0.6,2.1-1,3.3-1
			c1.1,0,2,0.2,2.8,0.7l-0.6,1.2C251,233.8,250.3,233.6,249.5,233.6z"/>
		<path fill="#23253C" d="M255.2,244.6c-1,0-1.8-0.3-2.4-0.9c-0.6-0.6-0.9-1.4-0.9-2.5c0-1,0.2-2,0.6-2.9c0.4-0.9,0.9-1.7,1.6-2.2
			c0.7-0.5,1.4-0.8,2.2-0.8c0.8,0,1.5,0.2,1.9,0.5c0.4,0.4,0.6,0.9,0.6,1.5c0,1-0.5,1.7-1.4,2.3c-0.9,0.6-2.2,0.8-3.9,0.8h-0.3
			l0,0.7c0,0.7,0.2,1.3,0.5,1.7c0.3,0.4,0.9,0.6,1.6,0.6c0.3,0,0.7,0,1.1-0.1c0.4-0.1,0.8-0.3,1.4-0.5v1.2c-0.5,0.2-1,0.4-1.4,0.5
			C256.1,244.6,255.7,244.6,255.2,244.6z M256.3,236.5c-0.6,0-1.1,0.3-1.6,0.8s-0.9,1.2-1.1,2.1h0.1c1.2,0,2.2-0.2,2.9-0.5
			c0.7-0.3,1-0.8,1-1.4c0-0.3-0.1-0.5-0.3-0.7C257.1,236.6,256.7,236.5,256.3,236.5z"/>
		<path fill="#23253C" d="M264.9,244.5l1.2-5.6c0.1-0.6,0.2-1,0.2-1.2c0-0.3-0.1-0.6-0.3-0.8c-0.2-0.2-0.5-0.3-0.9-0.3
			c-0.5,0-1,0.2-1.4,0.5c-0.5,0.3-0.9,0.8-1.2,1.4c-0.4,0.6-0.6,1.3-0.8,2.2l-0.8,3.9h-1.4l1.9-8.9h1.1l-0.2,1.7h0.1
			c0.5-0.7,1-1.1,1.5-1.4c0.5-0.3,1-0.4,1.5-0.4c0.7,0,1.2,0.2,1.6,0.6c0.4,0.4,0.6,0.9,0.6,1.6c0,0.4-0.1,0.9-0.2,1.5l-1.2,5.5
			H264.9z"/>
		<path fill="#23253C" d="M271.4,243.5c0.3,0,0.7-0.1,1.2-0.2v1.1c-0.2,0.1-0.4,0.1-0.7,0.2c-0.3,0.1-0.5,0.1-0.7,0.1
			c-0.7,0-1.2-0.2-1.6-0.5c-0.4-0.3-0.5-0.8-0.5-1.4c0-0.4,0-0.8,0.1-1.2l1-4.9H269l0.1-0.6l1.5-0.6l1-1.9h0.8l-0.4,2.1h2.2l-0.2,1
			h-2.2l-1.1,4.9c-0.1,0.5-0.1,0.8-0.1,1.1c0,0.3,0.1,0.5,0.2,0.7C270.9,243.4,271.2,243.5,271.4,243.5z"/>
		<path fill="#23253C" d="M279.4,235.4c0.4,0,0.7,0,1,0.1l-0.3,1.2c-0.3-0.1-0.6-0.1-0.9-0.1c-0.5,0-1,0.2-1.4,0.5
			c-0.4,0.3-0.8,0.8-1.1,1.4c-0.3,0.6-0.6,1.2-0.7,1.9l-0.9,4.1h-1.4l1.9-8.9h1.1l-0.2,1.7h0.1c0.4-0.5,0.7-0.9,1-1.1
			c0.3-0.2,0.5-0.4,0.8-0.5C278.7,235.4,279,235.4,279.4,235.4z"/>
		<path fill="#23253C" d="M283.4,244.6c-1,0-1.8-0.3-2.4-0.9c-0.6-0.6-0.9-1.4-0.9-2.5c0-1,0.2-2,0.6-2.9c0.4-0.9,0.9-1.7,1.6-2.2
			c0.7-0.5,1.4-0.8,2.2-0.8c0.8,0,1.5,0.2,1.9,0.5c0.4,0.4,0.6,0.9,0.6,1.5c0,1-0.5,1.7-1.4,2.3s-2.2,0.8-3.9,0.8h-0.3l0,0.7
			c0,0.7,0.2,1.3,0.5,1.7s0.9,0.6,1.6,0.6c0.3,0,0.7,0,1.1-0.1c0.4-0.1,0.8-0.3,1.4-0.5v1.2c-0.5,0.2-1,0.4-1.4,0.5
			C284.3,244.6,283.9,244.6,283.4,244.6z M284.6,236.5c-0.6,0-1.1,0.3-1.6,0.8c-0.5,0.5-0.9,1.2-1.1,2.1h0.1c1.2,0,2.2-0.2,2.9-0.5
			c0.7-0.3,1-0.8,1-1.4c0-0.3-0.1-0.5-0.3-0.7C285.3,236.6,285,236.5,284.6,236.5z"/>
	</g>
	<g>
		<g>
			<path fill="#FEFD9A" d="M181,215.9c0.8,0,1.4-0.6,1.4-1.4c0-0.8-0.6-1.4-1.4-1.4c-0.8,0-1.4,0.6-1.4,1.4
				C179.6,215.3,180.2,215.9,181,215.9"/>
		</g>
		<path fill="#FEFD9A" d="M209.5,91.4c0.8,0,1.4-0.6,1.4-1.4c0-0.8-0.6-1.4-1.4-1.4c-0.8,0-1.4,0.6-1.4,1.4
			C208.1,90.8,208.7,91.4,209.5,91.4"/>
		<path fill="#24253C" d="M56.9,114.7l10.5,28.1 M67.4,142.8l7.1,18.9l24.4-65.4c2-4.3,5.4-7.7,10.7-7.7c6.3,0,12.1,4.7,12.1,11.3
			c0,2.2-0.3,3.8-1.1,5.8l-34.4,87.6c-2,5-4.7,9.1-11.6,9.1c-6.9,0-9.6-4.1-11.6-9.1l-34.4-87.6c-0.8-2.1-1.1-3.6-1.1-5.8
			c0-6.6,5.8-11.3,12.1-11.3c5.4,0,8.7,3.5,10.7,7.7l6.8,18.3"/>
		<path fill="#24253C" d="M358.8,183.5l-28.2-37.9l28.2-37.9c1.3-1.7,2.7-4.7,2.7-8c0-6.6-5-11-11.9-11c-4.2,0-7.4,1.9-9.7,5.2
			L314,129.7l-25.8-35.9c-2.4-3.3-5.5-5.2-9.8-5.2c-6.9,0-11.9,4.4-11.9,11c0,3.3,1.4,6.3,2.7,8l28.2,37.9l-28.2,37.9
			c-1.3,1.7-2.7,4.7-2.7,8c0,6.6,5,11,11.9,11c4.2,0,7.4-1.9,9.7-5.2l25.8-35.9l25.8,35.9c2.4,3.3,5.5,5.2,9.8,5.2
			c6.9,0,11.9-4.4,11.9-11C361.5,188.2,360,185.2,358.8,183.5"/>
		<polygon fill="#23253C" points="248.5,88.6 247.7,88.6 247.7,84.1 246.1,84.1 246.1,83.3 250.1,83.3 250.1,84.1 248.5,84.1 		"/>
		<g>
			<path fill="#23253C" d="M253.2,88.6l-1.5-4.4h0c0,0.7,0.1,1.3,0.1,1.8v2.6h-0.8v-5.3h1.2l1.5,4.2h0l1.5-4.2h1.2v5.3h-0.8V86
				c0-0.3,0-0.6,0-1c0-0.4,0-0.7,0-0.8h0l-1.6,4.4H253.2z"/>
		</g>
		<polygon fill="#23253C" points="194.2,129.9 193.7,137.8 191.6,130.2 		"/>
		<polygon fill="#23253C" points="186.5,140.8 192.1,144.4 185.5,143.2 		"/>
		<polygon fill="#23253C" points="198.9,151.2 195.8,146.6 200.6,149.3 		"/>
		<polygon fill="#23253C" points="214.7,144.5 205.1,144.2 214.4,141.9 		"/>
		<polygon fill="#23253C" points="209.4,132.5 201.7,138.2 207.5,130.6 		"/>
		<polygon fill="#23253C" points="169.2,126.4 175,132.2 167.7,128.6 		"/>
		<polygon fill="#23253C" points="178.7,121.6 185.6,133.3 176.6,123.1 		"/>
		<polygon fill="#23253C" points="184.1,157.7 190.5,150.9 186.3,159.2 		"/>
		<polygon fill="#23253C" points="167,134.9 179.2,140.3 166.2,137.4 		"/>
		<polygon fill="#23253C" points="165.4,155.2 181.2,151 166.3,157.6 		"/>
		<polygon fill="#23253C" points="227.1,133.1 208.4,139.5 226.1,130.7 		"/>
		<polygon fill="#23253C" points="222.9,144.7 247.9,142.5 248,145.1 		"/>
		<polygon fill="#23253C" points="240.3,133 232.7,133.9 239.5,130.5 		"/>
		<polygon fill="#23253C" points="261.5,136.5 230.8,139.9 261.1,133.9 		"/>
		<polygon fill="#23253C" points="231.5,153.1 216.6,149.3 231.9,150.6 		"/>
		<polygon fill="#23253C" points="221.5,159.7 207.9,151.8 222.6,157.3 		"/>
		<polygon fill="#23253C" points="235,167.4 228,162.3 236.2,165.1 		"/>
		<polygon fill="#23253C" points="263.1,147.9 254.3,146.5 263.2,145.3 		"/>
		<polygon fill="#23253C" points="211.8,171.3 204.1,158.6 213.9,169.7 		"/>
		<polygon fill="#23253C" points="199,174.8 197.2,159.1 201.6,174.3 		"/>
		<polygon fill="#23253C" points="188.1,173.4 192.9,153.3 190.7,173.8 		"/>
		<polygon fill="#23253C" points="170.1,167.3 178.7,160.8 172,169.2 		"/>
		<polygon fill="#23253C" points="147.5,154.2 160,152.9 148,156.8 		"/>
		<polygon fill="#23253C" points="130.8,151 142.5,151.1 131.1,153.6 		"/>
		<polygon fill="#23253C" points="131.3,167.6 152.4,161.1 132.2,170.1 		"/>
		<polygon fill="#23253C" points="153,144.1 178.4,145.5 153,146.7 		"/>
		<polygon fill="#23253C" points="196.9,105 195.1,123.3 194.3,105 		"/>
		<polygon fill="#23253C" points="183.7,93.2 187.7,117 181.2,93.8 		"/>
		<polygon fill="#23253C" points="178.8,106.6 183.9,121.9 176.4,107.6 		"/>
		<polygon fill="#23253C" points="166.5,110.8 171.5,118.6 164.5,112.6 		"/>
		<polygon fill="#23253C" points="148.5,113.4 160,122.3 147.1,115.6 		"/>
		<polygon fill="#23253C" points="149.6,130.6 160.4,135.2 148.8,133.1 		"/>
		<polygon fill="#23253C" points="133.8,115.4 161.1,129.7 132.7,117.7 		"/>
		<polygon fill="#23253C" points="177.7,79.1 178.8,87.8 175.1,79.8 		"/>
		<polygon fill="#23253C" points="160.7,87.1 171.2,107.1 158.4,88.5 		"/>
		<polygon fill="#23253C" points="171.2,183.7 182.4,166.6 173.5,185 		"/>
		<polygon fill="#23253C" points="147.8,187.3 164.9,173 149.5,189.3 		"/>
		<polygon fill="#23253C" points="183.4,188.9 186.9,179.3 186,189.5 		"/>
		<polygon fill="#23253C" points="222.9,186.3 217.2,176.3 225,184.7 		"/>
		<polygon fill="#23253C" points="248.3,189.3 212.1,159.2 249.9,187.2 		"/>
		<polygon fill="#23253C" points="241.4,196.8 219.5,171.8 243.3,194.9 		"/>
		<polygon fill="#23253C" points="145.8,99.8 165.1,119 144,101.7 		"/>
		<polygon fill="#23253C" points="207.2,90.7 201.4,112 204.6,90.2 		"/>
		<polygon fill="#23253C" points="228.8,110.7 215.1,123.3 226.9,108.9 		"/>
		<polygon fill="#23253C" points="225.3,100 210.1,120.9 223.1,98.6 		"/>
		<polygon fill="#23253C" points="239.5,92.2 229.5,102.3 237.5,90.5 		"/>
		<polygon fill="#23253C" points="242.4,110.8 215.9,129.2 240.8,108.7 		"/>
		<polygon fill="#23253C" points="254.4,119.9 233.6,127.9 253.3,117.5 		"/>
		<polygon fill="#23253C" points="254.9,110.7 236,120.4 253.5,108.4 		"/>
		<polygon fill="#23253C" points="189.4,76.3 190,98.3 186.8,76.5 		"/>
		<polygon fill="#23253C" points="126.4,159.7 139.9,157.9 127,162.2 		"/>
		<polygon fill="#23253C" points="124.7,143.1 143.9,144.6 124.7,145.8 		"/>
		<polygon fill="#23253C" points="129.7,134.4 162,140.6 129.3,137 		"/>
		<polygon fill="#23253C" points="128.3,124.5 142.6,130.1 127.6,127.1 		"/>
		<polygon fill="#23253C" points="137.5,105.6 143.6,111.2 136.1,107.7 		"/>
		<polygon fill="#23253C" points="150.1,171.8 172.7,159.1 151.5,174 		"/>
		<polygon fill="#23253C" points="149.3,198.4 170.2,175 151.3,200.1 		"/>
		<polygon fill="#23253C" points="159.6,201.4 168.6,188.9 161.9,202.7 		"/>
		<polygon fill="#23253C" points="168,209.7 184.7,170.4 170.4,210.7 		"/>
		<polygon fill="#23253C" points="150.7,91.2 160.7,105.1 148.6,92.9 		"/>
		<polygon fill="#23253C" points="132.3,176.9 144.1,172.1 133.5,179.3 		"/>
		<polygon fill="#23253C" points="196.1,214.8 196,181.1 198.8,214.7 		"/>
		<polygon fill="#23253C" points="167.1,81 173.7,99 164.7,82 		"/>
		<polygon fill="#23253C" points="201.6,76.2 198.4,97.8 199,76 		"/>
		<polygon fill="#23253C" points="137.3,185.6 148.4,179.2 138.9,187.7 		"/>
		<polygon fill="#23253C" points="177.9,209.9 182,198.2 180.4,210.5 		"/>
		<polygon fill="#23253C" points="185.9,214.3 190.4,183.6 188.5,214.6 		"/>
		<polygon fill="#23253C" points="201.9,185.4 207.8,209.5 205.2,210 		"/>
		<polygon fill="#23253C" points="215.1,211.8 212.9,201 217.6,211 		"/>
		<polygon fill="#23253C" points="212.2,177.6 229.2,205.6 226.9,206.9 		"/>
		<polygon fill="#23253C" points="231.7,199.7 227.1,191 233.9,198.2 		"/>
		<polygon fill="#23253C" points="238.2,171.8 248,176.2 246.6,178.5 		"/>
		<polygon fill="#23253C" points="258.2,165.7 234.9,157.4 258.9,163.2 		"/>
		<polygon fill="#23253C" points="263,157.4 241,152.6 263.4,154.8 		"/>
		<polygon fill="#23253C" points="243.4,167.3 258.6,172.6 257.5,175 		"/>
		<polygon fill="#23253C" points="221.1,85.6 215.4,95.8 218.7,84.5 		"/>
		<polygon fill="#23253C" points="231.3,86.2 225.6,93.3 229,84.9 		"/>
		<polygon fill="#23253C" points="209.8,85.1 210.4,77.6 212.9,78.3 		"/>
		<polygon fill="#23253C" points="261.4,126.9 245.6,130.2 260.6,124.4 		"/>
		<polygon fill="#23253C" points="212.9,102.2 201.3,127.5 210.4,101.2 		"/>
		<polygon fill="#23253C" points="211.8,194.5 206.7,177.4 214.2,193.6 		"/>
		<polygon fill="#23253C" points="246.7,99.7 240.2,103.8 244.9,97.8 		"/>
		<g>
			<path fill="#23253C" d="M201.7,152.3c-1.1,1.1-2.9,1-4-0.1c-1.1-1.1-1-2.9,0.1-4c1.1-1.1,2.9-1,4,0.1
				C202.9,149.4,202.8,151.2,201.7,152.3"/>
			<path fill="#23253C" d="M187.2,160.6c-1.1,1.1-2.9,1-4-0.1c-1.1-1.1-1-2.9,0.1-4c1.1-1.1,2.9-1,4,0.1
				C188.4,157.7,188.3,159.5,187.2,160.6"/>
			<path fill="#23253C" d="M202.2,176.6c-1.1,1.1-2.9,1-4-0.1c-1.1-1.1-1-2.9,0.1-4c1.1-1.1,2.9-1,4,0.1
				C203.4,173.7,203.4,175.5,202.2,176.6"/>
			<path fill="#23253C" d="M191.4,175.7c-1.1,1.1-2.9,1-4-0.1c-1.1-1.1-1-2.9,0.1-4c1.1-1.1,2.9-1,4,0.1
				C192.6,172.8,192.5,174.6,191.4,175.7"/>
			<path fill="#23253C" d="M208.4,211.8c-1.1,1.1-2.9,1-4-0.1c-1.1-1.1-1-2.9,0.1-4c1.1-1.1,2.9-1,4,0.1
				C209.6,209,209.6,210.7,208.4,211.8"/>
			<path fill="#23253C" d="M218.3,213.5c-1.1,1.1-2.9,1-4-0.1c-1.1-1.1-1-2.9,0.1-4c1.1-1.1,2.9-1,4,0.1
				C219.4,210.6,219.4,212.4,218.3,213.5"/>
			<path fill="#23253C" d="M199.4,216.8c-1.1,1.1-2.9,1-4-0.1c-1.1-1.1-1-2.9,0.1-4c1.1-1.1,2.9-1,4,0.1
				C200.6,214,200.5,215.8,199.4,216.8"/>
			<path fill="#23253C" d="M189.1,216.5c-1.1,1.1-2.9,1-4-0.1c-1.1-1.1-1-2.9,0.1-4c1.1-1.1,2.9-1,4,0.1
				C190.3,213.7,190.3,215.5,189.1,216.5"/>
			<path fill="#23253C" d="M181.1,212.2c-1.1,1.1-2.9,1-4-0.1c-1.1-1.1-1-2.9,0.1-4c1.1-1.1,2.9-1,4,0.1
				C182.3,209.4,182.2,211.2,181.1,212.2"/>
			<path fill="#23253C" d="M171.1,212.2c-1.1,1.1-2.9,1-4-0.1c-1.1-1.1-1-2.9,0.1-4c1.1-1.1,2.9-1,4,0.1
				C172.3,209.4,172.3,211.2,171.1,212.2"/>
			<path fill="#23253C" d="M162.6,204.2c-1.2,1-3,0.9-4-0.3c-1-1.2-0.9-3,0.3-4c1.2-1,3-0.8,4,0.4
				C163.9,201.4,163.8,203.2,162.6,204.2"/>
			<path fill="#23253C" d="M186.6,191.2c-1.1,1.1-2.9,1-4-0.1c-1.1-1.1-1-2.9,0.1-4c1.1-1.1,2.9-1,4,0.1
				C187.8,188.4,187.8,190.2,186.6,191.2"/>
			<path fill="#23253C" d="M174.3,186.4c-1.1,1.1-2.9,1-4-0.1c-1.1-1.1-1-2.9,0.1-4c1.1-1.1,2.9-1,4,0.1
				C175.5,183.5,175.4,185.3,174.3,186.4"/>
			<path fill="#23253C" d="M150.6,190.4c-1.1,1.1-2.9,1-4-0.1c-1.1-1.1-1-2.9,0.1-4c1.1-1.1,2.9-1,4,0.1
				C151.8,187.5,151.7,189.3,150.6,190.4"/>
			<path fill="#23253C" d="M173,170.3c-1.1,1.1-2.9,1-4-0.1c-1.1-1.1-1-2.9,0.1-4c1.1-1.1,2.9-1,4,0.1
				C174.2,167.5,174.1,169.3,173,170.3"/>
			<path fill="#23253C" d="M167.8,158.5c-1.1,1.1-2.9,1-4-0.1c-1.1-1.1-1-2.9,0.1-4c1.1-1.1,2.9-1,4,0.1
				C169,155.6,168.9,157.4,167.8,158.5"/>
			<path fill="#23253C" d="M149.7,157.5c-1.1,1.1-2.9,1-4-0.1c-1.1-1.1-1-2.9,0.1-4c1.1-1.1,2.9-1,4,0.1
				C150.9,154.7,150.9,156.5,149.7,157.5"/>
			<path fill="#23253C" d="M133.7,170.9c-1.1,1.1-2.9,1-4-0.1c-1.1-1.1-1-2.9,0.1-4c1.1-1.1,2.9-1,4,0.1
				C134.9,168,134.8,169.8,133.7,170.9"/>
			<path fill="#23253C" d="M134.8,180.2c-1.1,1.1-2.9,1-4-0.1c-1.1-1.1-1-2.9,0.1-4c1.1-1.1,2.9-1,4,0.1
				C136,177.3,136,179.1,134.8,180.2"/>
			<path fill="#23253C" d="M152.7,175c-1.1,1.1-2.9,1-4-0.1c-1.1-1.1-1-2.9,0.1-4c1.1-1.1,2.9-1,4,0.1
				C153.9,172.1,153.9,173.9,152.7,175"/>
			<path fill="#23253C" d="M140,188.7c-1.1,1.1-2.9,1-4-0.1c-1.1-1.1-1-2.9,0.1-4c1.1-1.1,2.9-1,4,0.1
				C141.2,185.9,141.2,187.7,140,188.7"/>
			<path fill="#23253C" d="M152.2,201.3c-1.1,1.1-2.9,1-4-0.1c-1.1-1.1-1-2.9,0.1-4c1.1-1.1,2.9-1,4,0.1
				C153.4,198.4,153.4,200.2,152.2,201.3"/>
			<path fill="#23253C" d="M128.6,163c-1.1,1.1-2.9,1-4-0.1c-1.1-1.1-1-2.9,0.1-4c1.1-1.1,2.9-1,4,0.1
				C129.8,160.2,129.8,162,128.6,163"/>
			<path fill="#23253C" d="M132.9,154.4c-1.1,1.1-2.9,1-4-0.1c-1.1-1.1-1-2.9,0.1-4c1.1-1.1,2.9-1,4,0.1
				C134.1,151.5,134.1,153.3,132.9,154.4"/>
			<path fill="#23253C" d="M126.7,146.5c-1.1,1.1-2.9,1-4-0.1c-1.1-1.1-1-2.9,0.1-4c1.1-1.1,2.9-1,4,0.1
				C127.9,143.6,127.8,145.4,126.7,146.5"/>
			<path fill="#23253C" d="M131.5,137.8c-1.1,1.1-2.9,1-4-0.1c-1.1-1.1-1-2.9,0.1-4c1.1-1.1,2.9-1,4,0.1
				C132.7,134.9,132.6,136.7,131.5,137.8"/>
			<path fill="#23253C" d="M154.9,147.4c-1.1,1.1-2.9,1-4-0.1c-1.1-1.1-1-2.9,0.1-4c1.1-1.1,2.9-1,4,0.1
				C156.1,144.6,156,146.4,154.9,147.4"/>
			<path fill="#23253C" d="M151.1,133.9c-1.1,1.1-2.9,1-4-0.1c-1.1-1.1-1-2.9,0.1-4c1.1-1.1,2.9-1,4,0.1
				C152.3,131,152.3,132.8,151.1,133.9"/>
			<path fill="#23253C" d="M135.2,118.6c-1.1,1.1-2.9,1-4-0.1c-1.1-1.1-1-2.9,0.1-4c1.1-1.1,2.9-1,4,0.1
				C136.4,115.8,136.4,117.6,135.2,118.6"/>
			<path fill="#23253C" d="M129.7,128c-1.1,1.1-2.9,1-4-0.1c-1.1-1.1-1-2.9,0.1-4c1.1-1.1,2.9-1,4,0.1
				C130.9,125.1,130.9,126.9,129.7,128"/>
			<path fill="#23253C" d="M179.6,124.4c-1.1,1.1-2.9,1-4-0.1c-1.1-1.1-1-2.9,0.1-4c1.1-1.1,2.9-1,4,0.1
				C180.8,121.5,180.7,123.3,179.6,124.4"/>
			<path fill="#23253C" d="M170.4,129.6c-1.1,1.1-2.9,1-4-0.1c-1.1-1.1-1-2.9,0.1-4c1.1-1.1,2.9-1,4,0.1
				C171.6,126.7,171.5,128.5,170.4,129.6"/>
			<path fill="#23253C" d="M168.5,138.2c-1.1,1.1-2.9,1-4-0.1c-1.1-1.1-1-2.9,0.1-4c1.1-1.1,2.9-1,4,0.1
				C169.7,135.4,169.7,137.1,168.5,138.2"/>
			<path fill="#23253C" d="M167.5,113.8c-1.1,1.1-2.9,1-4-0.1c-1.1-1.1-1-2.9,0.1-4c1.1-1.1,2.9-1,4,0.1
				C168.6,110.9,168.6,112.7,167.5,113.8"/>
			<path fill="#23253C" d="M179.5,109.1c-1.1,1.1-2.9,1-4-0.1c-1.1-1.1-1-2.9,0.1-4c1.1-1.1,2.9-1,4,0.1
				C180.7,106.3,180.7,108.1,179.5,109.1"/>
			<path fill="#23253C" d="M194.9,132.1c-1.1,1.1-2.9,1-4-0.1c-1.1-1.1-1-2.9,0.1-4c1.1-1.1,2.9-1,4,0.1
				C196.1,129.3,196,131.1,194.9,132.1"/>
			<path fill="#23253C" d="M187.9,144c-1.1,1.1-2.9,1-4-0.1c-1.1-1.1-1-2.9,0.1-4c1.1-1.1,2.9-1,4,0.1
				C189.2,141.2,189.1,143,187.9,144"/>
			<path fill="#23253C" d="M210.4,133.6c-1.1,1.1-2.9,1-4-0.1c-1.1-1.1-1-2.9,0.1-4c1.1-1.1,2.9-1,4,0.1
				C211.6,130.7,211.5,132.5,210.4,133.6"/>
			<path fill="#23253C" d="M216.5,145.3c-1.1,1.1-2.9,1-4-0.1c-1.1-1.1-1-2.9,0.1-4c1.1-1.1,2.9-1,4,0.1
				C217.7,142.4,217.7,144.2,216.5,145.3"/>
			<path fill="#23253C" d="M249.9,145.8c-1.1,1.1-2.9,1-4-0.1c-1.1-1.1-1-2.9,0.1-4c1.1-1.1,2.9-1,4,0.1
				C251.1,143,251,144.8,249.9,145.8"/>
			<path fill="#23253C" d="M228.6,133.9c-1.1,1.1-2.9,1-4-0.1c-1.1-1.1-1-2.9,0.1-4c1.1-1.1,2.9-1,4,0.1
				C229.8,131.1,229.7,132.9,228.6,133.9"/>
			<path fill="#23253C" d="M224,160.6c-1.1,1.1-2.9,1-4-0.1c-1.1-1.1-1-2.9,0.1-4c1.1-1.1,2.9-1,4,0.1
				C225.2,157.7,225.1,159.5,224,160.6"/>
			<path fill="#23253C" d="M214.8,172.6c-1.1,1.1-2.9,1-4-0.1c-1.1-1.1-1-2.9,0.1-4c1.1-1.1,2.9-1,4,0.1
				C216,169.7,215.9,171.5,214.8,172.6"/>
			<path fill="#23253C" d="M225.9,187.5c-1.1,1.1-2.9,1-4-0.1c-1.1-1.1-1-2.9,0.1-4c1.1-1.1,2.9-1,4,0.1
				C227.1,184.7,227.1,186.5,225.9,187.5"/>
			<path fill="#23253C" d="M214.5,196.5c-1.3,0.8-3.1,0.4-3.9-1c-0.8-1.3-0.4-3.1,1-3.9c1.3-0.8,3.1-0.4,3.9,1
				C216.2,194,215.8,195.7,214.5,196.5"/>
			<path fill="#23253C" d="M230,208.3c-1.1,1.1-2.9,1-4-0.1c-1.1-1.1-1-2.9,0.1-4c1.1-1.1,2.9-1,4,0.1
				C231.2,205.5,231.1,207.3,230,208.3"/>
			<path fill="#23253C" d="M234.7,201c-1.1,1.1-2.9,1-4-0.1c-1.1-1.1-1-2.9,0.1-4c1.1-1.1,2.9-1,4,0.1
				C235.9,198.1,235.9,199.9,234.7,201"/>
			<path fill="#23253C" d="M138.6,108.9c-1.1,1.1-2.9,1-4-0.1c-1.1-1.1-1-2.9,0.1-4c1.1-1.1,2.9-1,4,0.1
				C139.8,106,139.7,107.8,138.6,108.9"/>
			<path fill="#23253C" d="M146.7,102.9c-1.1,1.1-2.9,1-4-0.1c-1.1-1.1-1-2.9,0.1-4c1.1-1.1,2.9-1,4,0.1
				C147.9,100.1,147.8,101.9,146.7,102.9"/>
			<path fill="#23253C" d="M149.7,116.6c-1.1,1.1-2.9,1-4-0.1c-1.1-1.1-1-2.9,0.1-4c1.1-1.1,2.9-1,4,0.1
				C150.9,113.7,150.9,115.5,149.7,116.6"/>
			<path fill="#23253C" d="M161.5,89.9c-1.1,1.1-2.9,1-4-0.1c-1.1-1.1-1-2.9,0.1-4c1.1-1.1,2.9-1,4,0.1
				C162.7,87,162.6,88.8,161.5,89.9"/>
			<path fill="#23253C" d="M167.8,83.6c-1.1,1.1-2.9,1-4-0.1c-1.1-1.1-1-2.9,0.1-4c1.1-1.1,2.9-1,4,0.1
				C169,80.7,168.9,82.5,167.8,83.6"/>
			<path fill="#23253C" d="M184.4,95.5c-1.1,1.1-2.9,1-4-0.1c-1.1-1.1-1-2.9,0.1-4c1.1-1.1,2.9-1,4,0.1
				C185.6,92.7,185.5,94.5,184.4,95.5"/>
			<path fill="#23253C" d="M190.1,78.4c-1.1,1.1-2.9,1-4-0.1c-1.1-1.1-1-2.9,0.1-4c1.1-1.1,2.9-1,4,0.1
				C191.3,75.6,191.2,77.4,190.1,78.4"/>
			<path fill="#23253C" d="M178.3,81.5c-1.1,1.1-2.9,1-4-0.1c-1.1-1.1-1-2.9,0.1-4c1.1-1.1,2.9-1,4,0.1
				C179.5,78.7,179.5,80.5,178.3,81.5"/>
			<path fill="#23253C" d="M244.8,101.4c-1.5-0.5-2.2-2.2-1.7-3.6c0.5-1.5,2.2-2.2,3.6-1.7c1.5,0.5,2.2,2.2,1.7,3.6
				C247.9,101.2,246.3,101.9,244.8,101.4"/>
			<path fill="#23253C" d="M202.2,78.1c-1.1,1.1-2.9,1-4-0.1c-1.1-1.1-1-2.9,0.1-4c1.1-1.1,2.9-1,4,0.1
				C203.4,75.3,203.4,77.1,202.2,78.1"/>
			<path fill="#23253C" d="M213.6,80c-1.1,1.1-2.9,1-4-0.1c-1.1-1.1-1-2.9,0.1-4c1.1-1.1,2.9-1,4,0.1
				C214.8,77.1,214.7,78.9,213.6,80"/>
			<path fill="#23253C" d="M221.8,87c-1.1,1.1-2.9,1-4-0.1c-1.1-1.1-1-2.9,0.1-4c1.1-1.1,2.9-1,4,0.1C223,84.2,223,86,221.8,87"/>
			<path fill="#23253C" d="M207.8,92.5c-1.1,1.1-2.9,1-4-0.1c-1.1-1.1-1-2.9,0.1-4c1.1-1.1,2.9-1,4,0.1
				C209,89.7,209,91.5,207.8,92.5"/>
			<path fill="#23253C" d="M213.6,103.8c-1.1,1.1-2.9,1-4-0.1c-1.1-1.1-1-2.9,0.1-4c1.1-1.1,2.9-1,4,0.1
				C214.8,100.9,214.7,102.7,213.6,103.8"/>
			<path fill="#23253C" d="M226.2,101.4c-1.1,1.1-2.9,1-4-0.1c-1.1-1.1-1-2.9,0.1-4c1.1-1.1,2.9-1,4,0.1
				C227.4,98.5,227.3,100.3,226.2,101.4"/>
			<path fill="#23253C" d="M232.1,87.6c-1.1,1.1-2.9,1-4-0.1c-1.1-1.1-1-2.9,0.1-4c1.1-1.1,2.9-1,4,0.1
				C233.3,84.7,233.3,86.5,232.1,87.6"/>
			<path fill="#23253C" d="M240.5,93.4c-1.1,1.1-2.9,1-4-0.1c-1.1-1.1-1-2.9,0.1-4c1.1-1.1,2.9-1,4,0.1
				C241.7,90.6,241.6,92.4,240.5,93.4"/>
			<path fill="#23253C" d="M229.8,111.8c-1.1,1.1-2.9,1-4-0.1c-1.1-1.1-1-2.9,0.1-4c1.1-1.1,2.9-1,4,0.1
				C231,109,230.9,110.8,229.8,111.8"/>
			<path fill="#23253C" d="M243.5,111.8c-1.1,1.1-2.9,1-4-0.1c-1.1-1.1-1-2.9,0.1-4c1.1-1.1,2.9-1,4,0.1
				C244.7,109,244.7,110.8,243.5,111.8"/>
			<path fill="#23253C" d="M256.2,111.6c-1.1,1.1-2.9,1-4-0.1c-1.1-1.1-1-2.9,0.1-4c1.1-1.1,2.9-1,4,0.1
				C257.4,108.7,257.3,110.5,256.2,111.6"/>
			<path fill="#23253C" d="M255.8,120.7c-1.1,1.1-2.9,1-4-0.1c-1.1-1.1-1-2.9,0.1-4c1.1-1.1,2.9-1,4,0.1
				C257,117.9,256.9,119.7,255.8,120.7"/>
			<path fill="#23253C" d="M241.8,133.8c-1.1,1.1-2.9,1-4-0.1c-1.1-1.1-1-2.9,0.1-4c1.1-1.1,2.9-1,4,0.1
				C243,130.9,243,132.7,241.8,133.8"/>
			<path fill="#23253C" d="M262.9,127.7c-1.1,1.1-2.9,1-4-0.1c-1.1-1.1-1-2.9,0.1-4c1.1-1.1,2.9-1,4,0.1
				C264.1,124.8,264.1,126.6,262.9,127.7"/>
			<path fill="#23253C" d="M265.1,148.7c-1.1,1.1-2.9,1-4-0.1c-1.1-1.1-1-2.9,0.1-4c1.1-1.1,2.9-1,4,0.1
				C266.3,145.8,266.2,147.6,265.1,148.7"/>
			<path fill="#23253C" d="M263.3,137.2c-1.1,1.1-2.9,1-4-0.1c-1.1-1.1-1-2.9,0.1-4c1.1-1.1,2.9-1,4,0.1
				C264.5,134.4,264.4,136.2,263.3,137.2"/>
			<path fill="#23253C" d="M265.1,158.2c-1.1,1.1-2.9,1-4-0.1c-1.1-1.1-1-2.9,0.1-4c1.1-1.1,2.9-1,4,0.1
				C266.3,155.3,266.2,157.1,265.1,158.2"/>
			<path fill="#23253C" d="M259.4,166c-1.1,1.1-2.9,1-4-0.1c-1.1-1.1-1-2.9,0.1-4c1.1-1.1,2.9-1,4,0.1
				C260.6,163.1,260.6,164.9,259.4,166"/>
			<path fill="#23253C" d="M260,175.9c-1.1,1.1-2.9,1-4-0.1c-1.1-1.1-1-2.9,0.1-4c1.1-1.1,2.9-1,4,0.1
				C261.2,173,261.1,174.8,260,175.9"/>
			<path fill="#23253C" d="M249.2,179.4c-1.1,1.1-2.9,1-4-0.1c-1.1-1.1-1-2.9,0.1-4c1.1-1.1,2.9-1,4,0.1
				C250.4,176.5,250.4,178.3,249.2,179.4"/>
			<path fill="#23253C" d="M251.1,190.3c-1.1,1.1-2.9,1-4-0.1c-1.1-1.1-1-2.9,0.1-4c1.1-1.1,2.9-1,4,0.1
				C252.3,187.4,252.2,189.2,251.1,190.3"/>
			<path fill="#23253C" d="M244.2,197.9c-1.1,1.1-2.9,1-4-0.1c-1.1-1.1-1-2.9,0.1-4c1.1-1.1,2.9-1,4,0.1
				C245.4,195,245.4,196.8,244.2,197.9"/>
			<path fill="#23253C" d="M151.6,94.1c-1.1,1.1-2.9,1-4-0.1c-1.1-1.1-1-2.9,0.1-4c1.1-1.1,2.9-1,4,0.1
				C152.8,91.2,152.7,93,151.6,94.1"/>
			<path fill="#23253C" d="M237.5,168.3c-1.1,1.1-2.9,1-4-0.1c-1.1-1.1-1-2.9,0.1-4c1.1-1.1,2.9-1,4,0.1
				C238.7,165.5,238.6,167.3,237.5,168.3"/>
			<path fill="#23253C" d="M233.6,153.9c-1.1,1.1-2.9,1-4-0.1c-1.1-1.1-1-2.9,0.1-4c1.1-1.1,2.9-1,4,0.1
				C234.8,151,234.7,152.8,233.6,153.9"/>
			<path fill="#23253C" d="M197.5,107.1c-1.1,1.1-2.9,1-4-0.1c-1.1-1.1-1-2.9,0.1-4c1.1-1.1,2.9-1,4,0.1
				C198.7,104.2,198.6,106,197.5,107.1"/>
		</g>
	</g>
	<g>
		<path fill="#23253C" d="M62,47.7c-0.1,0.4-0.3,0.8-0.5,1.3c-0.2,0.4-1.7,3.7-4.6,9.7h-0.7l-0.6-11.9h0.8l0.4,8.4l0,1.3l0,0.7h0
			c0.5-1.2,0.9-2.3,1.4-3.2l3.5-7.2h0.9l0.5,7.2c0.1,1.4,0.2,2.6,0.2,3.3h0c0.2-0.5,0.3-0.9,0.5-1.3s1.5-3.5,4-9.2h0.9
			c-0.9,2-1.8,4-2.7,6c-0.9,2-1.8,4-2.7,6h-0.6l-0.6-8.8c-0.1-0.8-0.1-1.4-0.1-1.8L62,47.7L62,47.7z"/>
		<path fill="#23253C" d="M71,58.8c-0.9,0-1.7-0.3-2.2-0.9c-0.5-0.6-0.8-1.4-0.8-2.5c0-1,0.2-1.9,0.6-2.8c0.4-0.9,0.9-1.6,1.6-2.2
			c0.7-0.5,1.4-0.8,2.2-0.8c0.6,0,1.1,0.2,1.5,0.5c0.4,0.3,0.6,0.8,0.6,1.4c0,1-0.4,1.7-1.3,2.3c-0.9,0.5-2.2,0.8-4,0.8h-0.3
			c0,0.2,0,0.5,0,0.8c0,0.9,0.2,1.6,0.6,2.1c0.4,0.5,1,0.7,1.7,0.7c0.7,0,1.5-0.2,2.3-0.6v0.8C72.6,58.6,71.8,58.8,71,58.8z
			 M72.3,50.4c-0.7,0-1.4,0.3-2,0.9c-0.6,0.6-1.1,1.5-1.3,2.5h0.4c2.8,0,4.2-0.7,4.2-2.2c0-0.4-0.1-0.7-0.4-0.9
			C73,50.5,72.7,50.4,72.3,50.4z"/>
		<path fill="#23253C" d="M75.7,58.7h-0.8L77.6,46h0.8L75.7,58.7z"/>
		<path fill="#23253C" d="M81.6,58.8c-0.9,0-1.7-0.3-2.2-0.9c-0.5-0.6-0.8-1.4-0.8-2.5c0-1.1,0.2-2,0.6-2.9c0.4-0.9,0.9-1.6,1.6-2.1
			c0.7-0.5,1.5-0.7,2.4-0.7c0.7,0,1.4,0.1,2,0.4l-0.2,0.7c-0.6-0.3-1.2-0.4-1.8-0.4c-0.7,0-1.3,0.2-1.9,0.6c-0.6,0.4-1,1-1.3,1.8
			c-0.3,0.8-0.5,1.7-0.5,2.6c0,0.9,0.2,1.5,0.6,2c0.4,0.5,1,0.7,1.7,0.7c0.4,0,0.7,0,1.1-0.1c0.3-0.1,0.7-0.2,1.1-0.4v0.8
			C83.2,58.7,82.5,58.8,81.6,58.8z"/>
		<path fill="#23253C" d="M89.9,49.6c1,0,1.7,0.3,2.3,0.9c0.5,0.6,0.8,1.4,0.8,2.4c0,1.1-0.2,2.1-0.6,3s-0.9,1.6-1.6,2.1
			c-0.7,0.5-1.5,0.7-2.3,0.7c-1,0-1.8-0.3-2.3-0.9c-0.5-0.6-0.8-1.4-0.8-2.6c0-1,0.2-2,0.6-2.9c0.4-0.9,0.9-1.6,1.6-2.1
			C88.2,49.9,89,49.6,89.9,49.6z M89.8,50.3c-0.7,0-1.3,0.2-1.8,0.6c-0.5,0.4-1,1-1.3,1.8c-0.3,0.8-0.5,1.6-0.5,2.5
			c0,1.9,0.8,2.8,2.3,2.8c0.7,0,1.3-0.2,1.8-0.6c0.5-0.4,1-1,1.3-1.9c0.3-0.8,0.5-1.7,0.5-2.7c0-0.8-0.2-1.5-0.6-1.9
			C91.1,50.5,90.5,50.3,89.8,50.3z"/>
		<path fill="#23253C" d="M99.1,58.7l1.2-5.5c0.1-0.7,0.2-1.1,0.2-1.3c0-1-0.4-1.5-1.3-1.5c-0.6,0-1.1,0.2-1.6,0.6
			c-0.5,0.4-0.9,0.9-1.3,1.5c-0.4,0.7-0.6,1.4-0.8,2.3l-0.8,3.9h-0.8l1.9-8.9h0.7l-0.3,1.7h0c0.4-0.6,0.9-1.1,1.5-1.4
			c0.6-0.3,1.1-0.5,1.7-0.5c0.6,0,1,0.2,1.3,0.5s0.5,0.9,0.5,1.6h0c0.4-0.7,0.9-1.2,1.5-1.6c0.6-0.4,1.2-0.5,1.8-0.5
			c0.6,0,1.1,0.2,1.5,0.5c0.4,0.3,0.5,0.8,0.5,1.4c0,0.2,0,0.3,0,0.5c0,0.1-0.1,0.5-0.2,1l-1.2,5.6h-0.8l1.2-5.5
			c0.1-0.7,0.2-1.1,0.2-1.4c0-0.4-0.1-0.7-0.4-1c-0.2-0.2-0.6-0.3-1-0.3c-0.9,0-1.6,0.4-2.3,1.1c-0.7,0.7-1.1,1.7-1.4,3l-0.9,4.2
			H99.1z"/>
		<path fill="#23253C" d="M111,58.8c-0.9,0-1.7-0.3-2.2-0.9c-0.5-0.6-0.8-1.4-0.8-2.5c0-1,0.2-1.9,0.6-2.8c0.4-0.9,0.9-1.6,1.6-2.2
			s1.4-0.8,2.2-0.8c0.6,0,1.1,0.2,1.5,0.5c0.4,0.3,0.6,0.8,0.6,1.4c0,1-0.4,1.7-1.3,2.3c-0.9,0.5-2.2,0.8-4,0.8h-0.3
			c0,0.2,0,0.5,0,0.8c0,0.9,0.2,1.6,0.6,2.1c0.4,0.5,1,0.7,1.7,0.7c0.7,0,1.5-0.2,2.3-0.6v0.8C112.7,58.6,111.9,58.8,111,58.8z
			 M112.3,50.4c-0.7,0-1.4,0.3-2,0.9c-0.6,0.6-1.1,1.5-1.3,2.5h0.4c2.8,0,4.2-0.7,4.2-2.2c0-0.4-0.1-0.7-0.4-0.9
			C113,50.5,112.7,50.4,112.3,50.4z"/>
		<path fill="#23253C" d="M123.9,49.8l-0.1,0.7h-2.3l-1.1,5.2c-0.1,0.5-0.2,1-0.2,1.3c0,0.8,0.3,1.1,1,1.1c0.4,0,0.8-0.1,1.2-0.2
			v0.7c-0.5,0.2-1,0.2-1.4,0.2c-0.5,0-1-0.1-1.2-0.4c-0.3-0.3-0.4-0.7-0.4-1.3c0-0.4,0.1-1,0.2-1.7l1.1-5h-1.5l0.1-0.5l1.5-0.1
			l0.8-2.1h0.4l-0.4,2.1H123.9z"/>
		<path fill="#23253C" d="M128.2,49.6c1,0,1.7,0.3,2.3,0.9c0.5,0.6,0.8,1.4,0.8,2.4c0,1.1-0.2,2.1-0.6,3c-0.4,0.9-0.9,1.6-1.6,2.1
			c-0.7,0.5-1.5,0.7-2.3,0.7c-1,0-1.8-0.3-2.3-0.9c-0.5-0.6-0.8-1.4-0.8-2.6c0-1,0.2-2,0.6-2.9c0.4-0.9,0.9-1.6,1.6-2.1
			C126.5,49.9,127.3,49.6,128.2,49.6z M128.1,50.3c-0.7,0-1.3,0.2-1.8,0.6c-0.5,0.4-1,1-1.3,1.8c-0.3,0.8-0.5,1.6-0.5,2.5
			c0,1.9,0.8,2.8,2.3,2.8c0.7,0,1.3-0.2,1.8-0.6s1-1,1.3-1.9c0.3-0.8,0.5-1.7,0.5-2.7c0-0.8-0.2-1.5-0.6-1.9S128.8,50.3,128.1,50.3z
			"/>
		<path fill="#23253C" d="M140.9,49.6c1.3,0,2,0.6,2.3,1.8h0l0.5-1.6h0.7l-1.9,8.9h-0.7l0.4-2.2h0c-0.5,0.8-1,1.4-1.5,1.8
			c-0.6,0.4-1.2,0.6-1.9,0.6c-1.5,0-2.3-1-2.3-3.1c0-1.1,0.2-2.1,0.6-3.1c0.4-1,1-1.7,1.6-2.3C139.3,49.9,140.1,49.6,140.9,49.6z
			 M138.9,58.1c0.5,0,1-0.2,1.4-0.5c0.5-0.3,0.9-0.8,1.3-1.4c0.4-0.6,0.7-1.2,0.9-1.9c0.2-0.7,0.3-1.3,0.3-1.7
			c0-0.4-0.1-0.8-0.2-1.2c-0.1-0.3-0.4-0.6-0.6-0.8s-0.6-0.3-1-0.3c-0.7,0-1.3,0.2-1.8,0.7c-0.5,0.4-1,1.1-1.3,2
			c-0.3,0.9-0.5,1.8-0.5,2.7c0,0.8,0.1,1.4,0.4,1.8C137.9,57.9,138.3,58.1,138.9,58.1z"/>
		<path fill="#23253C" d="M158.5,58.7h-2.8l-2.9-9h0l0,0.3c-0.2,1.2-0.4,2.2-0.5,3.1l-1.2,5.6h-2.2l2.5-11.9h2.9l2.8,8.8h0
			c0.1-0.4,0.2-1,0.3-1.8c0.1-0.8,0.6-3.1,1.5-7h2.2L158.5,58.7z"/>
		<path fill="#23253C" d="M167.6,58.7h-6.7l2.5-11.9h6.7l-0.4,2.1h-4.2l-0.5,2.6h3.9l-0.4,2.1h-3.9l-0.7,3.1h4.2L167.6,58.7z"/>
		<path fill="#23253C" d="M177.3,50.4c-0.3,0.8-0.6,1.6-0.9,2.4l-2.6,5.9H171l-0.4-11.9h2.3l0,6.5c0,0.3,0,0.8,0,1.4
			c0,0.7,0,1.1-0.1,1.4h0c0.1-0.3,0.3-0.8,0.5-1.5c0.2-0.6,0.4-1,0.5-1.2l3-6.7h2.2l0.2,7.1c0,0.8,0,1.5-0.1,2.2h0
			c0.2-0.7,0.6-1.7,1.1-2.8l2.7-6.5h2.5l-5.3,11.9h-2.8l-0.2-5.9l0-1.1C177.3,51.2,177.3,50.7,177.3,50.4L177.3,50.4z"/>
		<path fill="#23253C" d="M194.4,58.7l-0.5-5.6c-0.1-1.2-0.1-1.9-0.1-2.2h0c-0.2,0.5-0.6,1.3-1.2,2.4l-2.9,5.4h-1l-0.2-8.9h0.8
			l0.1,6.7l0,1.3h0c0.3-0.7,0.7-1.5,1.2-2.4l3-5.6h0.6l0.5,5.6c0.1,0.8,0.1,1.6,0.1,2.4h0l0.2-0.5l0.8-1.9l2.6-5.6h0.8l-4.1,8.9
			H194.4z"/>
		<path fill="#23253C" d="M203.8,49.6c1,0,1.7,0.3,2.3,0.9c0.5,0.6,0.8,1.4,0.8,2.4c0,1.1-0.2,2.1-0.6,3c-0.4,0.9-0.9,1.6-1.6,2.1
			c-0.7,0.5-1.5,0.7-2.3,0.7c-1,0-1.8-0.3-2.3-0.9c-0.5-0.6-0.8-1.4-0.8-2.6c0-1,0.2-2,0.6-2.9c0.4-0.9,0.9-1.6,1.6-2.1
			C202.2,49.9,203,49.6,203.8,49.6z M203.8,50.3c-0.7,0-1.3,0.2-1.8,0.6c-0.5,0.4-1,1-1.3,1.8c-0.3,0.8-0.5,1.6-0.5,2.5
			c0,1.9,0.8,2.8,2.3,2.8c0.7,0,1.3-0.2,1.8-0.6c0.5-0.4,1-1,1.3-1.9c0.3-0.8,0.5-1.7,0.5-2.7c0-0.8-0.2-1.5-0.6-1.9
			C205.1,50.5,204.5,50.3,203.8,50.3z"/>
		<path fill="#23253C" d="M213.1,49.6c0.4,0,0.7,0,1,0.1l-0.2,0.8c-0.3-0.1-0.6-0.1-0.9-0.1c-0.5,0-1,0.2-1.5,0.5
			c-0.5,0.3-0.9,0.9-1.2,1.6c-0.4,0.7-0.6,1.4-0.8,2.3l-0.8,3.9h-0.8l1.9-8.9h0.7l-0.2,1.7h0c0.4-0.5,0.7-0.9,1-1.1
			c0.3-0.2,0.6-0.4,0.9-0.5C212.4,49.7,212.7,49.6,213.1,49.6z"/>
		<path fill="#23253C" d="M214.4,58.7h-0.8l2.7-12.7h0.8L214.4,58.7z"/>
		<path fill="#23253C" d="M221.8,49.6c1.3,0,2,0.6,2.3,1.8h0c0.1-0.4,0.5-2.2,1.2-5.5h0.8l-2.7,12.7h-0.7l0.4-2.2h0
			c-0.9,1.6-2.1,2.4-3.5,2.4c-1.5,0-2.3-1-2.3-3.1c0-1,0.2-2.1,0.6-3c0.4-1,0.9-1.7,1.6-2.3C220.2,49.9,220.9,49.6,221.8,49.6z
			 M219.8,58.1c0.5,0,1-0.2,1.5-0.5c0.5-0.3,0.9-0.8,1.3-1.4c0.4-0.6,0.7-1.2,0.9-1.9c0.2-0.7,0.3-1.3,0.3-1.7
			c0-0.7-0.2-1.2-0.5-1.6c-0.3-0.4-0.8-0.6-1.4-0.6c-0.7,0-1.3,0.2-1.8,0.7c-0.5,0.5-1,1.1-1.3,2c-0.3,0.9-0.5,1.8-0.5,2.7
			C218.1,57.3,218.7,58.1,219.8,58.1z"/>
		<path fill="#23253C" d="M234.5,49.6c1,0,1.7,0.3,2.3,0.9c0.5,0.6,0.8,1.4,0.8,2.4c0,1.1-0.2,2.1-0.6,3c-0.4,0.9-0.9,1.6-1.6,2.1
			c-0.7,0.5-1.5,0.7-2.3,0.7c-1,0-1.8-0.3-2.3-0.9c-0.5-0.6-0.8-1.4-0.8-2.6c0-1,0.2-2,0.6-2.9c0.4-0.9,0.9-1.6,1.6-2.1
			C232.9,49.9,233.6,49.6,234.5,49.6z M234.4,50.3c-0.7,0-1.3,0.2-1.8,0.6c-0.5,0.4-1,1-1.3,1.8c-0.3,0.8-0.5,1.6-0.5,2.5
			c0,1.9,0.8,2.8,2.3,2.8c0.7,0,1.3-0.2,1.8-0.6c0.5-0.4,1-1,1.3-1.9c0.3-0.8,0.5-1.7,0.5-2.7c0-0.8-0.2-1.5-0.6-1.9
			S235.2,50.3,234.4,50.3z"/>
		<path fill="#23253C" d="M236.9,62.7c-0.3,0-0.5-0.1-0.8-0.2v-0.7c0.3,0.1,0.6,0.1,0.8,0.1c0.5,0,0.8-0.1,1.1-0.4
			c0.3-0.3,0.5-0.8,0.6-1.5l2-9.5h-1.7l0.1-0.5l1.7-0.1l0.3-1.3c0.2-0.9,0.5-1.6,1-2c0.4-0.4,1.1-0.6,1.9-0.6c0.4,0,0.8,0.1,1.4,0.3
			l-0.2,0.7c-0.5-0.1-0.9-0.2-1.2-0.2c-0.5,0-0.9,0.1-1.3,0.4c-0.3,0.3-0.5,0.8-0.7,1.5l-0.3,1.3h2l-0.1,0.7h-2l-2.1,9.7
			c-0.2,0.9-0.5,1.5-0.8,1.9C238.1,62.5,237.6,62.7,236.9,62.7z"/>
		<path fill="#23253C" d="M250.1,58.8c-0.9,0-1.7-0.3-2.2-0.9c-0.5-0.6-0.8-1.4-0.8-2.5c0-1.1,0.2-2,0.6-2.9
			c0.4-0.9,0.9-1.6,1.6-2.1c0.7-0.5,1.5-0.7,2.4-0.7c0.7,0,1.4,0.1,2,0.4l-0.2,0.7c-0.6-0.3-1.2-0.4-1.8-0.4c-0.7,0-1.3,0.2-1.9,0.6
			c-0.6,0.4-1,1-1.3,1.8c-0.3,0.8-0.5,1.7-0.5,2.6c0,0.9,0.2,1.5,0.6,2c0.4,0.5,1,0.7,1.7,0.7c0.4,0,0.7,0,1.1-0.1s0.7-0.2,1.1-0.4
			v0.8C251.7,58.7,250.9,58.8,250.1,58.8z"/>
		<path fill="#23253C" d="M258.3,49.6c1,0,1.7,0.3,2.3,0.9c0.5,0.6,0.8,1.4,0.8,2.4c0,1.1-0.2,2.1-0.6,3c-0.4,0.9-0.9,1.6-1.6,2.1
			c-0.7,0.5-1.5,0.7-2.3,0.7c-1,0-1.8-0.3-2.3-0.9c-0.5-0.6-0.8-1.4-0.8-2.6c0-1,0.2-2,0.6-2.9c0.4-0.9,0.9-1.6,1.6-2.1
			C256.7,49.9,257.4,49.6,258.3,49.6z M258.2,50.3c-0.7,0-1.3,0.2-1.8,0.6c-0.5,0.4-1,1-1.3,1.8c-0.3,0.8-0.5,1.6-0.5,2.5
			c0,1.9,0.8,2.8,2.3,2.8c0.7,0,1.3-0.2,1.8-0.6c0.5-0.4,1-1,1.3-1.9c0.3-0.8,0.5-1.7,0.5-2.7c0-0.8-0.2-1.5-0.6-1.9
			S259,50.3,258.2,50.3z"/>
		<path fill="#23253C" d="M268,58.7l1.2-5.6c0.1-0.5,0.2-0.9,0.2-1.3c0-0.4-0.1-0.8-0.4-1c-0.2-0.2-0.6-0.4-1.1-0.4
			c-0.6,0-1.2,0.2-1.7,0.5c-0.5,0.4-1,0.9-1.4,1.5c-0.4,0.7-0.6,1.4-0.8,2.3l-0.8,3.9h-0.8l1.9-8.9h0.7l-0.3,1.8h0
			c0.9-1.3,2-1.9,3.4-1.9c0.7,0,1.2,0.2,1.6,0.5c0.4,0.3,0.5,0.8,0.5,1.5c0,0.4-0.1,0.9-0.2,1.5l-1.2,5.5H268z"/>
		<path fill="#23253C" d="M269.6,62.7c-0.3,0-0.5-0.1-0.8-0.2v-0.7c0.3,0.1,0.6,0.1,0.8,0.1c0.5,0,0.8-0.1,1.1-0.4
			c0.3-0.3,0.5-0.8,0.6-1.5l2-9.5h-1.7l0.1-0.5l1.7-0.1l0.3-1.3c0.2-0.9,0.5-1.6,1-2c0.4-0.4,1.1-0.6,1.9-0.6c0.4,0,0.8,0.1,1.4,0.3
			l-0.2,0.7c-0.5-0.1-0.9-0.2-1.2-0.2c-0.5,0-0.9,0.1-1.3,0.4c-0.3,0.3-0.5,0.8-0.7,1.5l-0.3,1.3h2l-0.1,0.7h-2l-2.1,9.7
			c-0.2,0.9-0.5,1.5-0.8,1.9C270.8,62.5,270.3,62.7,269.6,62.7z"/>
		<path fill="#23253C" d="M278.8,58.8c-0.9,0-1.7-0.3-2.2-0.9c-0.5-0.6-0.8-1.4-0.8-2.5c0-1,0.2-1.9,0.6-2.8
			c0.4-0.9,0.9-1.6,1.6-2.2s1.4-0.8,2.2-0.8c0.6,0,1.1,0.2,1.5,0.5c0.4,0.3,0.6,0.8,0.6,1.4c0,1-0.4,1.7-1.3,2.3
			c-0.9,0.5-2.2,0.8-4,0.8h-0.3c0,0.2,0,0.5,0,0.8c0,0.9,0.2,1.6,0.6,2.1c0.4,0.5,1,0.7,1.7,0.7c0.7,0,1.5-0.2,2.3-0.6v0.8
			C280.5,58.6,279.6,58.8,278.8,58.8z M280.1,50.4c-0.7,0-1.4,0.3-2,0.9c-0.6,0.6-1.1,1.5-1.3,2.5h0.4c2.8,0,4.2-0.7,4.2-2.2
			c0-0.4-0.1-0.7-0.4-0.9C280.8,50.5,280.5,50.4,280.1,50.4z"/>
		<path fill="#23253C" d="M287.9,49.6c0.4,0,0.7,0,1,0.1l-0.2,0.8c-0.3-0.1-0.6-0.1-0.9-0.1c-0.5,0-1,0.2-1.5,0.5
			c-0.5,0.3-0.9,0.9-1.2,1.6c-0.4,0.7-0.6,1.4-0.8,2.3l-0.8,3.9h-0.8l1.9-8.9h0.7l-0.2,1.7h0c0.4-0.5,0.7-0.9,1-1.1
			c0.3-0.2,0.6-0.4,0.9-0.5C287.2,49.7,287.6,49.6,287.9,49.6z"/>
		<path fill="#23253C" d="M291.7,58.8c-0.9,0-1.7-0.3-2.2-0.9c-0.5-0.6-0.8-1.4-0.8-2.5c0-1,0.2-1.9,0.6-2.8
			c0.4-0.9,0.9-1.6,1.6-2.2s1.4-0.8,2.2-0.8c0.6,0,1.1,0.2,1.5,0.5c0.4,0.3,0.6,0.8,0.6,1.4c0,1-0.4,1.7-1.3,2.3
			c-0.9,0.5-2.2,0.8-4,0.8h-0.3c0,0.2,0,0.5,0,0.8c0,0.9,0.2,1.6,0.6,2.1c0.4,0.5,1,0.7,1.7,0.7c0.7,0,1.5-0.2,2.3-0.6v0.8
			C293.3,58.6,292.5,58.8,291.7,58.8z M293,50.4c-0.7,0-1.4,0.3-2,0.9c-0.6,0.6-1.1,1.5-1.3,2.5h0.4c2.8,0,4.2-0.7,4.2-2.2
			c0-0.4-0.1-0.7-0.4-0.9C293.7,50.5,293.4,50.4,293,50.4z"/>
		<path fill="#23253C" d="M301.2,58.7l1.2-5.6c0.1-0.5,0.2-0.9,0.2-1.3c0-0.4-0.1-0.8-0.4-1c-0.2-0.2-0.6-0.4-1.1-0.4
			c-0.6,0-1.2,0.2-1.7,0.5c-0.5,0.4-1,0.9-1.4,1.5c-0.4,0.7-0.6,1.4-0.8,2.3l-0.8,3.9h-0.8l1.9-8.9h0.7l-0.3,1.8h0
			c0.9-1.3,2-1.9,3.4-1.9c0.7,0,1.2,0.2,1.6,0.5c0.4,0.3,0.5,0.8,0.5,1.5c0,0.4-0.1,0.9-0.2,1.5l-1.2,5.5H301.2z"/>
		<path fill="#23253C" d="M307.8,58.8c-0.9,0-1.7-0.3-2.2-0.9c-0.5-0.6-0.8-1.4-0.8-2.5c0-1.1,0.2-2,0.6-2.9
			c0.4-0.9,0.9-1.6,1.6-2.1c0.7-0.5,1.5-0.7,2.4-0.7c0.7,0,1.4,0.1,2,0.4l-0.2,0.7c-0.6-0.3-1.2-0.4-1.8-0.4c-0.7,0-1.3,0.2-1.9,0.6
			c-0.6,0.4-1,1-1.3,1.8c-0.3,0.8-0.5,1.7-0.5,2.6c0,0.9,0.2,1.5,0.6,2c0.4,0.5,1,0.7,1.7,0.7c0.4,0,0.7,0,1.1-0.1
			c0.3-0.1,0.7-0.2,1.1-0.4v0.8C309.4,58.7,308.6,58.8,307.8,58.8z"/>
		<path fill="#23253C" d="M312.1,58.7h-0.8l1.9-8.9h0.8L312.1,58.7z M313.6,47.5c0-0.3,0.1-0.5,0.2-0.7c0.1-0.2,0.3-0.3,0.5-0.3
			c0.3,0,0.5,0.2,0.5,0.6c0,0.3-0.1,0.6-0.2,0.7c-0.1,0.2-0.3,0.3-0.5,0.3c-0.2,0-0.3-0.1-0.4-0.2C313.6,47.9,313.6,47.7,313.6,47.5
			z"/>
		<path fill="#23253C" d="M320.4,58.7l1.2-5.6c0.1-0.5,0.2-0.9,0.2-1.3c0-0.4-0.1-0.8-0.4-1c-0.2-0.2-0.6-0.4-1.1-0.4
			c-0.6,0-1.2,0.2-1.7,0.5c-0.5,0.4-1,0.9-1.4,1.5c-0.4,0.7-0.6,1.4-0.8,2.3l-0.8,3.9h-0.8l1.9-8.9h0.7l-0.3,1.8h0
			c0.9-1.3,2-1.9,3.4-1.9c0.7,0,1.2,0.2,1.6,0.5c0.4,0.3,0.5,0.8,0.5,1.5c0,0.4-0.1,0.9-0.2,1.5l-1.2,5.5H320.4z"/>
		<path fill="#23253C" d="M332,49.8l-0.1,0.6l-2,0.1c0.1,0.2,0.3,0.4,0.4,0.7c0.1,0.3,0.1,0.6,0.1,0.9c0,0.6-0.1,1.2-0.4,1.7
			c-0.3,0.5-0.7,0.9-1.2,1.2c-0.5,0.3-1.1,0.4-1.7,0.4c-0.3,0-0.6,0-0.6-0.1c-0.4,0.2-0.8,0.4-1,0.6c-0.2,0.2-0.4,0.4-0.4,0.7
			s0.1,0.4,0.3,0.5c0.2,0.1,0.5,0.2,0.9,0.3l1,0.1c1.9,0.2,2.8,0.9,2.8,2.2c0,0.6-0.2,1.1-0.5,1.6c-0.4,0.5-0.9,0.8-1.5,1.1
			c-0.7,0.2-1.5,0.4-2.4,0.4c-1,0-1.8-0.2-2.4-0.6s-0.9-0.9-0.9-1.7c0-1.3,0.8-2.2,2.5-2.7c-0.4-0.2-0.6-0.6-0.6-1
			c0-0.7,0.5-1.2,1.6-1.6c-0.4-0.2-0.7-0.5-0.9-0.9c-0.2-0.4-0.3-0.8-0.3-1.3c0-0.6,0.1-1.2,0.4-1.7c0.3-0.5,0.7-0.9,1.2-1.2
			c0.5-0.3,1.1-0.4,1.7-0.4c0.4,0,0.8,0.1,1.2,0.2H332z M323.2,60.3c0,0.5,0.2,1,0.7,1.2c0.4,0.3,1,0.4,1.8,0.4c1.1,0,2-0.2,2.6-0.6
			c0.6-0.4,0.9-1,0.9-1.7c0-0.5-0.2-0.8-0.5-1.1c-0.3-0.2-0.9-0.4-1.8-0.5l-1.3-0.1c-0.9,0.2-1.5,0.6-1.8,0.9
			C323.4,59.4,323.2,59.8,323.2,60.3z M325.4,52.9c0,0.6,0.2,1.1,0.5,1.4c0.3,0.3,0.8,0.5,1.3,0.5c0.5,0,0.9-0.1,1.3-0.3
			c0.4-0.2,0.6-0.5,0.8-0.9c0.2-0.4,0.3-0.9,0.3-1.4c0-0.6-0.2-1-0.5-1.3c-0.3-0.3-0.7-0.5-1.3-0.5c-0.5,0-0.9,0.1-1.3,0.4
			c-0.4,0.2-0.7,0.5-0.9,0.9C325.5,52,325.4,52.4,325.4,52.9z"/>
	</g>
</g>
<g>
</g>
<g>
</g>
<g>
</g>
<g>
</g>
<g>
</g>
<g>
</g>
<g>
</g>
<g>
</g>
<g>
</g>
<g>
</g>
</svg>
