<?xml version="1.0" encoding="utf-8"?>
<!-- Generator: Adobe Illustrator 19.0.1, SVG Export Plug-In . SVG Version: 6.00 Build 0)  -->
<svg version="1.1" id="Hollywood_Monster" xmlns="http://www.w3.org/2000/svg" xmlns:xlink="http://www.w3.org/1999/xlink" x="0px"
	 y="0px" viewBox="0 0 390 292.5" enable-background="new 0 0 390 292.5" xml:space="preserve">
<polygon fill="#532C7F" points="11.5,184.1 14.3,184.1 14.3,193.2 26.8,193.2 26.8,184.1 29.6,184.1 29.6,207.6 26.8,207.6 
	26.8,195.8 14.3,195.8 14.3,207.6 11.5,207.6 "/>
<g>
	<path fill="#532C7F" d="M55.5,204.6c-2.4,2.3-5.6,3.6-8.9,3.6c-3.3,0-6.5-1.3-8.8-3.6c-2.4-2.3-3.7-5.4-3.7-8.7
		c0-3.3,1.3-6.4,3.7-8.7c2.4-2.3,5.5-3.6,8.8-3.6c3.3,0,6.5,1.3,8.9,3.6c2.4,2.3,3.6,5.4,3.6,8.7C59.2,199.3,57.9,202.3,55.5,204.6
		 M53.5,202.7c1.8-1.8,2.8-4.2,2.8-6.8c0-2.6-1-5-2.8-6.9c-1.8-1.8-4.2-2.8-6.8-2.8c-2.6,0-5,1-6.8,2.8c-1.8,1.9-2.8,4.3-2.8,6.9
		c0,2.6,1,5,2.8,6.8c1.9,1.9,4.2,2.8,6.8,2.8C49.2,205.6,51.6,204.6,53.5,202.7"/>
	<polygon fill="#532C7F" points="63.7,184.1 66.5,184.1 66.5,204.9 75.4,204.9 75.4,207.6 63.7,207.6 	"/>
	<polygon fill="#532C7F" points="78.7,184.1 81.5,184.1 81.5,204.9 90.3,204.9 90.3,207.6 78.7,207.6 	"/>
	<polygon fill="#532C7F" points="96.4,196.9 88.4,184.1 91.6,184.1 97.8,194.3 103.9,184.1 107.1,184.1 99.2,196.9 99.2,207.6 
		96.4,207.6 	"/>
	<polygon fill="#532C7F" points="109.9,184.1 115.9,201.4 122.1,183.2 128.3,201.4 134.3,184.1 137.3,184.1 128.2,208.5 
		122.1,190.4 116,208.5 106.9,184.1 	"/>
	<path fill="#532C7F" d="M160.2,204.6c-2.4,2.3-5.6,3.6-8.9,3.6c-3.3,0-6.5-1.3-8.8-3.6c-2.4-2.3-3.7-5.4-3.7-8.7
		c0-3.3,1.3-6.4,3.7-8.7c2.4-2.3,5.5-3.6,8.8-3.6c3.3,0,6.5,1.3,8.9,3.6c2.4,2.3,3.6,5.4,3.6,8.7
		C163.9,199.3,162.6,202.3,160.2,204.6 M158.1,202.7c1.8-1.8,2.8-4.2,2.8-6.8c0-2.6-1-5-2.8-6.9c-1.8-1.8-4.2-2.8-6.8-2.8
		c-2.6,0-5,1-6.8,2.8c-1.8,1.9-2.8,4.3-2.8,6.9c0,2.6,1,5,2.8,6.8c1.9,1.9,4.2,2.8,6.8,2.8C153.9,205.6,156.3,204.6,158.1,202.7"/>
	<path fill="#532C7F" d="M188.8,204.6c-2.4,2.3-5.6,3.6-8.9,3.6c-3.3,0-6.5-1.3-8.8-3.6c-2.4-2.3-3.7-5.4-3.7-8.7
		c0-3.3,1.3-6.4,3.7-8.7c2.4-2.3,5.5-3.6,8.8-3.6c3.3,0,6.5,1.3,8.9,3.6c2.4,2.3,3.6,5.4,3.6,8.7
		C192.4,199.3,191.1,202.3,188.8,204.6 M186.7,202.7c1.8-1.8,2.8-4.2,2.8-6.8c0-2.6-1-5-2.8-6.9c-1.8-1.8-4.2-2.8-6.8-2.8
		c-2.6,0-5,1-6.8,2.8c-1.8,1.9-2.8,4.3-2.8,6.9c0,2.6,1,5,2.8,6.8c1.9,1.9,4.2,2.8,6.8,2.8C182.4,205.6,184.8,204.6,186.7,202.7"/>
	<path fill="#532C7F" d="M197,184.1h4.5c4.4,0,7.8,0,10.6,2.2c2.7,2.1,4.1,5.3,4.1,9.5c0,4.2-1.4,7.4-4.1,9.5
		c-2.7,2.1-5.8,2.2-9.6,2.2h-1H197V184.1z M201.6,205c4,0,6.8,0,8.8-1.7c1.9-1.6,2.9-4.1,2.9-7.4c0-3.3-1-5.8-2.9-7.4
		c-1.9-1.6-4.7-1.7-8.8-1.7h-1.8V205H201.6z"/>
	<polygon fill="#532C7F" points="234.1,191.7 231.1,207.6 228.4,207.6 233.1,183.2 241.3,202.6 249.5,183.2 254.3,207.6 
		251.6,207.6 248.6,191.7 241.3,208.5 	"/>
	<path fill="#532C7F" d="M278.2,204.6c-2.4,2.3-5.6,3.6-8.9,3.6c-3.3,0-6.5-1.3-8.8-3.6c-2.4-2.3-3.7-5.4-3.7-8.7
		c0-3.3,1.3-6.4,3.7-8.7c2.4-2.3,5.5-3.6,8.8-3.6c3.3,0,6.5,1.3,8.9,3.6c2.4,2.3,3.6,5.4,3.6,8.7
		C281.9,199.3,280.6,202.3,278.2,204.6 M276.1,202.7c1.8-1.8,2.8-4.2,2.8-6.8c0-2.6-1-5-2.8-6.9c-1.8-1.8-4.2-2.8-6.8-2.8
		c-2.6,0-5,1-6.8,2.8c-1.8,1.9-2.8,4.3-2.8,6.9c0,2.6,1,5,2.8,6.8c1.9,1.9,4.2,2.8,6.8,2.8C271.9,205.6,274.3,204.6,276.1,202.7"/>
	<polygon fill="#532C7F" points="286.4,183.2 303.6,202 303.6,184.1 306.2,184.1 306.2,208.5 289.1,190 289.1,207.6 286.4,207.6 	
		"/>
	<path fill="#532C7F" d="M325,201c0,4.3-3,7.2-7.5,7.2c-3.7,0-6.3-2-7.2-5.4l2.5-1.2c0.7,2.8,2.3,4.3,4.7,4.3c2.8,0,4.7-1.8,4.7-4.4
		c0-2.1-1.2-3.6-3.6-4.7l-2.9-1.2c-3.1-1.3-4.6-3.3-4.6-6.2c0-3.3,2.7-5.8,6.6-5.8c2.8,0,4.9,1.2,6.1,3.5l-2.3,1.5
		c-1-1.8-2.3-2.7-4-2.7c-2.1,0-3.6,1.4-3.6,3.4c0,1.7,1,2.8,3.1,3.8l3.3,1.5C323.4,195.9,325,198.1,325,201"/>
	<polygon fill="#532C7F" points="332.8,186.8 326.2,186.8 326.2,184.1 342.2,184.1 342.2,186.8 335.6,186.8 335.6,207.6 
		332.8,207.6 	"/>
	<polygon fill="#532C7F" points="345.3,184.1 357.7,184.1 357.7,186.7 348.1,186.7 348.1,193.4 357.7,193.4 357.7,196 348.1,196 
		348.1,205 357.7,205 357.7,207.6 345.3,207.6 	"/>
	<path fill="#532C7F" d="M362.4,184.1h4.8h0.7c2.2,0,3.9,0.1,5.4,1.2c1.3,1,2.2,2.9,2.2,5.2c0,3.8-2.2,5.9-6.3,5.9h-0.5l9,11.2h-3.5
		l-8.6-11.2h-0.4v11.2h-2.7V184.1z M365.1,194.3h2.1c3.7,0,5.5-0.5,5.5-3.8c0-3.4-1.8-4.1-5.5-4.1h-2.1V194.3z"/>
	<polygon fill="#E22B85" points="88.9,217.3 94.4,217.3 94.4,218.2 89.9,218.2 89.9,221.8 94.4,221.8 94.4,222.7 89.9,222.7 
		89.9,227.5 94.4,227.5 94.4,228.5 88.9,228.5 	"/>
	<path fill="#E22B85" d="M96.9,217.3h1.7h0.5c1.1,0,1.9,0,2.6,0.6c0.7,0.5,1.1,1.4,1.1,2.5c0,2.2-1.3,3.1-3.7,3.1H98v5h-1V217.3z
		 M98.6,222.6c2,0,3.1-0.2,3.1-2.1c0-0.8-0.3-1.5-0.8-1.8c-0.5-0.4-1.3-0.4-2.4-0.4H98v4.4H98.6z"/>
	<rect x="104.8" y="217.3" fill="#E22B85" width="1" height="11.2"/>
	<path fill="#E22B85" d="M114.1,217.9c-2.9,0-4.9,2.1-4.9,5c0,3,2.1,5,4.8,5c1.3,0,2.5-0.4,3.6-1.3l0,1.2c-1.1,0.7-2.4,1.1-3.6,1.1
		c-3.4,0-5.9-2.4-5.9-5.9c0-3.5,2.6-5.9,5.9-5.9c1.4,0,2.7,0.4,3.7,1.2l0,1.1C116.5,218.4,115.4,217.9,114.1,217.9"/>
	<path fill="#E22B85" d="M124.4,226.1c0.3,1.1,1.2,1.7,2.3,1.7c1.4,0,2.3-0.9,2.3-2.4c0-1.4-0.8-1.9-2.1-2.6
		c-1.8-0.9-2.8-1.7-2.8-3.2c0-1.6,1.2-2.7,2.9-2.7c1.1,0,2,0.5,2.5,1.4l-0.8,0.5c-0.3-0.6-0.9-1-1.8-1c-1.1,0-1.8,0.7-1.8,1.8
		c0,1.4,1,1.7,2.5,2.5c1.6,0.9,2.4,1.6,2.4,3.3c0,2-1.3,3.3-3.3,3.3c-1.5,0-2.5-0.7-3.1-2.2L124.4,226.1z"/>
	<rect x="132.2" y="217.3" fill="#E22B85" width="1" height="11.2"/>
	<path fill="#E22B85" d="M141.2,218c-2.8,0-4.7,2.1-4.7,5.1c0,2.7,2,4.8,4.7,4.8c2.5,0,4.2-1.6,4.3-4h-3.9V223h5v0.2
		c0,3.5-2.1,5.7-5.5,5.7c-3.4,0-5.7-2.4-5.7-5.9c0-3.4,2.3-5.9,5.7-5.9c2.2,0,3.9,0.8,4.8,2.4l-0.7,0.6
		C144.3,218.7,142.9,218,141.2,218"/>
	<polygon fill="#E22B85" points="148.8,216.8 156.7,226.2 156.7,217.3 157.7,217.3 157.7,228.8 149.7,219.4 149.7,228.5 
		148.8,228.5 	"/>
	<path fill="#E22B85" d="M163.9,216.8l4.7,11.7h-1.1l-1.4-3.8h-4.6l-1.5,3.8h-1L163.9,216.8z M165.7,223.8l-1.9-4.9l-2,4.9H165.7z"
		/>
	<path fill="#E22B85" d="M174.8,218c-2.8,0-4.7,2.1-4.7,5.1c0,2.7,2,4.8,4.7,4.8c2.5,0,4.2-1.6,4.3-4h-3.9V223h5v0.2
		c0,3.5-2.1,5.7-5.5,5.7c-3.4,0-5.7-2.4-5.7-5.9c0-3.4,2.3-5.9,5.7-5.9c2.2,0,3.9,0.8,4.8,2.4l-0.7,0.6
		C177.8,218.7,176.5,218,174.8,218"/>
	<polygon fill="#E22B85" points="182.4,217.3 187.9,217.3 187.9,218.2 183.4,218.2 183.4,221.8 187.9,221.8 187.9,222.7 
		183.4,222.7 183.4,227.5 187.9,227.5 187.9,228.5 182.4,228.5 	"/>
	<path fill="#E22B85" d="M198.3,216.8l4.7,11.7h-1.1l-1.4-3.8h-4.6l-1.5,3.8h-1L198.3,216.8z M200.2,223.8l-1.9-4.9l-2,4.9H200.2z"
		/>
	<polygon fill="#E22B85" points="204.3,216.8 212.3,226.2 212.3,217.3 213.2,217.3 213.2,228.8 205.3,219.4 205.3,228.5 
		204.3,228.5 	"/>
	<path fill="#E22B85" d="M216,217.3h1.7c1.9,0,3.4,0,4.6,0.7c1.5,0.9,2.3,2.6,2.3,4.9c0,2-0.7,3.6-1.9,4.6c-1.3,1-2.8,1-4.6,1h-0.5
		H216V217.3z M217.9,227.6h0.6c1.4,0,2.5,0,3.4-0.6c1.1-0.8,1.7-2.2,1.7-4.1c0-1.5-0.4-2.8-1.1-3.6c-1-1.2-2.3-1.2-4.2-1.2h-0.3H217
		v9.5H217.9z"/>
	<path fill="#E22B85" d="M236.7,218c-2.8,0-4.7,2.1-4.7,5.1c0,2.7,2,4.8,4.7,4.8c2.5,0,4.3-1.6,4.3-4h-3.9V223h5v0.2
		c0,3.5-2.1,5.7-5.5,5.7c-3.4,0-5.7-2.4-5.7-5.9c0-3.4,2.3-5.9,5.7-5.9c2.2,0,3.9,0.8,4.8,2.4l-0.7,0.6
		C239.7,218.7,238.4,218,236.7,218"/>
	<path fill="#E22B85" d="M249.9,228.5l-3.9-5.4h-0.6v5.4h-1v-11.2h2.1c2.4,0,3.6,1,3.6,3.1c0,1.8-1.1,2.8-2.9,2.8l4,5.4H249.9z
		 M245.3,222.3h1c1.7,0,2.6-0.4,2.6-2c0-1.6-0.8-2.1-2.6-2.1h-1V222.3z"/>
	<path fill="#E22B85" d="M256,216.8l4.7,11.7h-1.1l-1.4-3.8h-4.6l-1.5,3.8h-1L256,216.8z M257.8,223.8l-1.9-4.9l-2,4.9H257.8z"/>
	<path fill="#E22B85" d="M261.9,217.3h1.7h0.5c1.1,0,1.9,0,2.6,0.6c0.7,0.5,1.1,1.4,1.1,2.5c0,2.2-1.2,3.1-3.7,3.1H263v5h-1V217.3z
		 M263.7,222.6c2,0,3.1-0.2,3.1-2.1c0-0.8-0.3-1.5-0.7-1.8c-0.5-0.4-1.3-0.4-2.4-0.4H263v4.4H263.7z"/>
	<polygon fill="#E22B85" points="269.8,217.3 270.8,217.3 270.8,221.8 276.9,221.8 276.9,217.3 277.9,217.3 277.9,228.5 
		276.9,228.5 276.9,222.7 270.8,222.7 270.8,228.5 269.8,228.5 	"/>
	<rect x="280.7" y="217.3" fill="#E22B85" width="1" height="11.2"/>
	<path fill="#E22B85" d="M290,217.9c-2.9,0-4.9,2.1-4.9,5c0,3,2.1,5,4.8,5c1.3,0,2.5-0.4,3.6-1.3l0,1.2c-1.1,0.7-2.4,1.1-3.5,1.1
		c-3.4,0-5.9-2.4-5.9-5.9c0-3.5,2.6-5.9,5.9-5.9c1.4,0,2.6,0.4,3.6,1.2l0,1.1C292.4,218.4,291.3,217.9,290,217.9"/>
	<path fill="#E22B85" d="M295.8,226.1c0.3,1.1,1.2,1.7,2.3,1.7c1.4,0,2.3-0.9,2.3-2.4c0-1.4-0.8-1.9-2.1-2.6
		c-1.8-0.9-2.8-1.7-2.8-3.2c0-1.6,1.2-2.7,2.9-2.7c1.1,0,2,0.5,2.5,1.4l-0.8,0.5c-0.3-0.6-0.9-1-1.8-1c-1.1,0-1.8,0.7-1.8,1.8
		c0,1.4,1,1.7,2.5,2.5c1.6,0.9,2.4,1.6,2.4,3.3c0,2-1.2,3.3-3.3,3.3c-1.5,0-2.5-0.7-3.1-2.2L295.8,226.1z"/>
	<path fill="none" stroke="#E76099" stroke-width="2.202" stroke-linecap="round" stroke-linejoin="round" d="M283.9,175.5
		c-3.6,0-7.1-1.1-10-3.1c0,0-0.1-0.1-0.1-0.1c-0.3-0.2-0.5-0.4-0.8-0.6c-2.3-1.7-4-4-5.2-6.8h0c-0.1-0.2-0.2-0.4-0.2-0.5h0
		c-0.1-0.2-0.1-0.4-0.2-0.5c-0.4-1-0.6-2.1-0.8-3.3c0-0.3-0.1-0.5-0.1-0.8c-0.1-0.9-0.2-1.8-0.2-2.9v-23.3c0-3.3-0.5-5.6-1.2-6.5
		c-0.3-0.4-0.7-0.7-1.4-0.9c-0.5-0.2-1.6-0.3-1.7-0.3c-0.2,0-0.5,0-0.7,0c-2.5,0-3.1,0.8-3.7,1.5c0,0,0,0,0,0l0,0.1
		c-0.8,1.2-1.3,3.4-1.3,6.5v23.4c0,0.1,0,0.3,0,0.5c0,1.7-0.2,3.1-0.5,4.5c-1,3.8-3.1,7-6,9.4c-1,0.8-2.1,1.5-3.2,2.1
		c-2.4,1.2-5,1.8-7.6,1.8c-2.9,0-5.8-0.7-8.4-2.2c-3.5-1.9-6.2-5-7.7-8.6c-0.1-0.2-0.2-0.4-0.3-0.6c-0.1-0.2-0.2-0.5-0.2-0.6
		l-0.1-0.3c0-0.1-0.1-0.2-0.1-0.4c0-0.2-0.1-0.3-0.1-0.4c0,0,0-0.1,0-0.1v0l0-0.1l0-0.1c-0.1-0.5-0.2-0.9-0.3-1.3l-0.1-0.4l-0.1-0.4
		c0,0,0-0.1,0-0.1v0l0-0.1l0-0.1c-0.1-1-0.2-1.9-0.2-2.8v-22.4c0-0.2,0-0.4,0-0.6l0-0.4c-0.1-2.6-0.4-4.6-1-5.7
		c-0.2-0.4-0.4-0.7-0.6-0.9c-0.4-0.4-1-1-3.5-1c-0.4,0-0.8,0-1.2,0.1c-0.1,0-0.1,0-0.1,0c-0.1,0-0.1,0-0.1,0
		c-1.2,0.3-1.7,0.8-2.4,1.9c-0.1,0.2-0.2,0.4-0.4,0.6c0,1.2-0.2,2.2-0.6,3.2c0,0.1,0,0.2,0,0.3c0,0.1,0,0.2,0,0.3c0,0.4,0,0.8,0,1.2
		v20.3c0,0.5-0.1,0.9-0.2,1.4c0.1,0.8,0.2,1.6,0.2,2.4c0,0,0,0.1,0,0.2c0,1.6-0.2,3.1-0.7,4.7c0,0.1,0,0,0,0.1c0,0,0,0.1,0,0.2
		c0,0,0,0,0,0.1l-0.1,0.3c-1.5,4.6-4.8,8.4-9.1,10.5c-2.4,1.1-4.9,1.7-7.5,1.7c-1.9,0-3.7-0.3-5.5-0.9c-3.9-1.3-7.2-3.9-9.4-7.4
		c-0.7-1.1-1.3-2.3-1.7-3.6l0-0.1l0-0.1c0,0,0,0,0,0c-0.6-1.8-0.9-3.7-0.9-5.6c0-0.1,0-0.2,0-0.3c0-0.2,0-0.4,0-0.7v-14l0-6.6
		c0-0.1,0-0.2,0-0.3v-9.3l0-12.7c0-0.6,0.1-1.2,0.4-1.7c-0.1-0.5-0.1-1-0.1-1.5c0-0.3,0-0.6,0-0.8c0.3-5.6,4.1-10.6,9.5-12.3
		c1.4-0.5,2.9-0.7,4.3-0.7c1,0,1.9,0.1,2.9,0.3c0.1,0,0.2-0.1,0.3-0.1c1.2-0.6,2.5-0.8,3.9-0.8c4.5,0,8.4,3.2,9.2,7.6
		c0,0.1,0,0.2,0,0.2c0.1,0.5,0.1,1,0.1,1.5c0,0.4,0,0.7-0.1,1.1c0.1,0,0.2,0,0.3,0.1c0.6,0.2,1.1,0.4,1.7,0.7
		c0.1-0.2,0.3-0.4,0.4-0.6c-0.1-0.4-0.1-0.8-0.1-1.2c0-2.2,1.1-4.3,2.9-5.6c0.1-0.1,0.3-0.2,0.4-0.2c0.2-0.1,0.5-0.3,0.7-0.4
		c0.9-0.4,1.8-0.6,2.8-0.6c0.3,0,0.6,0,0.8,0.1c1.1-1.2,2.8-2,4.6-2c0.6,0,1.1,0.1,1.6,0.2c0.2-0.1,0.3-0.2,0.5-0.3
		c0.9-0.5,2-0.8,3-0.8c0.9,0,1.8,0.2,2.6,0.6c0.8,0.4,1.5,0.9,2,1.6c0.4-0.1,0.8-0.1,1.2-0.1c1.3,0,2.6,0.4,3.6,1.1
		c0.8-0.3,1.7-0.4,2.6-0.4c0.6,0,1.2,0.1,1.8,0.2c1.6,0.4,3.1,1.3,4.2,2.5c0.9,1,1.5,2.3,1.8,3.6c0.8,0.2,1.5,0.5,2.2,1
		c0.9-2,2.9-3.4,5.2-3.5c0.6-1.3,1.6-2.3,2.9-3.1c0.1-0.1,0.2-0.1,0.4-0.2l0.4-0.2l0.2-0.1c0.2-0.1,0.3-0.1,0.5-0.2
		c0.8-0.3,1.6-0.4,2.4-0.4c1.5,0,2.9,0.5,4.1,1.2c1.2-0.5,2.4-0.8,3.8-0.8c0.1,0,0.2,0,0.4,0c1.3-1.7,3.4-2.8,5.7-2.8
		c2.8,0,5.3,1.7,6.4,4.1c1.1,0.1,2.2,0.5,3.2,0.9c1-0.6,2.2-0.9,3.4-0.9c0.9,0,1.9,0.2,2.7,0.6c0.9,0.4,1.8,1,2.5,1.8
		c0.6,0.6,1,1.4,1.3,2.2c2.6,1.2,4.4,3.8,4.4,6.8c0,0.3,0,0.7-0.1,1c1.8,3,2.9,6.4,3.1,9.9l0,0l0,0l0,0l0.1,0.2l0,0.2
		c0,0.3,0,0.5,0,0.7v33.6c0,0.1,0,0.4,0,0.6l0,0.5c0,0.4,0,0.9-0.1,1.3c0,0.3-0.1,0.7-0.1,0.9c0,0.3-0.1,0.5-0.1,0.8
		c0,0.2-0.1,0.3-0.1,0.5l0,0l0,0.1l0,0c0,0.1,0,0.1,0,0.1c-1,4.5-3.8,8.3-7.7,10.8C290.4,174.6,287.2,175.5,283.9,175.5L283.9,175.5
		z M107.4,175.5c-3,0-6-0.8-8.6-2.3c-3.9-2.2-6.8-5.7-8.2-10c-0.1-0.3-0.2-0.5-0.2-0.7c0-0.1-0.1-0.2-0.1-0.2
		c-0.3-1.1-0.5-2.3-0.6-3.5c0-0.5,0-0.7,0-1c0-2.5,0.5-4.9,1.5-7.1c-0.9-0.8-1.5-2-1.5-3.3v-26.7c0-1.3,0.5-2.4,1.4-3.2
		c-0.9-1.3-1.4-2.9-1.4-4.6c0-1.5,0.4-3,1.2-4.2c-0.7-1.1-1.2-2.3-1.2-3.7h0c0,0,0-0.1,0-0.1c0-0.1,0-0.1,0-0.3c0-0.2,0-0.5,0.1-0.8
		c0.1-1.2,0.5-2.2,1.1-3.2c-0.7-1.4-1.1-3.1-1.1-4.7c0-3.2,1.4-6.2,3.7-8.1c-2.1-1.4-3.6-3.8-3.7-6.5c0,0,0-0.2,0-0.3
		c0-0.8,0.1-1.7,0.4-2.5c0.7-2.1,2.1-3.7,3.9-4.7c1.2-4.2,4.6-7.6,9.2-8.6v0c0,0,0,0,0.1,0c0,0,0.1,0,0.1,0c0.2,0,0.4-0.1,0.5-0.1
		l0.4-0.1c0,0,0.2,0,0.3,0c0.4,0,0.7,0,1.1,0c1.2,0,2.3,0.2,3.5,0.5c0.5-0.1,1-0.2,1.4-0.2c0.1,0,0.2,0,0.3,0c1.2,0,2.5,0.3,3.5,0.9
		c0.2,0.1,0.4,0.2,0.5,0.3c1.7,1.1,2.8,2.9,3.1,4.8c3.3,1.3,5.9,4.2,6.7,7.9c0.1,0.6,0.1,0.9,0.2,1.3c0,0.3,0,0.6,0,0.9
		c0,1.6-0.4,3.2-1.1,4.7c0.6,0.9,1,1.9,1.1,3c0.1,0.3,0.1,0.6,0.1,0.9c0,0.3,0,0.5-0.1,0.8c0,0.4-0.1,0.9-0.2,1.3
		c0.1,0.5,0.2,0.9,0.3,1.4c0,0.4,0.1,0.8,0.1,1.2c0,0.4,0,0.8-0.1,1.2c0,0.5-0.1,0.9-0.2,1.4c0.2,0.7,0.3,1.5,0.3,2.2
		c0,0.3,0,0.6,0,1c0.5-0.2,1-0.4,1.5-0.6c0.7-3.8,4-6.7,8-6.7c1.9,0,3.6,0.6,5,1.7c0.8-0.1,1.6-0.2,2.4-0.2c2.5,0,4.8,0.6,6.9,1.9
		c0.9,0.1,1.7,0.3,2.4,0.6c0.1,0,0.1,0,0.1,0.1c7.4,2.1,13,6.7,16.2,13.2c0.3,0.6,0.6,1.3,0.8,2c0.5,1,0.8,2,1,3.1
		c0.1,0.7,0.2,1.4,0.2,2c0,0.8-0.1,1.6-0.3,2.4c0.1,0.1,0.2,0.2,0.3,0.3c0.6,0.7,1,1.5,1.1,2.4c0.2,2.4,0.3,5.1,0.4,8.4
		c0,0.4,0,0.9,0,1.4v1v22.2c0,0.8,0,1.6-0.1,2.2c0,0.2,0,0.3,0,0.4c-0.1,1.7-0.4,3.3-0.8,4.8c0,0.2-0.1,0.3-0.1,0.3
		c-1.7,4.9-5.3,8.7-10,10.6c-2.1,0.9-4.4,1.3-6.7,1.3c-2.9,0-5.8-0.7-8.3-2.1c-1.8-0.9-3.3-2.2-4.7-3.7c-1.3-1.5-2.4-3.1-3.2-4.9
		c-0.9-2-1.4-4.2-1.4-6.4c0-0.1,0-0.2,0-0.3c-0.1-0.7-0.1-1.5-0.1-2.3v-19.7c0-0.3,0-0.7,0-1.1c0-0.3,0-0.6,0-0.9
		c0-3.7-0.4-5.7-0.9-6.8c-0.5-1.1-0.9-1.2-1.5-1.4c-0.1,0-0.2-0.1-0.4-0.2c-0.2,0-0.4,0-0.6,0c-0.5-0.1-1-0.1-1.5-0.1
		c-2.8,0-3.6,0.8-4.2,1.7c-0.2,0.7-0.5,1.4-0.9,2.1c-0.4,1.4-0.6,3.2-0.6,5.5v22.4c0,0.1,0,0.2,0,0.4v0.2c0,2-0.3,4-1,5.8
		C121.6,172.1,115.8,175.7,107.4,175.5L107.4,175.5z"/>
	<path fill="#F395BA" d="M104.7,70c0.1,0,0.2,0,0.3,0C105,69.9,104.9,70,104.7,70"/>
	<path fill="#F395BA" d="M104.1,70.1c0.1,0,0.1,0,0.2,0C104.2,70,104.2,70.1,104.1,70.1"/>
	<path fill="#EF689E" d="M107.3,170.9c-2.4,0-4.6-0.5-6.4-1.4c1.9,1.1,4.1,1.7,6.5,1.7c2.9,0,5.6-1,7.9-2.6
		C113.1,170.1,110.4,170.9,107.3,170.9"/>
	<path fill="#EF689E" d="M189.9,170.4c1.3,0.4,2.7,0.7,4.1,0.7c2,0,4-0.5,5.7-1.3c-1.7,0.7-3.6,1.1-5.8,1.1
		C192.4,170.9,191.1,170.7,189.9,170.4"/>
	<path fill="#74509F" d="M232.6,169.5c1.9,1.1,4.1,1.7,6.4,1.7c2.1,0,4-0.5,5.8-1.3c-1.7,0.7-3.6,1-5.9,1
		C236.5,170.9,234.4,170.4,232.6,169.5"/>
	<path fill="#EF689E" d="M276.4,168.8c2.1,1.5,4.7,2.4,7.5,2.4c2.6,0,5-0.8,7-2c-2,1.1-4.3,1.7-7,1.7
		C280.9,170.9,278.4,170.2,276.4,168.8"/>
	<path fill="#937BB3" d="M115.2,168.6L115.2,168.6C115.2,168.6,115.2,168.6,115.2,168.6C115.2,168.6,115.2,168.6,115.2,168.6"/>
	<path fill="#74509F" d="M147.1,169.6c1.9,1,4,1.6,6.3,1.6c1.8,0,3.5-0.4,5-1c-1.4,0.4-3.1,0.7-4.9,0.7
		C151.1,170.9,148.9,170.4,147.1,169.6"/>
	<path fill="#EF689E" d="M94.4,161.2c-0.2-0.8-0.3-1.7-0.4-2.7C94.1,159.5,94.2,160.4,94.4,161.2"/>
	<path fill="#EF689E" d="M94.6,162c0-0.1-0.1-0.3-0.1-0.4C94.6,161.7,94.6,161.8,94.6,162"/>
	<path fill="#EF689E" d="M164.5,114.3c0.3,0.7,0.5,1.4,0.7,2.1C165,115.7,164.8,115,164.5,114.3"/>
	<path fill="#F395BA" d="M120.8,94.8c0-0.3,0-0.5,0-0.7v1.4C120.8,95.3,120.8,95,120.8,94.8"/>
	<path fill="#937BB3" d="M120.6,80.2c0,0.3,0.1,0.6,0.1,0.9C120.6,80.8,120.6,80.5,120.6,80.2"/>
	<path fill="#EF689E" d="M94,81.1c0,0.1,0,0.1,0,0.1c0.1-0.4,0.1-0.9,0.2-1.3C94.1,80.3,94,80.7,94,81.1"/>
	<polygon fill="#74509F" points="120.8,99.6 120.8,99.6 120.8,99.6 	"/>
	<path fill="#74509F" d="M138.1,100c-0.6-1.4-1.9-2.4-3.5-2.4c-2.1,0-3.8,1.7-3.8,3.8c0,0.3,0,0.6,0.1,0.9c1.8-0.7,3.7-1.2,5.7-1.5
		C137,100.5,137.6,100.2,138.1,100"/>
	<path fill="#B0A0C6" d="M93.9,104.7c0,0.1,0,0.1,0,0.2v-0.4C93.9,104.6,93.9,104.7,93.9,104.7"/>
	<path fill="#937BB3" d="M120.8,107.9c0-0.2,0-0.4-0.1-0.5v1.1C120.8,108.3,120.8,108.1,120.8,107.9"/>
	<path fill="#937BB3" d="M206,111c-0.2-0.1-0.4-0.1-0.6-0.1c-0.1,0-0.3,0-0.4,0c0,0.4,0.1,0.8,0.1,1.2
		C205.4,111.7,205.7,111.4,206,111"/>
	<path fill="#EF689E" d="M247.3,110.7c0.1,0.2,0.2,0.4,0.3,0.6C247.5,111.1,247.4,110.9,247.3,110.7"/>
	<path fill="#EF689E" d="M239.4,103.1c0.7,0.4,1.3,0.7,1.9,1.2C240.9,103.7,240.2,103.3,239.4,103.1"/>
	<path fill="#937BB3" d="M202.5,104.8c-0.4-2.4-2.5-4.1-5-4.1c-0.8,0-1.5,0.2-2.1,0.5C198.5,101.5,200.9,102.8,202.5,104.8"/>
	<path fill="#74509F" d="M207.8,128.3v-0.1c-0.2,0.7-0.4,1.5-0.5,2.4C207.7,129.8,207.8,129.1,207.8,128.3"/>
	<path fill="#F395BA" d="M187.6,101.8c-3.6,1.2-6.3,4.5-6.5,8.5C181.8,106,184,103.1,187.6,101.8"/>
	<path fill="#937BB3" d="M214.5,103.7c0.1-0.1,0.3-0.2,0.4-0.2C214.8,103.5,214.7,103.6,214.5,103.7"/>
	<path fill="#937BB3" d="M226.6,100.3c-0.3,0-0.6,0.1-0.8,0.2c0.5,0,1-0.1,1.6-0.1C227.1,100.3,226.8,100.3,226.6,100.3"/>
	<path fill="#EF689E" d="M249,111.1c0.1-0.1,0.2-0.3,0.4-0.4C249.2,110.8,249.1,110.9,249,111.1"/>
	<path fill="#937BB3" d="M288.4,104.8c0.3,0.2,0.6,0.4,0.9,0.7C289,105.2,288.7,104.9,288.4,104.8"/>
	<path fill="#EF689E" d="M258.8,103.2c0.2-0.1,0.4-0.2,0.6-0.3C259.2,103,259,103.1,258.8,103.2"/>
	<path fill="#EF689E" d="M110.9,69.7L110.9,69.7c0.5,0.1,1,0.3,1.5,0.4C112,69.9,111.5,69.7,110.9,69.7"/>
	<path fill="#B0A0C6" d="M120.8,90.1c0-0.1,0-0.2,0-0.3v0.6C120.8,90.3,120.8,90.2,120.8,90.1"/>
	<path fill="#F395BA" d="M142.2,100.4c1.8,0,3.5,0.1,5.1,0.4c-1.5-1.1-3.4-1.7-5.4-1.7c-1.4,0-2.7,0.3-3.8,0.8
		c0.1,0.2,0.2,0.4,0.2,0.7C139.6,100.5,140.9,100.4,142.2,100.4"/>
	<path fill="#ED408E" d="M138.3,100.6c-0.1-0.2-0.1-0.5-0.2-0.7c-0.6,0.2-1.1,0.5-1.6,0.9C137.1,100.8,137.7,100.7,138.3,100.6"/>
	<path fill="#EF689E" d="M206.6,161.6c0,0.1-0.1,0.2-0.1,0.4C206.6,161.8,206.6,161.7,206.6,161.6"/>
	<path fill="#EF689E" d="M207.2,157.8c0-0.1,0-0.1,0-0.2c0,1.3-0.2,2.6-0.5,3.8C207,160.3,207.2,159.1,207.2,157.8"/>
	<path fill="#EF689E" d="M180.8,157.8c0,1.5,0.3,2.9,0.7,4.3c-0.4-1.4-0.7-2.9-0.7-4.5C180.8,157.6,180.8,157.7,180.8,157.8"/>
	<path fill="#74509F" d="M226.2,161.2c-0.1-0.3-0.2-0.7-0.2-1.1C226.1,160.5,226.1,160.9,226.2,161.2"/>
	<path fill="#74509F" d="M226.5,162.2c-0.1-0.2-0.1-0.4-0.2-0.6C226.4,161.8,226.5,162,226.5,162.2"/>
	<path fill="#74509F" d="M226,159.7c0-0.2-0.1-0.3-0.1-0.5C225.9,159.4,225.9,159.5,226,159.7"/>
	<path fill="#EF689E" d="M296.8,160.4c0,0.2-0.1,0.4-0.1,0.6C296.7,160.9,296.7,160.6,296.8,160.4"/>
	<path fill="#EF689E" d="M296.9,159.2c0,0.2,0,0.4-0.1,0.6C296.9,159.6,296.9,159.4,296.9,159.2"/>
	<path fill="#937BB3" d="M120.7,157.8v-0.2c0,1.6-0.3,3.2-0.8,4.6C120.5,160.9,120.7,159.4,120.7,157.8"/>
	<path fill="#937BB3" d="M270.9,159.9c0-0.3-0.1-0.5-0.1-0.8C270.8,159.4,270.8,159.7,270.9,159.9"/>
	<path fill="#937BB3" d="M271.5,162.5c-0.3-0.8-0.5-1.6-0.6-2.5C271,160.9,271.2,161.7,271.5,162.5"/>
	<path fill="#937BB3" d="M271.8,163.3c0-0.1-0.1-0.2-0.1-0.4C271.7,163.1,271.8,163.2,271.8,163.3"/>
	<path fill="#74509F" d="M122.6,125.6c-0.4,0.7-0.7,1.4-0.9,2.2C122.1,127.1,122.4,126.3,122.6,125.6"/>
	<path fill="#EF689E" d="M140,134.3c0,0.3,0,0.5,0,0.7c0,0.3,0,0.6,0,0.9v-1.1C140,134.6,140,134.5,140,134.3"/>
	<path fill="#74509F" d="M166.7,158.2c-0.1,1.4-0.3,2.6-0.6,3.8C166.4,160.8,166.6,159.5,166.7,158.2"/>
	<path fill="#74509F" d="M141.1,163.2c-0.5-1.4-0.9-3.1-1.1-4.9C140.1,160,140.5,161.7,141.1,163.2"/>
	<path fill="#EF689E" d="M124.7,105.8C124.7,105.8,124.7,105.8,124.7,105.8C124.7,105.8,124.7,105.8,124.7,105.8"/>
	<path fill="#EF689E" d="M125.4,105.3C125.4,105.3,125.4,105.3,125.4,105.3C125.4,105.3,125.4,105.3,125.4,105.3"/>
	<path fill="#EF689E" d="M147.9,100.9c0.6,0.1,1.2,0.2,1.8,0.4C149.1,101.1,148.5,101,147.9,100.9"/>
	<path fill="#B0A0C6" d="M166.8,134.6c0-0.7,0-1.3,0-2c-1.4,1.8-3.5,3-6,3c-0.5,0-0.9,0-1.3-0.1c-0.2,3.8-2.6,7.1-6,8.5
		c0,0.2,0,0.3,0,0.5c7.3,0.1,13.2,6,13.2,13.3v0l0,0c0-0.6,0.1-1.3,0.1-2V134.6z"/>
	<path fill="#EF689E" d="M115.2,168.6c-7.6-4.4-12.7-12.7-12.7-22.1c0-0.4,0-0.8,0-1.1c-0.8,0.5-1.7,1-2.6,1.3
		c-3.6,2.4-5.9,6.5-5.9,11.1c0,0.3,0,0.5,0,0.8c0.1,0.9,0.2,1.8,0.4,2.7c0,0.1,0.1,0.2,0.1,0.3c0,0.1,0.1,0.3,0.1,0.4
		c1,3.2,3.3,5.9,6.2,7.5c1.8,0.9,4,1.4,6.4,1.4C110.4,170.9,113.1,170.1,115.2,168.6"/>
	<path fill="#EF689E" d="M99.9,146.7c0.8-0.6,1.7-1,2.6-1.4c0.2-5.4,2.1-10.3,5.2-14.3c-2.4-1.6-4.1-4.3-4.3-7.4
		c-2.3-1.8-5.1-2.8-8.2-2.8c-0.4,0-0.9,0-1.3,0.1v26.7c0.4,0,0.9,0.1,1.3,0.1C96.9,147.6,98.4,147.2,99.9,146.7"/>
	<path fill="#EF689E" d="M99.9,146.7c0.9-0.3,1.8-0.8,2.6-1.3v-0.1C101.6,145.7,100.7,146.2,99.9,146.7"/>
	<path fill="#EF689E" d="M112.2,113.2c-0.3-2.3-2-4.2-4.2-4.6c-0.8,2.7-3.2,4.7-6.2,4.7c0,0-0.1,0-0.1,0c0,0.2,0,0.3,0,0.5
		c0,2.1,1.2,3.8,2.9,4.7C105.9,115.6,108.8,113.5,112.2,113.2"/>
	<path fill="#F395BA" d="M106.9,108.5c0.4,0,0.7,0,1,0.1c0.2-0.6,0.3-1.1,0.3-1.8c0-2.5-1.5-4.7-3.6-5.8c-1.1,0.9-2.6,1.5-4.1,1.5
		c-1,0-2-0.2-2.8-0.7c0,0,0,0-0.1,0c1.3,0.3,2.2,1.5,2.2,2.8c0,1.6-1.3,2.9-2.9,2.9c-0.6,0-1.1-0.2-1.5-0.4c0.1,0.9,0.3,1.7,0.7,2.5
		c0.6-0.3,1.2-0.5,1.8-0.5c2.1,0,3.8,1.7,3.8,3.8c0,0.1,0,0.1,0,0.2h0C101.9,110.6,104.2,108.5,106.9,108.5"/>
	<path fill="#F395BA" d="M107.9,108.6c-0.3-0.1-0.7-0.1-1-0.1c-2.8,0-5,2.1-5.3,4.8c0,0,0.1,0,0.1,0
		C104.7,113.2,107.2,111.3,107.9,108.6"/>
	<path fill="#937BB3" d="M164.2,121.6c-1.3,2.1-3.7,3.6-6.4,3.6c-1.2,0-2.4-0.3-3.4-0.8c-0.3,0.5-0.6,1.1-0.8,1.8
		c2,0.9,3.7,2.4,4.7,4.3c0.9-0.2,1.8-0.3,2.8-0.3c2,0,3.9,0.4,5.7,1.2c0-2.9-0.1-5.6-0.4-8C165.8,122.6,165,122,164.2,121.6"/>
	<path fill="#937BB3" d="M161.1,130.2c-0.9,0-1.9,0.1-2.8,0.3c0.7,1.4,1.2,3,1.2,4.6c0,0.2,0,0.3,0,0.5c0.4,0.1,0.9,0.1,1.3,0.1
		c2.5,0,4.6-1.2,6-3c0-0.4,0-0.9,0-1.3C165,130.6,163.1,130.2,161.1,130.2"/>
	<path fill="#EF689E" d="M158.2,116.5c-1.6,0-3.1-0.4-4.4-1.1c0.3,0.7,0.5,1.5,0.5,2.3c0,1.9-1,3.5-2.4,4.4c0.7,0.9,1.5,1.6,2.6,2.2
		c1.3-2.2,3.7-3.6,6.4-3.6c1.2,0,2.4,0.3,3.4,0.8c0.7-1.1,1.1-2.5,1.1-3.9c0-0.4,0-0.8-0.1-1.3c-0.2-0.7-0.4-1.4-0.7-2.1
		c0,0,0-0.1-0.1-0.1C162.8,115.7,160.6,116.5,158.2,116.5"/>
	<path fill="#ED408E" d="M164.2,121.6c-1-0.5-2.2-0.8-3.4-0.8c-2.7,0-5.1,1.4-6.4,3.6c1,0.5,2.2,0.8,3.4,0.8
		C160.5,125.2,162.9,123.7,164.2,121.6"/>
	<path fill="#937BB3" d="M104.6,101c1.4-1.2,2.3-3,2.3-4.9c0-0.7-0.1-1.3-0.3-1.9c-0.5,0.2-1,0.3-1.5,0.3c-2.1,0-3.8-1.7-3.8-3.8
		c0-0.3,0.1-0.7,0.1-1c-0.3,0-0.6-0.1-1-0.1c-3.6,0-6.4,2.9-6.4,6.5c0,2.5,1.5,4.7,3.6,5.8c1.1-0.9,2.6-1.5,4.1-1.5
		C102.8,100.4,103.7,100.6,104.6,101"/>
	<path fill="#74509F" d="M104.6,101c-0.9-0.4-1.8-0.7-2.8-0.7c-1.6,0-3,0.6-4.1,1.5c0.9,0.4,1.8,0.7,2.8,0.7
		C102,102.5,103.5,101.9,104.6,101"/>
	<path fill="#F395BA" d="M97.8,77.3L97.8,77.3c2.2,0,3.9,1.7,3.9,3.8c0,0.9-0.3,1.8-0.9,2.4c1.4,1.1,3.1,1.7,4.9,1.7
		c1,0,2-0.2,2.9-0.6c-0.6-0.9-0.9-2-0.9-3.2c0-3.2,2.4-5.9,5.5-6.4c-0.1-0.2-0.1-0.4-0.2-0.5c-0.5,0.6-1.3,1-2.2,1
		c-1.6,0-2.9-1.3-2.9-2.9c0-1,0.5-1.9,1.3-2.4c-1.1-0.5-2.2-0.8-3.5-0.8c-0.2,0-0.5,0-0.7,0c-0.1,0-0.2,0-0.3,0.1
		c-0.2,0-0.3,0-0.5,0.1c-0.1,0-0.1,0-0.2,0C100.5,70.4,97.9,73.5,97.8,77.3"/>
	<path fill="#F395BA" d="M117.9,93.1c-1.6,0-2.9-1.3-2.9-2.9c0-0.6,0.2-1.1,0.5-1.6c-0.3,0-0.6-0.1-1-0.1c-3.5,0-6.4,2.9-6.4,6.4
		c0,1.9,0.8,3.6,2.2,4.8c0-2.9,2.4-5.2,5.3-5.2c2.1,0,3.9,1.2,4.8,3c0.3-0.6,0.4-1.2,0.5-1.9v-1.4c-0.1-0.8-0.3-1.5-0.6-2.1
		C119.6,92.6,118.8,93.1,117.9,93.1"/>
	<path fill="#937BB3" d="M114.2,75c-0.3,0-0.6,0-0.9,0.1c0.2,0.7,0.3,1.5,0.3,2.2c0,3.3-2.1,6.2-5,7.4c1.1,1.9,3.2,3.2,5.6,3.2
		c0.8,0,1.6-0.1,2.3-0.4c0.1-0.1,0.3-0.1,0.4-0.2c2.2-1,3.7-3.3,3.7-5.9c0-0.1,0-0.3,0-0.4c0-0.3-0.1-0.6-0.1-0.9
		C119.9,77.3,117.3,75,114.2,75"/>
	<path fill="#74509F" d="M113.7,77.4c0-0.8-0.1-1.5-0.3-2.2c-3.1,0.5-5.5,3.1-5.5,6.4c0,1.2,0.3,2.3,0.9,3.2
		C111.6,83.6,113.7,80.7,113.7,77.4"/>
	<path fill="#EF689E" d="M96,109.7c-1.2,0.7-2,1.9-2,3.4c0,2.1,1.7,3.8,3.8,3.8c2,0,3.7-1.6,3.8-3.6C99.2,113.2,97,111.8,96,109.7"
		/>
	<path fill="#ED408E" d="M97.8,109.2c-0.7,0-1.3,0.2-1.8,0.5c1,2.1,3.2,3.5,5.7,3.6c0-0.1,0-0.1,0-0.2
		C101.7,110.9,99.9,109.2,97.8,109.2"/>
	<path fill="#EF689E" d="M97.9,85c1.2,0,2.3-0.5,3-1.4c-1.8-1.4-3-3.7-3-6.2c0,0,0,0,0-0.1c-1.7,0-3.1,1.1-3.6,2.7
		c-0.1,0.4-0.1,0.9-0.2,1.3C94.1,83.3,95.8,85,97.9,85"/>
	<path fill="#ED408E" d="M97.9,77.3L97.9,77.3C97.8,77.3,97.8,77.3,97.9,77.3c0,2.6,1.1,4.8,3,6.3c0.6-0.7,0.9-1.5,0.9-2.4
		C101.7,79,100,77.3,97.9,77.3"/>
	<path fill="#74509F" d="M114.4,101.2c-1.6,0-3.1-0.6-4.2-1.6c0,0,0,0,0,0.1c0,2.9,2.4,5.3,5.3,5.3c2.9,0,5.3-2.3,5.3-5.2v-0.1
		c0-0.8-0.2-1.5-0.5-2.2C119.3,99.6,117,101.2,114.4,101.2"/>
	<path fill="#5E318D" d="M120.3,97.4c-0.8-1.8-2.7-3-4.8-3c-2.9,0-5.2,2.3-5.3,5.2c1.1,1,2.6,1.6,4.2,1.6
		C117,101.2,119.3,99.6,120.3,97.4"/>
	<path fill="#74509F" d="M144.5,119.4c2.4,0,4.4,1.5,5.3,3.5c0.7-0.1,1.5-0.4,2.1-0.8c-0.9-1.2-1.5-2.8-1.5-4.5
		c0-1.4,0.4-2.7,1.1-3.9c-0.4-0.4-0.7-0.7-1-1.2c0,0,0,0,0,0c-1.3,2.6-3.7,4.5-6.7,5.1c0,0.6,0.1,1.1,0.3,1.7
		C144.2,119.4,144.4,119.4,144.5,119.4"/>
	<path fill="#5E318D" d="M150.4,117.7c0,1.7,0.6,3.2,1.5,4.5c1.4-0.9,2.4-2.6,2.4-4.4c0-0.8-0.2-1.6-0.5-2.3c-0.8-0.4-1.6-1-2.3-1.6
		C150.8,115,150.4,116.3,150.4,117.7"/>
	<path fill="#937BB3" d="M149.7,125.3c0.2,0,0.3,0,0.5,0c0-0.1,0-0.1,0-0.2c0-0.8-0.2-1.5-0.4-2.2c-0.3,0-0.5,0.1-0.8,0.1
		c-2.3,0-4.3-1.5-5-3.6c-2.3,0.2-4.3,1.8-4.9,4c1.9,0.9,3.7,2.1,5.3,3.4C145.9,125.9,147.7,125.3,149.7,125.3"/>
	<path fill="#937BB3" d="M149,123c0.3,0,0.5,0,0.8-0.1c-0.8-2.1-2.9-3.5-5.3-3.5c-0.2,0-0.4,0-0.5,0C144.7,121.5,146.7,123,149,123"
		/>
	<path fill="#EF689E" d="M106.6,94.2c1.4-0.6,2.3-1.9,2.3-3.5c0-2.1-1.7-3.8-3.8-3.8c-1.8,0-3.3,1.2-3.7,2.8
		C103.9,90.1,105.9,91.8,106.6,94.2"/>
	<path fill="#ED408E" d="M105.1,94.5c0.5,0,1.1-0.1,1.5-0.3c-0.7-2.4-2.7-4.1-5.2-4.5c-0.1,0.3-0.1,0.6-0.1,1
		C101.3,92.8,103,94.5,105.1,94.5"/>
	<path fill="#74509F" d="M133.5,104.4c0.7-1.4,1.7-2.7,3-3.6c-2,0.3-3.9,0.8-5.7,1.5c0.1,0.6,0.4,1.1,0.8,1.6
		C132.3,104,132.9,104.2,133.5,104.4"/>
	<path fill="#B0A0C6" d="M95.3,107.2c0-0.1,0-0.3,0-0.4c0-2,0.9-3.7,2.3-4.9c-0.2-0.1-0.5-0.1-0.7-0.1c-1.6,0-2.8,1.2-2.9,2.7v0.4
		C94,105.9,94.5,106.7,95.3,107.2"/>
	<path fill="#937BB3" d="M99.8,104.7c0-1.4-1-2.5-2.2-2.8c-1.4,1.2-2.3,2.9-2.3,4.9c0,0.1,0,0.3,0,0.4c0.5,0.3,1,0.4,1.6,0.4
		C98.5,107.7,99.8,106.4,99.8,104.7"/>
	<path fill="#937BB3" d="M117.5,104.6c-1.8,0-3.3,1.5-3.3,3.3c0,1.8,1.5,3.3,3.3,3.3c1.6,0,3-1.2,3.2-2.7v-1.1
		C120.5,105.8,119.2,104.6,117.5,104.6"/>
	<path fill="#EF689E" d="M113.1,74.6c0.4-0.5,0.7-1.2,0.7-1.9c0-1.1-0.6-2-1.4-2.5c-0.5-0.2-1-0.3-1.5-0.4c-0.6,0-1.2,0.2-1.7,0.5
		C111,71.2,112.4,72.7,113.1,74.6"/>
	<path fill="#ED408E" d="M109.2,70.3c-0.7,0.5-1.2,1.4-1.2,2.4c0,1.6,1.3,2.9,2.9,2.9c0.9,0,1.7-0.4,2.2-1
		C112.4,72.7,111,71.2,109.2,70.3"/>
	<path fill="#B0A0C6" d="M117.9,87.2c-0.3,0-0.6,0.1-0.9,0.2c-0.1,0.1-0.3,0.1-0.4,0.2c-0.5,0.2-0.8,0.6-1.1,1
		c2.1,0.3,3.8,1.6,4.7,3.4c0.3-0.4,0.6-0.9,0.6-1.5v-0.6C120.6,88.3,119.4,87.2,117.9,87.2"/>
	<path fill="#937BB3" d="M117.9,93.1c0.9,0,1.7-0.4,2.3-1.1c-0.9-1.8-2.6-3.1-4.7-3.5c-0.3,0.5-0.5,1-0.5,1.6
		C114.9,91.7,116.2,93.1,117.9,93.1"/>
	<path fill="#B0A0C6" d="M116.5,87.5c0.1,0,0.3-0.1,0.4-0.2C116.8,87.4,116.7,87.5,116.5,87.5"/>
	<path fill="#EF689E" d="M152.9,106.2c0,1.5-0.7,2.9-1.7,3.9c-0.2,0.9-0.4,1.8-0.8,2.6c0,0,0,0,0,0c0.5,0.1,1,0.3,1.4,0.6
		c1.4-1.9,3.5-3.1,6-3.1c2.9,0,5.4,1.6,6.6,4c0,0,0,0,0,0c-0.2-0.6-0.5-1.2-0.7-1.7c-2.7-5.5-7.5-9.3-13.8-11c0,0,0,0,0,0
		C151.7,102.3,152.9,104.1,152.9,106.2"/>
	<path fill="#ED408E" d="M153.7,115.5c1.3,0.7,2.8,1.1,4.4,1.1c2.4,0,4.6-0.9,6.3-2.3c-1.2-2.4-3.7-4-6.6-4c-2.5,0-4.6,1.2-6,3.1
		C152.6,113.8,153.3,114.6,153.7,115.5"/>
	<path fill="#EF689E" d="M151.4,113.8c0.1-0.2,0.2-0.4,0.4-0.5c-0.4-0.3-0.9-0.5-1.4-0.6C150.7,113.1,151.1,113.5,151.4,113.8"/>
	<path fill="#ED408E" d="M153.7,115.5c-0.4-0.9-1.1-1.6-1.9-2.2c-0.1,0.2-0.3,0.4-0.4,0.6C152.1,114.5,152.9,115,153.7,115.5"/>
	<path fill="#F395BA" d="M138.3,100.6c0.1,0.3,0.1,0.5,0.1,0.8c0,2-1.5,3.6-3.3,3.8c2.4,1.6,3.9,4.2,3.9,7.3c0,1.6-0.5,3.1-1.2,4.4
		c1.3,0.6,2.7,1,4.2,1c0.6,0,1.2-0.1,1.8-0.2c0,0,0,0,0,0c0-2.9,2.4-5.3,5.3-5.3c0.5,0,0.9,0.1,1.4,0.2l0,0c-0.4-0.5-0.7-1-1-1.5
		c-0.6,0.2-1.2,0.3-1.8,0.3c-2.9,0-5.3-2.4-5.3-5.3c0-2.8,2.3-5.2,5.1-5.3c0,0-0.1-0.1-0.1-0.1c-1.6-0.3-3.3-0.4-5.1-0.4
		C140.9,100.4,139.6,100.5,138.3,100.6"/>
	<path fill="#EF689E" d="M150.4,112.7c-0.4-0.1-0.9-0.2-1.4-0.2c-2.9,0-5.3,2.4-5.3,5.3v0C146.7,117.2,149.1,115.3,150.4,112.7"/>
	<path fill="#ED408E" d="M138.4,101.4c0-0.3,0-0.5-0.1-0.8c-0.6,0.1-1.2,0.1-1.8,0.2c-1.3,0.9-2.3,2.1-3,3.6
		c0.5,0.2,1.1,0.5,1.6,0.8C136.9,105,138.4,103.4,138.4,101.4"/>
	<path fill="#EF689E" d="M149.5,111.1c0.3,0.5,0.6,1,1,1.5c0.4-0.8,0.7-1.7,0.8-2.6C150.7,110.5,150.1,110.9,149.5,111.1"/>
	<path fill="#937BB3" d="M115.3,168.6c2.2-1.5,3.8-3.7,4.7-6.4C119.1,164.8,117.4,167,115.3,168.6"/>
	<path fill="#937BB3" d="M130.2,121.2c-0.7,0-1.4-0.1-2.1-0.3H128c-1.8,0-3.5,0.2-5.2,0.5c0.1,0.4,0.1,0.9,0.1,1.4
		c0,0.9-0.1,1.8-0.4,2.7c1.6-2.9,4.3-4.3,8.2-4.3c0.8,0,1.5,0.1,2.1,0.2c-0.6-0.1-1.1-0.2-1.7-0.3
		C130.9,121.2,130.6,121.2,130.2,121.2"/>
	<path fill="#937BB3" d="M113.2,132.7c-1.8,0-3.4-0.5-4.8-1.3c0.2,0.9,0.3,1.8,0.3,2.8c0,4.6-2.3,8.7-5.9,11.1
		c1.4-0.5,3-0.8,4.6-0.8c7.3,0,13.3,5.9,13.4,13.2c0-0.1,0-0.3,0-0.4v-22.4c0-2.8,0.3-5.2,0.9-7.1
		C120,130.7,116.8,132.7,113.2,132.7"/>
	<path fill="#B0A0C6" d="M138.9,125.1c0-0.6,0.1-1.1,0.2-1.6c-1.4-0.7-2.9-1.2-4.4-1.6c4.1,1.4,5.2,5.4,5.3,12.5
		c0.1-1.6,0.6-3.1,1.5-4.5C139.9,128.8,138.9,127.1,138.9,125.1"/>
	<path fill="#937BB3" d="M146.8,146.3c-0.1-0.6-0.1-1.1-0.1-1.7c0-0.1,0-0.2,0-0.2c-3.7-1.2-6.4-4.5-6.7-8.4v19.9
		c0,0.8,0,1.6,0.1,2.4c0-0.1,0-0.3,0-0.4C140.1,152.9,142.8,148.6,146.8,146.3"/>
	<path fill="#937BB3" d="M146.7,144.4c0,0.1,0,0.2,0,0.2c0,0.6,0,1.2,0.1,1.7c2-1.1,4.2-1.8,6.6-1.8c0,0,0.1,0,0.1,0
		c0-0.2,0-0.3,0-0.5c-1.2,0.5-2.4,0.8-3.8,0.8C148.6,144.8,147.6,144.7,146.7,144.4"/>
	<path fill="#ED408E" d="M107.4,144.4c-1.6,0-3.2,0.3-4.6,0.8c-0.1,0-0.2,0.1-0.2,0.1c0,0.4,0,0.8,0,1.1c0,9.4,5.1,17.7,12.7,22.1
		c0,0,0,0,0.1,0c2.2-1.6,3.8-3.8,4.7-6.4c0.5-1.4,0.7-2.9,0.8-4.6C120.7,150.3,114.7,144.4,107.4,144.4"/>
	<path fill="#ED408E" d="M108.6,134.2c0-1-0.1-1.9-0.3-2.8c-0.2-0.1-0.4-0.2-0.6-0.4c-3.1,4-5,9-5.2,14.3c0.1,0,0.1-0.1,0.2-0.1
		C106.3,142.9,108.6,138.8,108.6,134.2"/>
	<path fill="#ED408E" d="M102.5,145.3L102.5,145.3c0.1,0,0.2,0,0.2-0.1C102.7,145.3,102.6,145.3,102.5,145.3"/>
	<path fill="#937BB3" d="M144.4,126.9c-1.6-1.3-3.4-2.5-5.3-3.4c-0.2,0.5-0.2,1.1-0.2,1.6c0,2,1,3.7,2.6,4.8
		C142.2,128.7,143.2,127.6,144.4,126.9"/>
	<path fill="#74509F" d="M108.1,130.5c3.7-4.5,8.8-7.8,14.7-9c-0.7-4.7-4.7-8.4-9.7-8.4c-0.3,0-0.7,0-1,0.1c0,0.2,0,0.4,0,0.6
		c0,2.9-2.4,5.3-5.3,5.3c-0.9,0-1.7-0.2-2.5-0.6c-0.7,1.3-1.1,2.8-1.1,4.4c0,0.2,0,0.5,0,0.7C105.7,125.3,107.3,127.7,108.1,130.5"
		/>
	<path fill="#74509F" d="M103.4,123.6c0.2,3.1,1.9,5.8,4.3,7.4c0.1-0.2,0.3-0.3,0.4-0.5C107.3,127.7,105.7,125.3,103.4,123.6"/>
	<path fill="#ED408E" d="M112.2,113.8c0-0.2,0-0.4,0-0.6c-3.4,0.3-6.3,2.4-7.7,5.3c0.7,0.4,1.6,0.6,2.5,0.6
		C109.9,119.1,112.2,116.7,112.2,113.8"/>
	<path fill="#5E318D" d="M122.9,121.5c-5.9,1.2-11.1,4.5-14.7,9c0.1,0.3,0.2,0.6,0.2,0.9c1.4,0.8,3.1,1.3,4.9,1.3
		c3.6,0,6.8-2,8.5-4.9c0.2-0.8,0.6-1.5,0.9-2.2c0.2-0.9,0.4-1.7,0.4-2.7C123,122.4,122.9,122,122.9,121.5"/>
	<path fill="#74509F" d="M108.1,130.5c-0.1,0.2-0.3,0.3-0.4,0.5c0.2,0.1,0.4,0.2,0.6,0.4C108.3,131.1,108.2,130.8,108.1,130.5"/>
	<path fill="#EF689E" d="M147.5,129.9c1.2,1.4,2.3,3,3.2,4.7c1-1.1,2.3-2,3.6-2.8c-0.6-1.1-1-2.3-1-3.7c0-0.7,0.1-1.4,0.3-2.1
		c-1.1-0.5-2.2-0.7-3.4-0.8C150.1,127.3,149.1,129,147.5,129.9"/>
	<path fill="#EF689E" d="M154.3,131.9c-1.4,0.7-2.6,1.7-3.6,2.8c1.5,2.9,2.5,6.1,2.8,9.5c3.4-1.4,5.8-4.7,6-8.5
		C157.2,135.1,155.4,133.8,154.3,131.9"/>
	<path fill="#ED408E" d="M154.3,131.9c1.2-0.7,2.6-1.2,4-1.4c-1-1.9-2.7-3.4-4.7-4.3c-0.2,0.7-0.3,1.4-0.3,2.1
		C153.3,129.5,153.7,130.8,154.3,131.9"/>
	<path fill="#ED408E" d="M158.3,130.4c-1.4,0.3-2.8,0.8-4,1.4c1.1,1.9,2.9,3.3,5.2,3.7c0-0.2,0-0.3,0-0.5
		C159.5,133.4,159.1,131.8,158.3,130.4"/>
	<path fill="#74509F" d="M150.2,125.3c-0.2,0-0.4,0-0.5,0c-2,0-3.8,0.6-5.3,1.6c1.1,0.9,2.2,2,3.1,3.1
		C149.1,129,150.1,127.3,150.2,125.3"/>
	<path fill="#ED408E" d="M146.7,144.4c0.1-3.8,1.6-7.2,4-9.7c-0.9-1.7-2-3.2-3.2-4.7c-0.9,0.5-1.9,0.8-3,0.8c-1.2,0-2.2-0.3-3.1-0.9
		c-0.8,1.3-1.3,2.8-1.5,4.5c0,0.1,0,0.3,0,0.4v1.1C140.3,139.9,143,143.2,146.7,144.4"/>
	<path fill="#ED408E" d="M146.7,144.4c1,0.3,2,0.5,3,0.5c1.4,0,2.6-0.3,3.8-0.8c-0.3-3.4-1.3-6.6-2.8-9.5
		C148.2,137.2,146.7,140.6,146.7,144.4"/>
	<path fill="#74509F" d="M144.4,126.9c-1.2,0.8-2.2,1.8-2.9,3c0.9,0.6,2,0.9,3.1,0.9c1.1,0,2.1-0.3,3-0.8
		C146.5,128.8,145.5,127.8,144.4,126.9"/>
	<path fill="#74509F" d="M161.1,159c-3.5,0-6.7-1.2-9.2-3.3c-1.7,4.5-4.6,8.3-8.3,11.1c1,1.1,2.2,2.1,3.6,2.8c1.8,0.8,4,1.2,6.4,1.2
		c1.8,0,3.4-0.2,4.9-0.7c3.6-1.5,6.4-4.5,7.6-8.2c0.3-1.1,0.5-2.4,0.6-3.8c0-0.1,0-0.2,0-0.3C165,158.6,163.1,159,161.1,159"/>
	<path fill="#74509F" d="M151.9,155.7c2.5,2.1,5.7,3.3,9.2,3.3c2,0,3.9-0.4,5.6-1.1v0c0-7.3-5.9-13.2-13.2-13.3
		c0.1,0.6,0.1,1.3,0.1,2C153.6,149.8,153,152.9,151.9,155.7"/>
	<path fill="#5E318D" d="M146.8,146.3c-4,2.3-6.7,6.6-6.7,11.5c0,0.1,0,0.3,0,0.4c0.2,1.8,0.5,3.4,1.1,4.9c0.6,1.4,1.4,2.6,2.4,3.7
		c3.7-2.8,6.6-6.7,8.3-11.1C149.1,153.4,147.2,150.1,146.8,146.3"/>
	<path fill="#5E318D" d="M146.8,146.3c0.5,3.8,2.4,7.1,5.1,9.4c1.1-2.8,1.7-5.9,1.7-9.2c0-0.7,0-1.3-0.1-2c0,0-0.1,0-0.1,0
		C151,144.5,148.7,145.2,146.8,146.3"/>
	<path fill="#EF689E" d="M121.5,112.5c0,4.1,2.8,7.5,6.6,8.5c1,0,2.1,0.1,3.1,0.2c2.8-0.3,5.1-1.9,6.5-4.2c-3.1-1.5-5.2-4.7-5.2-8.4
		c0-1.2,0.3-2.4,0.7-3.5c-0.6-0.2-1.2-0.6-1.6-1.1c-0.5-0.1-0.9-0.1-1.4-0.1c-1.8,0-3.5,0.5-4.9,1.5l0,0c-0.2,0.2-0.4,0.3-0.7,0.5
		c0,0,0,0,0,0C122.7,107.4,121.5,109.8,121.5,112.5"/>
	<path fill="#EF689E" d="M131.6,103.9c0.4,0.5,1,0.9,1.6,1.1c0.1-0.2,0.2-0.4,0.3-0.6C132.9,104.2,132.3,104,131.6,103.9"/>
	<path fill="#ED408E" d="M135.1,105.2c-0.2,0-0.3,0-0.5,0c-0.5,0-0.9-0.1-1.3-0.2c-0.4,1.1-0.7,2.3-0.7,3.5c0,3.7,2.1,6.9,5.2,8.4
		c0.8-1.3,1.2-2.8,1.2-4.4C139,109.5,137.4,106.8,135.1,105.2"/>
	<path fill="#ED408E" d="M135.1,105.2c-0.5-0.3-1-0.6-1.6-0.8c-0.1,0.2-0.2,0.4-0.3,0.6c0.4,0.2,0.9,0.2,1.3,0.2
		C134.7,105.3,134.9,105.3,135.1,105.2"/>
	<path fill="#EF689E" d="M131.2,121.2c-1-0.1-2-0.2-3.1-0.2c0.7,0.2,1.4,0.3,2.1,0.3C130.6,121.2,130.9,121.2,131.2,121.2"/>
	<path fill="#EF689E" d="M147.5,100.9c0.7,0.5,1.3,1.1,1.8,1.7c0.2-0.4,0.4-0.8,0.7-1.2c-0.1-0.1-0.2-0.1-0.3-0.1
		c-0.6-0.2-1.2-0.3-1.8-0.4c-0.1,0-0.2,0-0.3,0C147.6,100.9,147.5,100.9,147.5,100.9"/>
	<path fill="#ED408E" d="M151.2,110.1c1-1,1.7-2.3,1.7-3.9c0-2.1-1.2-3.9-3-4.7c-0.2,0.4-0.5,0.8-0.7,1.2c1.3,1.6,2.1,3.6,2.1,5.9
		C151.4,109.1,151.3,109.6,151.2,110.1"/>
	<path fill="#EF689E" d="M149.3,102.7c-0.5-0.7-1.1-1.2-1.8-1.7c-2.8,0.1-5.1,2.4-5.1,5.3c0,2.9,2.4,5.3,5.3,5.3
		c0.6,0,1.2-0.1,1.8-0.3c-0.7-1.3-1.1-2.8-1.1-4.4C148.4,105.3,148.7,103.9,149.3,102.7"/>
	<path fill="#ED408E" d="M151.4,108.5c0-2.2-0.8-4.3-2.1-5.9c-0.6,1.2-0.9,2.6-0.9,4.1c0,1.6,0.4,3.1,1.1,4.4
		c0.7-0.2,1.3-0.6,1.8-1.1C151.3,109.6,151.4,109.1,151.4,108.5"/>
	<path fill="#F6B6CD" d="M232.4,130.3c2.9,0,5.5,1.4,7.1,3.6c1.7-2.9,4-5.3,6.6-7.3c-1.5-1-2.4-2.7-2.4-4.6c0-0.4,0-0.8,0.1-1.1
		c-2.4-2.2-5.6-3.5-9.1-3.5c-1.4,0-2.7,0.2-3.9,0.6c0.3,0.5,0.4,1.1,0.4,1.7c0,2-1.6,3.7-3.7,3.7c-1,0-2-0.4-2.6-1.1
		c0.1,0.4,0.1,0.7,0.1,1.1c0,1-0.3,1.9-0.7,2.7c0.9,1.9,1.3,4.3,1.4,7.5C227.3,131.5,229.7,130.3,232.4,130.3"/>
	<path fill="#B0A0C6" d="M190.3,145.1c-2.1-0.5-3.8-1.7-5-3.4c-1.4,0.8-2.9,1.2-4.6,1.2v14c0,0.2,0,0.4,0,0.7
		C180.9,151.6,184.9,146.7,190.3,145.1"/>
	<path fill="#937BB3" d="M203.2,113.2c0,1.2,1,2.2,2.2,2.2c1.2,0,2.2-1,2.2-2.2c0-1-0.7-1.9-1.7-2.1c-0.3,0.4-0.6,0.7-0.9,1.1
		c0-0.4-0.1-0.8-0.1-1.2C204,111.2,203.2,112.1,203.2,113.2"/>
	<path fill="#ED408E" d="M215.5,115.5c2,0,3.6-1.6,3.6-3.7c0-2-1.6-3.7-3.6-3.7c-2,0-3.7,1.6-3.7,3.7
		C211.8,113.9,213.5,115.5,215.5,115.5"/>
	<path fill="#EF689E" d="M230.8,117.9c-0.6-1.2-1.8-2-3.2-2c-2,0-3.7,1.6-3.7,3.7c0,0.1,0,0.2,0,0.2c0.4,0.5,0.7,1.2,0.9,1.8
		C226.4,119.9,228.5,118.6,230.8,117.9"/>
	<path fill="#EF689E" d="M224.8,121.6c0,0.2,0.1,0.3,0.1,0.5c0.7,0.7,1.6,1.1,2.6,1.1c2,0,3.7-1.6,3.7-3.7c0-0.6-0.2-1.2-0.4-1.7
		C228.5,118.6,226.4,119.9,224.8,121.6"/>
	<path fill="#EF689E" d="M196.3,124.5c2,0,3.6-1.6,3.6-3.7c0-1.2-0.6-2.3-1.6-3c-0.3-0.1-0.5-0.2-0.8-0.4c-0.1,0-0.1,0-0.2-0.1
		c-1.2,1.3-2.9,2.3-4.7,2.7c0,0.2-0.1,0.5-0.1,0.8C192.6,122.9,194.3,124.5,196.3,124.5"/>
	<path fill="#ED408E" d="M244.3,109.1c-2,0-3.7,1.6-3.7,3.7c0,2,1.6,3.7,3.7,3.7c2,0,3.7-1.6,3.7-3.7c0-0.5-0.1-1.1-0.3-1.5
		c-0.1-0.2-0.2-0.4-0.3-0.6C246.7,109.7,245.5,109.1,244.3,109.1"/>
	<path fill="#EF689E" d="M234.9,106.7c0,2,1.6,3.7,3.7,3.7c2,0,3.7-1.6,3.7-3.7c0-0.9-0.3-1.8-0.9-2.4c-0.6-0.4-1.2-0.8-1.9-1.2
		c-0.3-0.1-0.5-0.1-0.8-0.1C236.6,103,234.9,104.6,234.9,106.7"/>
	<path fill="#EF689E" d="M198.4,117.8c0.4,0.2,0.9,0.3,1.3,0.3c2,0,3.7-1.6,3.7-3.7c0-1.9-1.5-3.5-3.3-3.6v0.1c0,2.5-1,4.8-2.6,6.5
		c0.1,0,0.1,0.1,0.1,0.1C197.9,117.5,198.1,117.7,198.4,117.8"/>
	<path fill="#EF689E" d="M198.4,117.8c-0.2-0.2-0.5-0.3-0.8-0.4C197.8,117.6,198.1,117.7,198.4,117.8"/>
	<path fill="#937BB3" d="M200,110.2c1.6-0.9,2.6-2.5,2.6-4.4c0-0.3,0-0.6-0.1-0.9c-1.6-2-4-3.2-7.1-3.7c-0.5,0.2-1,0.5-1.4,0.9
		C197.4,103.4,199.7,106.5,200,110.2"/>
	<path fill="#937BB3" d="M223.9,119.8c-1-1.4-2.7-2.3-4.5-2.3c-2.1,0-3.9,1.1-4.9,2.8c0,0,0,0.1,0,0.1c0,0.5-0.1,0.9-0.2,1.4
		c0.6-0.1,1.3-0.2,2-0.2c3,0,5.2,0.8,6.7,2.4c0.5-0.8,1-1.5,1.6-2.2C224.2,121.2,224,120.5,223.9,119.8"/>
	<path fill="#937BB3" d="M224.9,122.1c-0.1-0.1-0.2-0.2-0.3-0.3c-0.6,0.7-1.1,1.4-1.6,2.2c0.5,0.5,0.9,1.2,1.3,1.9
		c0.4-0.8,0.7-1.7,0.7-2.7C225,122.8,225,122.4,224.9,122.1"/>
	<path fill="#937BB3" d="M224.8,121.6c-0.2-0.7-0.5-1.3-0.9-1.8c0.1,0.7,0.3,1.4,0.7,2C224.7,121.7,224.7,121.7,224.8,121.6"/>
	<path fill="#937BB3" d="M224.6,121.8c0.1,0.1,0.2,0.2,0.3,0.3c0-0.2-0.1-0.3-0.1-0.5C224.7,121.7,224.7,121.7,224.6,121.8"/>
	<path fill="#EF689E" d="M213.9,121.8c0.1-0.6,0.4-1.1,0.6-1.6c0-3.1-2.6-5.6-5.6-5.6c-3.1,0-5.7,2.5-5.7,5.7c0,0.9,0.2,1.8,0.6,2.5
		c1.5,0.4,2.8,1.5,3.5,2.9c0.4,0.1,0.9,0.2,1.4,0.2C209.8,123.8,211.5,122.4,213.9,121.8"/>
	<path fill="#EF689E" d="M214.5,120.3c-0.3,0.5-0.5,1-0.6,1.6c0.1,0,0.3-0.1,0.5-0.1C214.4,121.3,214.5,120.8,214.5,120.3
		C214.5,120.3,214.5,120.3,214.5,120.3"/>
	<path fill="#EF689E" d="M284.8,107.4c-1.1-1.8-3.1-3-5.4-3c-2.3,0-4.4,1.3-5.5,3.2c1.8-0.6,3.7-1,5.7-1
		C281.4,106.6,283.2,106.9,284.8,107.4"/>
	<path fill="#937BB3" d="M185.2,125c1.2-1.2,2-2.8,2-4.7c0-0.2,0-0.4,0-0.7c-2.6-1-4.6-3.1-5.6-5.7c-0.2,0-0.5,0-0.7,0
		c0,0-0.1,0-0.1,0v9.9C182.4,123.9,183.9,124.3,185.2,125"/>
	<path fill="#EF689E" d="M189,128.8c0.8,1.4,1.2,2.9,1.2,4.6c0,1.5-0.4,2.9-1,4.2c1.2,0.6,2.2,1.4,3.2,2.3c0.9-3.3,3.1-5.9,6.1-7.4
		c-1-0.9-1.6-2-1.8-3.4c-1.2-0.7-2.7-1.1-4.2-1.1C191.2,128.1,190,128.4,189,128.8"/>
	<path fill="#EF689E" d="M185.3,141.7c1.2,1.7,3,2.9,5,3.4c0.6-0.2,1.1-0.3,1.7-0.4c-0.1-0.6-0.2-1.2-0.2-1.9c0-1,0.1-2,0.4-3
		c-0.9-0.9-2-1.7-3.2-2.3C188.3,139.3,187,140.7,185.3,141.7"/>
	<path fill="#74509F" d="M203.8,122.9c-0.5-0.2-1-0.2-1.6-0.2c-3.1,0-5.7,2.5-5.7,5.7c0,0.3,0,0.6,0.1,0.9c1.2,0.7,2.3,1.7,3.1,2.8
		c1.2-0.4,2.5-0.7,3.8-0.7c1.1,0,2.1,0.2,3.1,0.5c0.3-0.4,0.6-0.8,0.8-1.3c0.1-0.9,0.3-1.6,0.5-2.4c0-0.9-0.2-1.7-0.6-2.4
		C205.7,125.3,204.5,124.2,203.8,122.9"/>
	<path fill="#74509F" d="M207.2,125.8c-0.7-1.4-1.9-2.5-3.5-2.9C204.5,124.2,205.7,125.3,207.2,125.8"/>
	<path fill="#74509F" d="M198.4,132.5c0.4-0.2,0.8-0.4,1.2-0.5c-0.8-1.2-1.8-2.2-3.1-2.8C196.8,130.5,197.5,131.7,198.4,132.5"/>
	<path fill="#F395BA" d="M181.6,114.1c2.9,0.4,5.3,2.7,5.6,5.7c1,0.4,2.2,0.6,3.4,0.6c0.7,0,1.5-0.1,2.2-0.3
		c0.3-1.7,1.8-2.9,3.6-2.9c0.4,0,0.8,0.1,1.1,0.2c0,0,0,0,0,0c-0.9-0.7-1.4-1.7-1.4-2.9c0-2,1.6-3.7,3.6-3.7c0.1,0,0.2,0,0.3,0
		c0-0.2,0-0.4,0-0.6c-0.7,0.4-1.6,0.6-2.4,0.6c-2.8,0-5.1-2.3-5.1-5.1c0-1.4,0.6-2.8,1.6-3.7c-1.1-0.5-2.3-0.7-3.6-0.7
		c-1,0-2,0.2-2.9,0.5c-3.6,1.3-5.8,4.2-6.5,8.5c0,0.2,0,0.3,0,0.5C181,112,181.2,113.1,181.6,114.1"/>
	<path fill="#ED408E" d="M197.4,117.4c-0.4-0.1-0.7-0.2-1.1-0.2c-1.8,0-3.2,1.2-3.6,2.9C194.5,119.7,196.2,118.7,197.4,117.4"/>
	<path fill="#ED408E" d="M200,110.8c-0.1,0-0.2,0-0.3,0c-2,0-3.7,1.6-3.7,3.7c0,1.2,0.6,2.2,1.4,2.9
		C199.1,115.6,200,113.4,200,110.8L200,110.8"/>
	<path fill="#74509F" d="M194.1,102c-1,0.9-1.6,2.2-1.6,3.7c0,2.8,2.3,5.1,5.1,5.1c0.9,0,1.7-0.2,2.4-0.6
		C199.7,106.5,197.4,103.4,194.1,102"/>
	<path fill="#5E318D" d="M181.6,114.1c0.9,2.6,3,4.7,5.6,5.7C186.9,116.8,184.5,114.4,181.6,114.1"/>
	<path fill="#937BB3" d="M297.1,123.7c0-0.2,0-0.5,0-0.7h-0.1c0,0.3,0,0.6,0,0.9c0,7.3-4.6,13.6-11,16.1c0.5,1.7,0.8,3.4,0.9,5.2
		c5.7,1.3,9.9,6.3,10.1,12.4h0.1c0-0.1,0-0.3,0-0.4V123.7z"/>
	<path fill="#F395BA" d="M284.9,107.4C284.9,107.4,284.8,107.4,284.9,107.4l0,0.1C284.9,107.5,284.9,107.5,284.9,107.4"/>
	<path fill="#F395BA" d="M290.7,114.9c-1.8,0-3.2-1.4-3.2-3.2c0-1,0.4-1.8,1.1-2.4c-0.4,0.2-0.8,0.3-1.2,0.3c-0.8,0-1.5-0.4-2-1
		c0.2,0.7,0.4,1.4,0.4,2.2c0,3.5-2.8,6.4-6.4,6.4c-3.5,0-6.4-2.8-6.4-6.4c0-0.3,0-0.6,0.1-0.9c-0.7,2-2.6,3.5-4.8,3.5
		c-0.7,0-1.4-0.2-2.1-0.4c-0.1,0.1-0.2,0.2-0.3,0.3c0.4,0.2,0.7,0.5,1,0.9c0.8-0.5,1.8-0.8,2.8-0.8c3.1,0,5.7,2.5,5.7,5.7
		c0,2.2-1.2,4-3,5c3.8,1.8,7,4.6,9.5,7.9c2.9-5.3,8.5-8.9,15-8.9c-0.2-3.6-1.5-6.9-3.6-9.6C292.8,114.3,291.8,114.9,290.7,114.9"/>
	<path fill="#F395BA" d="M273.4,108.9c0.1-0.5,0.4-0.9,0.6-1.3c-0.2,0.1-0.4,0.1-0.6,0.2c0,0.2,0,0.3,0,0.5
		C273.4,108.5,273.4,108.7,273.4,108.9"/>
	<path fill="#ED408E" d="M273.2,109.9c0,0.3-0.1,0.6-0.1,0.9c0,3.5,2.8,6.4,6.4,6.4c3.5,0,6.4-2.9,6.4-6.4c0-0.8-0.1-1.5-0.4-2.2
		c-0.2-0.3-0.4-0.6-0.5-1l-0.1-0.2c-1.6-0.5-3.4-0.8-5.2-0.8c-2,0-3.9,0.3-5.7,1c-0.3,0.4-0.5,0.9-0.6,1.3
		C273.3,109.2,273.2,109.6,273.2,109.9"/>
	<path fill="#F395BA" d="M282,131.9c1.8,2.4,3.1,5.2,4,8.2c6.4-2.5,11-8.8,11-16.1c0-0.3,0-0.6,0-1
		C290.5,123.1,284.9,126.7,282,131.9"/>
	<path fill="#74509F" d="M183.8,136c0.3-3.2,2.3-5.9,5.1-7.2c-0.9-1.6-2.2-2.9-3.8-3.8c-1.1,1.1-2.6,1.7-4.3,1.7c0,0-0.1,0-0.1,0
		v9.3c0.5-0.1,1.1-0.1,1.6-0.1C182.9,135.9,183.4,135.9,183.8,136"/>
	<path fill="#74509F" d="M183.8,136.7c0-0.2,0-0.5,0-0.7c-0.5-0.1-1-0.1-1.5-0.1c-0.6,0-1.1,0-1.6,0.1v6.9c1.7,0,3.2-0.5,4.6-1.2
		C184.4,140.3,183.8,138.6,183.8,136.7"/>
	<path fill="#5E318D" d="M185.2,125c-1.3-0.7-2.8-1.1-4.4-1.1v2.8c0,0,0.1,0,0.1,0C182.5,126.8,184,126.1,185.2,125"/>
	<path fill="#5E318D" d="M183.8,136c1.9,0.2,3.7,0.8,5.3,1.6c0.6-1.3,1-2.7,1-4.2c0-1.7-0.4-3.2-1.2-4.6
		C186.1,130.1,184.1,132.8,183.8,136"/>
	<path fill="#5E318D" d="M183.8,136.7c0,1.8,0.6,3.5,1.5,4.9c1.6-0.9,3-2.4,3.8-4.1c-1.6-0.9-3.4-1.4-5.3-1.6
		C183.8,136.2,183.8,136.5,183.8,136.7"/>
	<path fill="#B0A0C6" d="M202.2,133.9c-0.6,0-1.1-0.1-1.7-0.3c0.4,1,0.6,2,0.6,3c0,3.6-2.2,6.7-5.3,8c5.2,0.7,9.4,4.4,10.9,9.2
		c0.2-0.1,0.4-0.1,0.6-0.2v-20.3c0-0.5,0-1,0-1.5c-0.2-0.1-0.4-0.1-0.6-0.2C205.6,133.1,204,133.9,202.2,133.9"/>
	<path fill="#937BB3" d="M192.3,139.9c1.4,1.4,2.6,3,3.3,4.8c0,0,0.1,0,0.1,0c3.1-1.3,5.3-4.4,5.3-8c0-1.1-0.2-2.1-0.6-3
		c-0.8-0.2-1.5-0.6-2.1-1.2C195.5,134,193.2,136.7,192.3,139.9"/>
	<path fill="#937BB3" d="M192.1,144.7c0.6-0.1,1.2-0.2,1.9-0.2c0.6,0,1.1,0.1,1.7,0.1c-0.8-1.8-1.9-3.5-3.3-4.8c-0.2,1-0.4,2-0.4,3
		C191.9,143.5,192,144.1,192.1,144.7"/>
	<path fill="#5E318D" d="M202.2,133.9c1.8,0,3.4-0.8,4.4-2.1c-1-0.3-2.1-0.4-3.1-0.4c-1.3,0-2.6,0.2-3.8,0.6
		c0.4,0.5,0.6,1.1,0.9,1.7C201,133.9,201.6,133.9,202.2,133.9"/>
	<path fill="#5E318D" d="M200.5,133.7c-0.2-0.6-0.5-1.2-0.9-1.7c-0.4,0.1-0.8,0.3-1.2,0.5C199,133,199.7,133.5,200.5,133.7"/>
	<path fill="#B0A0C6" d="M226.3,161.6c0-0.1-0.1-0.3-0.1-0.4C226.3,161.3,226.3,161.5,226.3,161.6"/>
	<path fill="#B0A0C6" d="M230.9,147.7c-2.1-0.3-3.9-1.4-5.2-2.9v12.1c0,0.8,0.1,1.6,0.1,2.3c0-0.4-0.1-0.8-0.1-1.2
		C225.8,153.8,227.8,150.1,230.9,147.7"/>
	<path fill="#B0A0C6" d="M226.5,162.2c0.1,0.2,0.1,0.4,0.2,0.5h0C226.6,162.5,226.6,162.4,226.5,162.2"/>
	<path fill="#B0A0C6" d="M226,160.2c0-0.1,0-0.3-0.1-0.5C226,159.9,226,160,226,160.2"/>
	<path fill="#74509F" d="M264.3,120.1c0.1,0.6,0.3,1.1,0.6,1.6c2.7,0.4,5.3,1.2,7.7,2.3c1.8-1,3-2.8,3-5c0-3.1-2.5-5.7-5.7-5.7
		c-1,0-2,0.3-2.8,0.8c0.5,0.6,0.9,1.4,0.9,2.3C267.9,118.5,266.3,120.1,264.3,120.1"/>
	<path fill="#937BB3" d="M273.4,107.8c-0.2-2.6-2.4-4.6-5.1-4.6c-2.8,0-5.1,2.3-5.1,5.1c0,2.1,1.2,3.9,3,4.7
		C268.1,110.7,270.6,108.9,273.4,107.8"/>
	<path fill="#74509F" d="M273.2,109.9c0.1-0.3,0.1-0.6,0.2-0.9c0-0.2,0-0.4,0-0.6c0-0.2,0-0.3,0-0.5c-2.8,1.1-5.2,2.9-7.1,5.2
		c0.6,0.3,1.3,0.4,2.1,0.4C270.6,113.4,272.5,111.9,273.2,109.9"/>
	<path fill="#937BB3" d="M273.2,109.9c0.1-0.3,0.2-0.6,0.2-0.9C273.3,109.2,273.2,109.5,273.2,109.9"/>
	<path fill="#937BB3" d="M247.3,125.7c2.3-1.5,4.9-2.7,7.7-3.4c0-0.1,0-0.3,0-0.4c0-3.1-2.5-5.7-5.7-5.7c-2.7,0-5,1.9-5.6,4.5
		C245.3,122.1,246.5,123.8,247.3,125.7"/>
	<path fill="#937BB3" d="M246.1,126.5c0.4-0.3,0.8-0.6,1.2-0.8c-0.8-1.9-2-3.6-3.5-5c-0.1,0.4-0.1,0.7-0.1,1.1
		C243.7,123.8,244.7,125.5,246.1,126.5"/>
	<path fill="#937BB3" d="M213.4,105.7c0,1.4,1.1,2.5,2.5,2.5c1.4,0,2.5-1.1,2.5-2.5c0-1.4-1.1-2.5-2.5-2.5c-0.4,0-0.7,0.1-1,0.2
		c-0.1,0.1-0.2,0.1-0.4,0.2C213.9,104.1,213.4,104.9,213.4,105.7"/>
	<path fill="#5E318D" d="M221.2,112.9c0,1.4,1.1,2.5,2.5,2.5c1.4,0,2.5-1.1,2.5-2.5c0-1.4-1.1-2.5-2.5-2.5
		C222.3,110.4,221.2,111.5,221.2,112.9"/>
	<path fill="#74509F" d="M254.3,115.7c0,1.4,1.1,2.5,2.5,2.5c1.4,0,2.5-1.1,2.5-2.5c0-1.4-1.1-2.5-2.5-2.5
		C255.4,113.2,254.3,114.3,254.3,115.7"/>
	<path fill="#5E318D" d="M255.7,108.5c0-0.9-0.8-1.7-1.7-1.7c-0.9,0-1.7,0.7-1.7,1.7c0,0.9,0.7,1.7,1.7,1.7
		C255,110.2,255.7,109.5,255.7,108.5"/>
	<path fill="#937BB3" d="M224.9,101.9c0,0.9,0.8,1.7,1.7,1.7c0.9,0,1.7-0.7,1.7-1.7c0-0.7-0.4-1.2-0.9-1.5c-0.5,0-1,0-1.6,0.1
		C225.2,100.8,224.9,101.3,224.9,101.9"/>
	<path fill="#EF689E" d="M251.1,115c1.4,0,2.5-1.1,2.5-2.5c0-1.4-1.1-2.5-2.5-2.5c-0.7,0-1.3,0.3-1.7,0.7c-0.1,0.1-0.3,0.3-0.4,0.5
		c-0.3,0.4-0.4,0.9-0.4,1.4C248.6,113.9,249.7,115,251.1,115"/>
	<path fill="#937BB3" d="M284.9,107.1c0,0.1,0,0.2,0,0.4c1.3,0.4,2.6,1,3.8,1.7c0.1-0.1,0.2-0.2,0.4-0.3c0.5-0.5,0.8-1.1,0.8-1.8
		c0-0.6-0.2-1.2-0.6-1.6c-0.3-0.2-0.6-0.5-0.9-0.7c-0.3-0.1-0.6-0.2-1-0.2C286,104.6,284.9,105.7,284.9,107.1"/>
	<path fill="#74509F" d="M285.4,108.6c0.5,0.6,1.2,1,2,1c0.4,0,0.9-0.1,1.2-0.3c0,0,0.1-0.1,0.1-0.1c-1.2-0.7-2.5-1.3-3.8-1.7
		c0,0,0,0.1,0,0.1C285.1,107.9,285.3,108.2,285.4,108.6"/>
	<path fill="#937BB3" d="M285.4,108.6c-0.1-0.4-0.3-0.7-0.5-1C285,108,285.2,108.3,285.4,108.6"/>
	<path fill="#EF689E" d="M293.4,113.4c0.3-0.5,0.5-1.1,0.5-1.7c0-1.8-1.4-3.2-3.2-3.2c-0.6,0-1.1,0.2-1.6,0.4
		c-0.1,0.1-0.2,0.2-0.4,0.3C290.5,110.3,292.1,111.7,293.4,113.4"/>
	<path fill="#ED408E" d="M288.7,109.2c-0.1,0-0.1,0-0.1,0.1c-0.7,0.6-1.1,1.4-1.1,2.4c0,1.8,1.4,3.2,3.2,3.2c1.1,0,2.1-0.6,2.7-1.5
		C292.1,111.7,290.5,110.3,288.7,109.2"/>
	<path fill="#EF689E" d="M289.1,108.9c-0.1,0.1-0.2,0.2-0.4,0.3c0,0,0,0,0,0C288.9,109.1,289,109,289.1,108.9"/>
	<path fill="#EF689E" d="M288.7,109.2C288.7,109.2,288.7,109.2,288.7,109.2c-0.1,0-0.1,0-0.1,0.1
		C288.6,109.2,288.7,109.2,288.7,109.2"/>
	<path fill="#ED408E" d="M257.3,105.9c0,1.7,1.4,3.1,3.1,3.1c1.7,0,3.1-1.4,3.1-3.1c0-1.7-1.4-3.1-3.1-3.1c-0.4,0-0.7,0.1-1,0.2
		c-0.2,0.1-0.4,0.2-0.6,0.3C257.9,103.7,257.3,104.7,257.3,105.9"/>
	<path fill="#937BB3" d="M274.3,106c1.5,0,2.8-1.2,2.8-2.8s-1.3-2.8-2.8-2.8c-1.5,0-2.8,1.2-2.8,2.8S272.8,106,274.3,106"/>
	<path fill="#EF689E" d="M221.4,105.1c1.1,0,1.9-0.9,1.9-1.9c0-1.1-0.9-1.9-1.9-1.9c-1.1,0-1.9,0.9-1.9,1.9
		C219.5,104.2,220.3,105.1,221.4,105.1"/>
	<path fill="#EF689E" d="M226.5,110c1.1,0,1.9-0.9,1.9-1.9c0-1.1-0.9-1.9-1.9-1.9c-1.1,0-1.9,0.9-1.9,1.9
		C224.6,109.1,225.5,110,226.5,110"/>
	<path fill="#EF689E" d="M232.4,106.2c1.1,0,1.9-0.9,1.9-1.9c0-1.1-0.9-1.9-1.9-1.9c-1.1,0-1.9,0.9-1.9,1.9
		C230.4,105.3,231.3,106.2,232.4,106.2"/>
	<path fill="#EF689E" d="M203.5,154.4c-2.5,0-4.9-0.8-6.8-2.2c-0.9,7-6.8,12.4-13.9,12.6c1.6,2.6,4.1,4.6,7.1,5.6
		c1.2,0.3,2.6,0.5,4,0.5c2.2,0,4.1-0.4,5.8-1.1c3.2-1.5,5.7-4.3,6.9-7.8c0-0.1,0.1-0.2,0.1-0.4c0,0,0-0.1,0.1-0.2
		c0.3-1.2,0.5-2.4,0.5-3.8c0-1.3-0.2-2.5-0.6-3.7C205.6,154.3,204.6,154.4,203.5,154.4"/>
	<path fill="#EF689E" d="M192.2,145.4c-0.6,0-1.3-0.1-1.9-0.3c-5.4,1.6-9.5,6.5-9.6,12.4c0,1.6,0.3,3.2,0.7,4.5
		c0.3,0.9,0.7,1.8,1.3,2.7c7.1-0.2,13-5.6,13.9-12.6C194.4,150.6,192.8,148.2,192.2,145.4"/>
	<path fill="#EF689E" d="M190.3,145.1c0.6,0.2,1.2,0.2,1.9,0.3c0-0.2-0.1-0.4-0.1-0.6C191.5,144.8,190.9,145,190.3,145.1"/>
	<path fill="#ED408E" d="M196.8,150.3c0,0.6,0,1.2-0.1,1.9c1.9,1.4,4.2,2.2,6.8,2.2c1.1,0,2.2-0.2,3.2-0.4
		c-1.5-4.9-5.7-8.6-10.9-9.3c0,0,0,0-0.1,0C196.4,146.5,196.8,148.4,196.8,150.3"/>
	<path fill="#ED408E" d="M195.7,144.7c-1,0.4-2.1,0.6-3.2,0.6c-0.1,0-0.2,0-0.2,0c0.6,2.8,2.2,5.2,4.5,6.8c0.1-0.6,0.1-1.2,0.1-1.9
		C196.8,148.4,196.4,146.5,195.7,144.7"/>
	<path fill="#EF689E" d="M195.7,144.7C195.7,144.7,195.7,144.7,195.7,144.7C195.7,144.7,195.7,144.7,195.7,144.7
		C195.7,144.7,195.7,144.7,195.7,144.7"/>
	<path fill="#ED408E" d="M192.1,144.7c0,0.2,0.1,0.4,0.1,0.6c0.1,0,0.2,0,0.2,0c1.2,0,2.2-0.2,3.2-0.6c0,0,0,0,0,0
		c-0.6-0.1-1.1-0.1-1.7-0.1C193.3,144.6,192.7,144.7,192.1,144.7"/>
	<path fill="#74509F" d="M237.5,156.2c-1.9,3.9-5.8,6.6-10.4,6.6c-0.1,0-0.3,0-0.4,0c1.1,2.9,3.2,5.3,5.9,6.8
		c1.8,0.9,3.9,1.4,6.3,1.4c2.2,0,4.2-0.4,5.9-1c0.9-0.4,1.7-0.9,2.4-1.6C242.8,165.4,239.4,161.1,237.5,156.2"/>
	<path fill="#74509F" d="M232.4,147.8c-0.5,0-1,0-1.5-0.1c-3.1,2.4-5.1,6.1-5.1,10.4c0,0.4,0,0.8,0.1,1.2c0,0.2,0,0.3,0.1,0.5
		c0,0.2,0,0.3,0.1,0.4c0,0.4,0.1,0.7,0.2,1.1c0,0.1,0.1,0.3,0.1,0.4c0,0.2,0.1,0.4,0.2,0.6c0.1,0.2,0.1,0.4,0.2,0.5
		c0.1,0,0.3,0,0.4,0c4.6,0,8.5-2.7,10.4-6.6c-1.1-2.8-1.7-5.8-1.7-9C234.8,147.6,233.6,147.8,232.4,147.8"/>
	<path fill="#ED408E" d="M297,157.7c-4.1,0-7.9-1.5-10.9-4c-1.6,6.1-5.4,11.2-10.5,14.6c0.2,0.2,0.5,0.4,0.7,0.5c2,1.3,4.6,2,7.5,2
		c2.7,0,5.1-0.6,7-1.7c2.9-1.8,5-4.7,5.8-8.1c0-0.2,0.1-0.4,0.1-0.6c0-0.2,0.1-0.4,0.1-0.6c0-0.2,0.1-0.4,0.1-0.6
		c0-0.4,0.1-0.8,0.1-1.2C297,157.9,297,157.8,297,157.7"/>
	<path fill="#ED408E" d="M286.1,153.7c3,2.5,6.8,4,10.9,4c-0.2-6-4.4-11.1-10.1-12.4c0,0.6,0.1,1.2,0.1,1.8
		C286.9,149.3,286.6,151.6,286.1,153.7"/>
	<path fill="#937BB3" d="M270.9,160C270.9,160,270.9,159.9,270.9,160C270.9,159.9,270.9,160,270.9,160"/>
	<path fill="#937BB3" d="M271.8,163.3c0.8,2.1,2.1,3.7,3.8,5c0,0,0,0,0,0C274,167,272.7,165.3,271.8,163.3"/>
	<path fill="#74509F" d="M280.6,145.3c-0.4-1.3-0.6-2.7-0.7-4.1c-0.1,0-0.1,0-0.2,0c-3.3,0-6.4-0.9-9-2.5v18.1
		c0,0.8,0.1,1.5,0.1,2.3c0-0.4-0.1-0.7-0.1-1.1C270.7,151.9,274.9,146.8,280.6,145.3"/>
	<path fill="#937BB3" d="M261.4,121.5c-2.2,0-4.4,0.3-6.4,0.8c-0.2,2.9-2.7,5.2-5.6,5.2c-0.5,0-1-0.1-1.5-0.2
		c0.3,1.1,0.5,2.3,0.5,3.5c0,5.6-3.4,10.4-8.2,12.5c-0.3,0.6-0.7,1.1-1.2,1.6h0c7.1,0,12.9,5.7,13.1,12.8c0-0.2,0-0.3,0-0.5v-23.4
		C252.1,125.6,255,121.5,261.4,121.5c0.4,0.1,0.7,0.1,1.1,0.1c0,0,0,0,0-0.1C262.1,121.5,261.8,121.5,261.4,121.5"/>
	<path fill="#937BB3" d="M271.7,163c0-0.2-0.1-0.3-0.2-0.4C271.6,162.7,271.6,162.8,271.7,163"/>
	<path fill="#5E318D" d="M239.5,133.8c1.1,1.5,1.7,3.3,1.7,5.2c0,1.6-0.4,3-1.1,4.3c4.8-2.1,8.2-6.9,8.2-12.5c0-1.2-0.2-2.4-0.5-3.5
		c-0.6-0.2-1.2-0.4-1.7-0.8C243.5,128.5,241.2,131,239.5,133.8"/>
	<path fill="#74509F" d="M280.6,145.3c1.1-0.3,2.2-0.4,3.3-0.4c1,0,2,0.1,3,0.4c-0.1-1.8-0.4-3.5-0.9-5.2c-1.9,0.8-4,1.2-6.1,1.2
		C279.9,142.7,280.2,144,280.6,145.3"/>
	<path fill="#5E318D" d="M279.8,141.3c0-0.3,0-0.6,0-1c0-3,0.8-5.9,2.2-8.4c-2.5-3.3-5.7-6.1-9.5-7.9c-0.8,0.4-1.7,0.7-2.7,0.7
		c-0.4,0-0.8,0-1.2-0.1c1.4,2,2,5,2,9.1v5.1c2.6,1.6,5.7,2.5,9,2.5C279.7,141.3,279.8,141.3,279.8,141.3"/>
	<path fill="#5E318D" d="M279.8,140.3c0,0.3,0,0.6,0,1c2.2,0,4.2-0.4,6.1-1.2c-0.8-3-2.2-5.7-4-8.2
		C280.6,134.4,279.8,137.3,279.8,140.3"/>
	<path fill="#5E318D" d="M265,122.1c1.5,0.5,2.7,1.3,3.5,2.5c0.4,0.1,0.8,0.1,1.2,0.1c1,0,1.9-0.2,2.7-0.7c-2.4-1.1-4.9-1.9-7.7-2.3
		C264.9,121.8,265,122,265,122.1"/>
	<path fill="#74509F" d="M247.8,127.3c0.5,0.1,1,0.2,1.5,0.2c3,0,5.4-2.3,5.6-5.2c-2.8,0.7-5.3,1.9-7.7,3.4
		C247.5,126.2,247.7,126.8,247.8,127.3"/>
	<path fill="#74509F" d="M246.1,126.5c0.5,0.4,1.1,0.6,1.7,0.8c-0.1-0.5-0.3-1.1-0.5-1.6C246.9,126,246.5,126.3,246.1,126.5"/>
	<path fill="#5E318D" d="M238.9,144.9L238.9,144.9c-0.5,0.5-0.9,0.9-1.5,1.3c0.7,1.5,1.1,3.2,1.1,5c0,1.8-0.4,3.5-1.1,5
		c1.9,5,5.3,9.2,9.6,12.1c2.2-1.7,3.8-4.2,4.5-7c0.2-1.1,0.4-2.3,0.4-3.5C251.9,150.7,246.1,144.9,238.9,144.9"/>
	<path fill="#5E318D" d="M237.5,146.2c-0.5,0.4-1.1,0.7-1.7,0.9c0,3.2,0.6,6.2,1.7,9c0.7-1.5,1.1-3.2,1.1-5
		C238.6,149.4,238.2,147.7,237.5,146.2"/>
	<path fill="#5E318D" d="M280.6,145.3c-5.7,1.5-9.9,6.6-9.9,12.7c0,0.4,0,0.7,0.1,1.1c0,0.3,0,0.5,0.1,0.8c0,0,0,0.1,0,0.1
		c0.1,0.9,0.4,1.7,0.6,2.5c0.1,0.1,0.1,0.3,0.2,0.4c0.1,0.1,0.1,0.2,0.1,0.4c0.9,1.9,2.2,3.6,3.8,5c5.1-3.4,8.9-8.6,10.5-14.6
		C283.5,151.5,281.6,148.6,280.6,145.3"/>
	<path fill="#5E318D" d="M280.6,145.3c1,3.3,2.9,6.2,5.5,8.3c0.6-2.1,0.9-4.3,0.9-6.6c0-0.6,0-1.2-0.1-1.8c-1-0.2-2-0.4-3-0.4
		C282.7,144.9,281.6,145.1,280.6,145.3"/>
	<path fill="#EF689E" d="M236,143.9c0.5-3.6,1.7-7,3.5-10c-1.6-2.2-4.2-3.6-7.1-3.6c-2.7,0-5.1,1.2-6.7,3.1c0,0.4,0,0.7,0,1.1v5.2
		c0.4,0,0.9-0.1,1.3-0.1C230.7,139.7,233.9,141.3,236,143.9"/>
	<path fill="#EF689E" d="M230.9,147.7c1.4-1.1,3.1-1.9,4.9-2.4c0-0.3,0-0.6,0.1-1c-0.4,0-0.8,0.1-1.2,0.1c-3.5,0-6.6-1.3-9-3.4v3.7
		C227.1,146.3,228.9,147.3,230.9,147.7"/>
	<path fill="#EF689E" d="M236,144.4c0-0.2,0-0.3,0.1-0.5c-2.1-2.6-5.3-4.2-8.9-4.2c-0.5,0-0.9,0-1.3,0.1v1.3c2.4,2.1,5.5,3.4,9,3.4
		C235.1,144.4,235.6,144.4,236,144.4"/>
	<path fill="#EF689E" d="M235.9,145.3c-1.8,0.4-3.5,1.3-4.9,2.4c0.5,0.1,1,0.1,1.5,0.1c1.2,0,2.4-0.2,3.4-0.7c0,0,0-0.1,0-0.1
		C235.8,146.5,235.9,145.9,235.9,145.3"/>
	<path fill="#ED408E" d="M236.9,145.1c0.7-0.1,1.3-0.2,2-0.2c0.5-0.5,0.9-1,1.2-1.6c-1.2,0.5-2.4,0.8-3.8,1
		C236.5,144.6,236.7,144.8,236.9,145.1"/>
	<path fill="#ED408E" d="M239.5,133.8c-1.8,3-3,6.4-3.5,10c0.1,0.1,0.2,0.3,0.3,0.4c1.3-0.2,2.6-0.5,3.8-1c0.7-1.3,1.1-2.7,1.1-4.3
		C241.2,137.1,240.6,135.3,239.5,133.8"/>
	<path fill="#ED408E" d="M236.3,144.3c-0.1,0-0.3,0-0.4,0c0,0.3-0.1,0.6-0.1,1c0.3-0.1,0.7-0.1,1-0.2
		C236.7,144.9,236.5,144.6,236.3,144.3"/>
	<path fill="#ED408E" d="M236,143.9c0,0.2,0,0.3-0.1,0.5c0.1,0,0.3,0,0.4,0C236.2,144.2,236.1,144,236,143.9"/>
	<path fill="#ED408E" d="M237.5,146.2c0.5-0.4,1-0.8,1.4-1.3c-0.7,0-1.4,0.1-2,0.2C237.1,145.5,237.3,145.8,237.5,146.2"/>
	<path fill="#ED408E" d="M235.9,145.3c0,0.6-0.1,1.2-0.1,1.7c0,0,0,0.1,0,0.1c0.6-0.3,1.2-0.6,1.7-0.9c-0.2-0.4-0.4-0.7-0.6-1.1
		C236.5,145.2,236.2,145.2,235.9,145.3"/>
	<path fill="#EF689E" d="M264.2,112.8c-2,0-3.7,1.6-3.7,3.7c0,1.5,0.9,2.8,2.2,3.4c0.6-2.4,1.7-4.7,3.2-6.6
		C265.5,113,264.9,112.8,264.2,112.8"/>
	<path fill="#EF689E" d="M264.3,120.1c-0.1-0.4-0.1-0.7-0.1-1.1c0-2.1,1.1-3.9,2.8-4.9c-0.3-0.4-0.6-0.6-1-0.9
		c-1.5,1.9-2.6,4.1-3.2,6.6C263.2,120.1,263.7,120.1,264.3,120.1L264.3,120.1"/>
	<path fill="#ED408E" d="M264.2,119.1c0,0.4,0,0.7,0.1,1.1c2-0.1,3.6-1.7,3.6-3.7c0-0.9-0.3-1.7-0.8-2.3
		C265.3,115.1,264.2,117,264.2,119.1"/>
</g>
<g>
</g>
<g>
</g>
<g>
</g>
<g>
</g>
<g>
</g>
<g>
</g>
<g>
</g>
<g>
</g>
<g>
</g>
<g>
</g>
</svg>
