<?xml version="1.0" encoding="utf-8"?>
<!-- Generator: Adobe Illustrator 19.1.0, SVG Export Plug-In . SVG Version: 6.00 Build 0)  -->
<svg version="1.1" id="Layer_16" xmlns="http://www.w3.org/2000/svg" xmlns:xlink="http://www.w3.org/1999/xlink" x="0px" y="0px"
	 viewBox="0 0 390 292.5" enable-background="new 0 0 390 292.5" xml:space="preserve">
<g>
	<g>
		<path fill="#5FBA46" d="M92.3,176.2c-12.6,0-22.9-10.2-22.9-22.9c0-12.6,10.2-22.9,22.9-22.9h19.4c1.9,0,3.4,1.5,3.4,3.4v38.9
			c0,1.9-1.5,3.4-3.4,3.4H92.3z"/>
		<path fill="#5FBA46" d="M122.3,176.2c-1.9,0-3.4-1.5-3.4-3.4v-26.7c0-8.6,7-15.7,15.6-15.7h12.2c1.9,0,3.4,1.5,3.4,3.4V145
			c0,0.9-0.4,1.8-1,2.5l-6.2,6.3v18.9c0,1.9-1.5,3.4-3.4,3.4H122.3z"/>
		<path fill="#5FBA46" d="M179.3,154.4l11.7,11.8c0.7,0.7,1,1.6,1,2.6c-0.1,0.9-0.5,1.9-1.3,2.5c-4.1,3.2-9,4.9-14.2,4.9
			c-12.7,0-22.9-10.2-22.9-22.9c0-12.6,10.2-22.9,22.9-22.9c11.6,0,21.3,8.7,22.7,20.2c0.2,2.1-1.3,3.8-3.4,3.8H179.3z"/>
		<path fill="#5FBA46" d="M213.3,176.2c-1.9,0-3.4-1.5-3.4-3.4v-18.3H206c-1.9,0-3.4-1.5-3.4-3.4v-17.2c0-1.9,1.5-3.4,3.4-3.4h3.9
			c0.6-8.1,7.4-14.5,15.6-14.5h6.7c1.9,0,3.4,1.5,3.4,3.4v11h2.1c1.9,0,3.4,1.5,3.4,3.4v17.2c0,1.9-1.5,3.4-3.4,3.4h-3.8v18.3
			c0,1.9-1.5,3.4-3.4,3.4H213.3z"/>
		<path fill="#5FBA46" d="M267.2,176.2c-12.7,0-22.9-10.2-22.9-22.9c0-12.6,10.2-22.9,22.9-22.9h19.4c1.9,0,3.4,1.5,3.4,3.4v38.9
			c0,1.9-1.5,3.4-3.4,3.4H267.2z"/>
		<path fill="#5FBA46" d="M331.3,166.2c0.7,0.7,1.1,1.6,1,2.6c-0.1,0.9-0.5,1.9-1.3,2.5c-4,3.2-9,4.9-14.2,4.9
			c-12.6,0-22.9-10.2-22.9-22.9c0-12.6,10.3-22.9,22.9-22.9c5.2,0,10.2,1.7,14.2,4.9c0.8,0.7,1.2,1.5,1.3,2.5c0.1,1-0.3,2-1,2.7
			l-12.8,12.8L331.3,166.2z"/>
		<path fill="#5FBA46" d="M358,154.4l11.7,11.8c0.7,0.7,1,1.6,1,2.6c-0.1,0.9-0.5,1.9-1.3,2.5c-4.1,3.2-9,4.9-14.2,4.9
			c-12.7,0-22.9-10.2-22.9-22.9c0-12.6,10.2-22.9,22.9-22.9c11.6,0,21.3,8.7,22.7,20.2c0.2,2.1-1.3,3.8-3.4,3.8H358z"/>
	</g>
	<g>
		<path fill="#5FBA46" d="M15.5,176.8c-1.9,0-3.5-1.6-3.5-3.5v-54.1c0-1.9,1.6-3.5,3.5-3.5h34.3c8.8,0,16,7.2,16,16
			c0,6.4-3.8,12-9.3,14.6c5.6,2.5,9.3,8.2,9.3,14.6c0,8.8-7.2,16-16,16H15.5z"/>
	</g>
	<g>
		<path fill="#FFFFFF" d="M17.4,158.1h16.1v3.7l-10.9,0l10.9,1.5v2.6l-10.7,1.5l10.7,0v3.7H17.4v-5.4c1-0.2,2.1-0.3,3.4-0.5l4.1-0.6
			l-7.5-1V158.1z"/>
		<path fill="#FFFFFF" d="M17.4,156.4v-7h3.2v2.8h3.1v-2.6h3.1v2.6h3.6v-3.1h3.2v7.3H17.4z"/>
		<path fill="#FFFFFF" d="M17.4,147.9v-3.1c0-2,0.1-3.4,0.3-4.1c0.2-0.7,0.5-1.3,0.9-1.6c0.4-0.4,0.9-0.6,1.4-0.7
			c0.5-0.1,1.5-0.1,3.1-0.1h5.7c1.4,0,2.4,0.1,2.9,0.2c0.5,0.1,0.9,0.4,1.1,0.7c0.3,0.3,0.5,0.8,0.6,1.3c0.1,0.5,0.2,1.2,0.2,2.3
			v5.3H17.4z M20.2,143.7h10.6c0-0.6-0.1-1-0.4-1.1c-0.2-0.1-0.9-0.2-2-0.2h-6.3c-0.7,0-1.2,0-1.4,0.1c-0.2,0-0.4,0.2-0.5,0.3
			C20.2,143,20.2,143.3,20.2,143.7z"/>
		<path fill="#FFFFFF" d="M17.4,132.4h16.1v4.2H17.4V132.4z"/>
		<path fill="#FFFFFF" d="M17.4,123.5l16.1-2.4v4.3l-2.9,0.2v1.5l2.9,0.3v4.3l-16.1-2.1V123.5z M27.8,125.7
			c-1.8,0.2-4.1,0.4-6.8,0.6c3.1,0.4,5.4,0.7,6.8,0.8V125.7z"/>
	</g>
</g>
<g>
</g>
<g>
</g>
<g>
</g>
<g>
</g>
<g>
</g>
<g>
</g>
<g>
</g>
<g>
</g>
<g>
</g>
<g>
</g>
</svg>
